Adelphe-Bold Italic.ufo
<glyph name="exclam" format="2">
  <advance width="244"/>
  <unicode hex="0021"/>
  <guideline x="142" y="231"/>
  <outline>
    <contour>
      <point x="115" y="226" type="line"/>
      <point x="299" y="692" type="line"/>
      <point x="278" y="713" type="line"/>
      <point x="161" y="700" type="line"/>
      <point x="93" y="231" type="line"/>
    </contour>
    <component base="period" xOffset="5"/>
  </outline>
</glyph>
<glyph name="numbersign" format="2">
  <advance width="659"/>
  <unicode hex="0023"/>
  <outline>
    <contour>
      <point x="90" y="407" type="line"/>
      <point x="669" y="407" type="line"/>
      <point x="695" y="494" type="line"/>
      <point x="116" y="494" type="line"/>
    </contour>
    <contour>
      <point x="-12" y="167" type="line"/>
      <point x="567" y="167" type="line"/>
      <point x="592" y="254" type="line"/>
      <point x="13" y="254" type="line"/>
    </contour>
    <component base="slash" xOffset="57"/>
    <component base="slash" xOffset="310"/>
  </outline>
</glyph>
<glyph name="dollar" format="2">
  <advance width="535"/>
  <unicode hex="0024"/>
  <outline>
    <contour>
      <point x="170" y="21" type="line"/>
      <point x="117" y="-175" type="line"/>
      <point x="177" y="-175" type="line"/>
      <point x="230" y="21" type="line"/>
    </contour>
    <contour>
      <point x="446" y="857" type="line"/>
      <point x="401" y="691" type="line"/>
      <point x="461" y="691" type="line"/>
      <point x="506" y="857" type="line"/>
    </contour>
    <component base="S"/>
  </outline>
</glyph>
<glyph name="percent" format="2">
  <advance width="760"/>
  <unicode hex="0025"/>
  <outline>
    <contour>
      <point x="133" y="42" type="line"/>
      <point x="208" y="0" type="line"/>
      <point x="622" y="655" type="line"/>
      <point x="548" y="700" type="line"/>
    </contour>
    <component base="degree" xOffset="-8" yOffset="-30"/>
    <component base="degree" xOffset="342" yOffset="-454"/>
  </outline>
</glyph>
<glyph name="ampersand" format="2">
  <advance width="878"/>
  <unicode hex="0026"/>
  <anchor x="239" y="480" name="top"/>
  <outline>
    <contour>
      <point x="312" y="-172" type="curve" smooth="yes"/>
      <point x="522" y="-172"/>
      <point x="922" y="253"/>
      <point x="922" y="558" type="curve" smooth="yes"/>
      <point x="922" y="661"/>
      <point x="882" y="742"/>
      <point x="817" y="841" type="curve"/>
      <point x="690" y="762" type="line"/>
      <point x="752" y="681"/>
      <point x="791" y="593"/>
      <point x="791" y="494" type="curve" smooth="yes"/>
      <point x="791" y="304"/>
      <point x="548" y="-82"/>
      <point x="347" y="-123" type="curve"/>
      <point x="262" y="-78"/>
      <point x="196" y="35"/>
      <point x="196" y="166" type="curve" smooth="yes"/>
      <point x="196" y="347"/>
      <point x="270" y="595"/>
      <point x="405" y="710" type="curve"/>
      <point x="412" y="696"/>
      <point x="418" y="676"/>
      <point x="418" y="657" type="curve" smooth="yes"/>
      <point x="418" y="579"/>
      <point x="294" y="492"/>
      <point x="206" y="474" type="curve"/>
      <point x="191" y="452" type="line"/>
      <point x="326" y="468"/>
      <point x="542" y="556"/>
      <point x="542" y="650" type="curve" smooth="yes"/>
      <point x="542" y="694"/>
      <point x="479" y="749"/>
      <point x="435" y="749" type="curve" smooth="yes"/>
      <point x="275" y="749"/>
      <point x="65" y="366"/>
      <point x="65" y="114" type="curve" smooth="yes"/>
      <point x="65" y="-32"/>
      <point x="181" y="-172"/>
    </contour>
    <contour>
      <point x="424" y="10" type="curve"/>
      <point x="457" y="45"/>
      <point x="505" y="93"/>
      <point x="567" y="139" type="curve"/>
      <point x="560" y="154" type="line"/>
      <point x="508" y="130"/>
      <point x="482" y="115"/>
      <point x="454" y="95" type="curve"/>
      <point x="560" y="363" type="line" smooth="yes"/>
      <point x="598" y="459"/>
      <point x="643" y="579"/>
      <point x="666" y="626" type="curve"/>
      <point x="651" y="636" type="line"/>
      <point x="477" y="480" type="line"/>
      <point x="452" y="405"/>
      <point x="308" y="62"/>
      <point x="313" y="47" type="curve" smooth="yes"/>
      <point x="324" y="17"/>
      <point x="404" y="10"/>
    </contour>
    <contour>
      <point x="686" y="443" type="line"/>
      <point x="712" y="490" type="line"/>
      <point x="708" y="509" type="line"/>
      <point x="569" y="499" type="line"/>
      <point x="195" y="472" type="line"/>
      <point x="196" y="455" type="line"/>
      <point x="541" y="445" type="line"/>
    </contour>
  </outline>
</glyph>
<glyph name="parenleft" format="2">
  <advance width="293"/>
  <unicode hex="0028"/>
  <outline>
    <contour>
      <point x="166" y="-191" type="curve"/>
      <point x="188" y="-176" type="line"/>
      <point x="151" y="-97"/>
      <point x="130" y="-3"/>
      <point x="130" y="105" type="curve" smooth="yes"/>
      <point x="130" y="319"/>
      <point x="258" y="538"/>
      <point x="439" y="718" type="curve"/>
      <point x="423" y="738" type="line"/>
      <point x="197" y="563"/>
      <point x="-2" y="357"/>
      <point x="-2" y="136" type="curve" smooth="yes"/>
      <point x="-2" y="16"/>
      <point x="63" y="-88"/>
    </contour>
  </outline>
</glyph>
<glyph name="parenright" format="2">
  <advance width="332"/>
  <unicode hex="0029"/>
  <outline>
    <contour>
      <point x="-116" y="-187" type="line"/>
      <point x="106" y="-22"/>
      <point x="302" y="197"/>
      <point x="302" y="409" type="curve" smooth="yes"/>
      <point x="302" y="528"/>
      <point x="240" y="632"/>
      <point x="138" y="739" type="curve"/>
      <point x="114" y="722" type="line"/>
      <point x="153" y="636"/>
      <point x="168" y="541"/>
      <point x="168" y="448" type="curve" smooth="yes"/>
      <point x="168" y="227"/>
      <point x="55" y="10"/>
      <point x="-131" y="-166" type="curve"/>
    </contour>
  </outline>
</glyph>
<glyph name="asterisk" format="2">
  <advance width="424"/>
  <unicode hex="002A"/>
  <outline>
    <contour>
      <point x="207" y="355" type="line"/>
      <point x="222" y="412"/>
      <point x="244" y="469"/>
      <point x="281" y="527" type="curve"/>
      <point x="285" y="477"/>
      <point x="291" y="424"/>
      <point x="308" y="375" type="curve"/>
      <point x="324" y="367" type="line"/>
      <point x="426" y="440" type="line"/>
      <point x="381" y="475"/>
      <point x="332" y="496"/>
      <point x="302" y="534" type="curve"/>
      <point x="352" y="531"/>
      <point x="408" y="528"/>
      <point x="457" y="537" type="curve"/>
      <point x="471" y="553" type="line"/>
      <point x="461" y="654" type="line"/>
      <point x="404" y="612"/>
      <point x="358" y="577"/>
      <point x="301" y="557" type="curve"/>
      <point x="331" y="608"/>
      <point x="370" y="660"/>
      <point x="389" y="710" type="curve"/>
      <point x="383" y="730" type="line"/>
      <point x="272" y="730" type="line"/>
      <point x="280" y="673"/>
      <point x="287" y="617"/>
      <point x="280" y="560" type="curve"/>
      <point x="251" y="588"/>
      <point x="206" y="631"/>
      <point x="172" y="649" type="curve"/>
      <point x="152" y="642" type="line"/>
      <point x="109" y="522" type="line"/>
      <point x="160" y="531"/>
      <point x="214" y="534"/>
      <point x="266" y="534" type="curve"/>
      <point x="215" y="503"/>
      <point x="157" y="466"/>
      <point x="109" y="423" type="curve"/>
      <point x="106" y="408" type="line"/>
    </contour>
  </outline>
</glyph>
<glyph name="plus" format="2">
  <advance width="510"/>
  <unicode hex="002B"/>
  <outline>
    <contour>
      <point x="62" y="405" type="line"/>
      <point x="62" y="313" type="line"/>
      <point x="508" y="313" type="line"/>
      <point x="508" y="405" type="line"/>
    </contour>
    <contour>
      <point x="331" y="582" type="line"/>
      <point x="239" y="582" type="line"/>
      <point x="239" y="136" type="line"/>
      <point x="331" y="136" type="line"/>
    </contour>
  </outline>
</glyph>
<glyph name="comma" format="2">
  <advance width="266"/>
  <unicode hex="002C"/>
  <outline>
    <contour>
      <point x="-63" y="-145" type="line"/>
      <point x="76" y="-63"/>
      <point x="178" y="28"/>
      <point x="190" y="76" type="curve"/>
      <point x="180" y="105"/>
      <point x="149" y="142"/>
      <point x="118" y="166" type="curve"/>
      <point x="12" y="78" type="line"/>
      <point x="37" y="58"/>
      <point x="53" y="40"/>
      <point x="60" y="20" type="curve"/>
      <point x="47" y="-14"/>
      <point x="5" y="-71"/>
      <point x="-71" y="-130" type="curve"/>
    </contour>
  </outline>
</glyph>
<glyph name="hyphen" format="2">
  <advance width="331"/>
  <unicode hex="002D"/>
  <outline>
    <contour>
      <point x="30" y="232" type="line"/>
      <point x="275" y="232" type="line"/>
      <point x="325" y="317" type="line"/>
      <point x="320" y="332" type="line"/>
      <point x="78" y="332" type="line"/>
      <point x="25" y="247" type="line"/>
    </contour>
  </outline>
</glyph>
<glyph name="slash" format="2">
  <advance width="274"/>
  <unicode hex="002F"/>
  <outline>
    <contour>
      <point x="-77" y="-40" type="line"/>
      <point x="26" y="-40" type="line"/>
      <point x="395" y="700" type="line"/>
      <point x="292" y="700" type="line"/>
    </contour>
  </outline>
</glyph>
<glyph name="zero" format="2">
  <advance width="606"/>
  <unicode hex="0030"/>
  <outline>
    <contour>
      <point x="213" y="-14" type="curve" smooth="yes"/>
      <point x="384" y="-14"/>
      <point x="628" y="278"/>
      <point x="628" y="511" type="curve" smooth="yes"/>
      <point x="628" y="637"/>
      <point x="562" y="714"/>
      <point x="453" y="714" type="curve" smooth="yes"/>
      <point x="281" y="714"/>
      <point x="33" y="423"/>
      <point x="33" y="193" type="curve" smooth="yes"/>
      <point x="33" y="80"/>
      <point x="96" y="-14"/>
    </contour>
    <contour>
      <point x="252" y="32" type="curve" smooth="yes"/>
      <point x="198" y="32"/>
      <point x="183" y="113"/>
      <point x="183" y="180" type="curve" smooth="yes"/>
      <point x="183" y="390"/>
      <point x="302" y="668"/>
      <point x="411" y="668" type="curve" smooth="yes"/>
      <point x="461" y="668"/>
      <point x="478" y="603"/>
      <point x="478" y="529" type="curve" smooth="yes"/>
      <point x="478" y="328"/>
      <point x="373" y="32"/>
    </contour>
  </outline>
</glyph>
<glyph name="one" format="2">
  <advance width="380"/>
  <unicode hex="0031"/>
  <outline>
    <contour>
      <point x="-34" y="0" type="line"/>
      <point x="279" y="0" type="line"/>
      <point x="280" y="18" type="line"/>
      <point x="192" y="38" type="line"/>
      <point x="390" y="700" type="line"/>
      <point x="383" y="709" type="line"/>
      <point x="119" y="637" type="line"/>
      <point x="119" y="623" type="line"/>
      <point x="280" y="609" type="line"/>
      <point x="237" y="650" type="line"/>
      <point x="55" y="38" type="line"/>
      <point x="-33" y="18" type="line"/>
    </contour>
  </outline>
</glyph>
<glyph name="two" format="2">
  <advance width="513"/>
  <unicode hex="0032"/>
  <outline>
    <contour>
      <point x="-59" y="0" type="line"/>
      <point x="350" y="0" type="line"/>
      <point x="443" y="174" type="line"/>
      <point x="432" y="184" type="line"/>
      <point x="360" y="118" type="line"/>
      <point x="75" y="118" type="line"/>
      <point x="39" y="65" type="line"/>
      <point x="389" y="325"/>
      <point x="540" y="455"/>
      <point x="540" y="580" type="curve" smooth="yes"/>
      <point x="540" y="650"/>
      <point x="480" y="708"/>
      <point x="383" y="708" type="curve" smooth="yes"/>
      <point x="273" y="708"/>
      <point x="179" y="635"/>
      <point x="112" y="534" type="curve"/>
      <point x="125" y="522" type="line"/>
      <point x="193" y="594"/>
      <point x="266" y="617"/>
      <point x="311" y="617" type="curve" smooth="yes"/>
      <point x="364" y="617"/>
      <point x="403" y="591"/>
      <point x="403" y="528" type="curve" smooth="yes"/>
      <point x="403" y="440"/>
      <point x="255" y="278"/>
      <point x="-62" y="16" type="curve"/>
    </contour>
  </outline>
</glyph>
<glyph name="three" format="2">
  <advance width="507"/>
  <unicode hex="0033"/>
  <outline>
    <contour>
      <point x="117" y="-14" type="curve" smooth="yes"/>
      <point x="292" y="-14"/>
      <point x="458" y="129"/>
      <point x="458" y="253" type="curve" smooth="yes"/>
      <point x="458" y="341"/>
      <point x="364" y="388"/>
      <point x="265" y="389" type="curve"/>
      <point x="394" y="431"/>
      <point x="515" y="509"/>
      <point x="515" y="604" type="curve" smooth="yes"/>
      <point x="515" y="671"/>
      <point x="453" y="707"/>
      <point x="372" y="707" type="curve" smooth="yes"/>
      <point x="275" y="707"/>
      <point x="191" y="656"/>
      <point x="120" y="576" type="curve"/>
      <point x="132" y="561" type="line"/>
      <point x="204" y="622"/>
      <point x="264" y="640"/>
      <point x="302" y="640" type="curve" smooth="yes"/>
      <point x="344" y="640"/>
      <point x="372" y="618"/>
      <point x="372" y="576" type="curve" smooth="yes"/>
      <point x="372" y="505"/>
      <point x="292" y="428"/>
      <point x="144" y="363" type="curve"/>
      <point x="149" y="344" type="line"/>
      <point x="195" y="352"/>
      <point x="312" y="342"/>
      <point x="312" y="212" type="curve" smooth="yes"/>
      <point x="312" y="136"/>
      <point x="259" y="31"/>
      <point x="185" y="31" type="curve" smooth="yes"/>
      <point x="116" y="31"/>
      <point x="66" y="105"/>
      <point x="42" y="179" type="curve"/>
      <point x="-62" y="52" type="line"/>
      <point x="-20" y="11"/>
      <point x="41" y="-14"/>
    </contour>
  </outline>
</glyph>
<glyph name="four" format="2">
  <advance width="577"/>
  <unicode hex="0034"/>
  <outline>
    <contour>
      <point x="246" y="37" type="line"/>
      <point x="140" y="18" type="line"/>
      <point x="139" y="0" type="line"/>
      <point x="439" y="0" type="line"/>
      <point x="440" y="18" type="line"/>
      <point x="365" y="37" type="line"/>
      <point x="567" y="686" type="line"/>
      <point x="484" y="714" type="line"/>
      <point x="-10" y="211" type="line"/>
      <point x="-5" y="193" type="line"/>
      <point x="496" y="193" type="line"/>
      <point x="527" y="285" type="line"/>
      <point x="89" y="285" type="line"/>
      <point x="67" y="249" type="line"/>
      <point x="445" y="599" type="line"/>
      <point x="427" y="618" type="line"/>
    </contour>
  </outline>
</glyph>
<glyph name="five" format="2">
  <advance width="518"/>
  <unicode hex="0035"/>
  <outline>
    <contour>
      <point x="144" y="-14" type="curve" smooth="yes"/>
      <point x="308" y="-14"/>
      <point x="455" y="127"/>
      <point x="455" y="263" type="curve" smooth="yes"/>
      <point x="455" y="365"/>
      <point x="368" y="432"/>
      <point x="157" y="469" type="curve"/>
      <point x="182" y="445" type="line"/>
      <point x="285" y="639" type="line"/>
      <point x="230" y="582" type="line"/>
      <point x="526" y="582" type="line"/>
      <point x="569" y="700" type="line"/>
      <point x="259" y="700" type="line"/>
      <point x="104" y="352" type="line"/>
      <point x="238" y="331"/>
      <point x="346" y="279"/>
      <point x="346" y="178" type="curve" smooth="yes"/>
      <point x="346" y="102"/>
      <point x="288" y="35"/>
      <point x="210" y="35" type="curve" smooth="yes"/>
      <point x="139" y="35"/>
      <point x="83" y="93"/>
      <point x="57" y="179" type="curve"/>
      <point x="-47" y="52" type="line"/>
      <point x="7" y="-2"/>
      <point x="77" y="-14"/>
    </contour>
  </outline>
</glyph>
<glyph name="six" format="2">
  <advance width="601"/>
  <unicode hex="0036"/>
  <outline>
    <contour>
      <point x="231" y="-14" type="curve" smooth="yes"/>
      <point x="359" y="-14"/>
      <point x="571" y="169"/>
      <point x="571" y="304" type="curve" smooth="yes"/>
      <point x="571" y="388"/>
      <point x="500" y="448"/>
      <point x="425" y="448" type="curve" smooth="yes"/>
      <point x="367" y="448"/>
      <point x="301" y="387"/>
      <point x="265" y="307" type="curve"/>
      <point x="282" y="297" type="line"/>
      <point x="319" y="344"/>
      <point x="361" y="376"/>
      <point x="385" y="389" type="curve"/>
      <point x="408" y="371"/>
      <point x="424" y="323"/>
      <point x="424" y="278" type="curve" smooth="yes"/>
      <point x="424" y="164"/>
      <point x="341" y="55"/>
      <point x="265" y="26" type="curve"/>
      <point x="222" y="52"/>
      <point x="192" y="107"/>
      <point x="192" y="190" type="curve" smooth="yes"/>
      <point x="192" y="364"/>
      <point x="311" y="603"/>
      <point x="610" y="713" type="curve"/>
      <point x="607" y="734" type="line"/>
      <point x="328" y="702"/>
      <point x="35" y="407"/>
      <point x="35" y="166" type="curve" smooth="yes"/>
      <point x="35" y="37"/>
      <point x="132" y="-14"/>
    </contour>
  </outline>
</glyph>
<glyph name="seven" format="2">
  <advance width="472"/>
  <unicode hex="0037"/>
  <outline>
    <contour>
      <point x="4" y="1" type="line"/>
      <point x="164" y="1" type="line"/>
      <point x="579" y="684" type="line"/>
      <point x="572" y="700" type="line"/>
      <point x="171" y="700" type="line"/>
      <point x="89" y="524" type="line"/>
      <point x="104" y="516" type="line"/>
      <point x="175" y="582" type="line"/>
      <point x="516" y="582" type="line"/>
      <point x="521" y="641" type="line"/>
      <point x="-1" y="19" type="line"/>
    </contour>
  </outline>
</glyph>
<glyph name="eight" format="2">
  <advance width="553"/>
  <unicode hex="0038"/>
  <outline>
    <contour>
      <point x="181" y="-14" type="curve" smooth="yes"/>
      <point x="310" y="-14"/>
      <point x="479" y="97"/>
      <point x="479" y="203" type="curve" smooth="yes"/>
      <point x="479" y="296"/>
      <point x="306" y="449"/>
      <point x="306" y="547" type="curve" smooth="yes"/>
      <point x="306" y="627"/>
      <point x="354" y="666"/>
      <point x="410" y="686" type="curve"/>
      <point x="450" y="673"/>
      <point x="471" y="644"/>
      <point x="471" y="608" type="curve" smooth="yes"/>
      <point x="471" y="535"/>
      <point x="422" y="457"/>
      <point x="332" y="389" type="curve"/>
      <point x="342" y="368" type="line"/>
      <point x="441" y="428"/>
      <point x="611" y="532"/>
      <point x="611" y="623" type="curve" smooth="yes"/>
      <point x="611" y="672"/>
      <point x="557" y="714"/>
      <point x="449" y="714" type="curve" smooth="yes"/>
      <point x="326" y="714"/>
      <point x="172" y="625"/>
      <point x="172" y="521" type="curve" smooth="yes"/>
      <point x="172" y="427"/>
      <point x="346" y="270"/>
      <point x="346" y="179" type="curve" smooth="yes"/>
      <point x="346" y="102"/>
      <point x="289" y="36"/>
      <point x="213" y="17" type="curve"/>
      <point x="165" y="35"/>
      <point x="148" y="78"/>
      <point x="148" y="122" type="curve" smooth="yes"/>
      <point x="148" y="185"/>
      <point x="195" y="264"/>
      <point x="292" y="344" type="curve"/>
      <point x="280" y="366" type="line"/>
      <point x="169" y="299"/>
      <point x="5" y="199"/>
      <point x="5" y="108" type="curve" smooth="yes"/>
      <point x="5" y="42"/>
      <point x="61" y="-14"/>
    </contour>
  </outline>
</glyph>
<glyph name="greater" format="2">
  <advance width="496"/>
  <unicode hex="003E"/>
  <outline>
    <contour>
      <point x="76" y="512" type="line"/>
      <point x="120" y="599" type="line"/>
      <point x="494" y="386" type="line"/>
      <point x="494" y="315" type="line"/>
      <point x="120" y="102" type="line"/>
      <point x="76" y="189" type="line"/>
      <point x="373" y="350" type="line"/>
    </contour>
  </outline>
</glyph>
<glyph name="question" format="2">
  <advance width="388"/>
  <unicode hex="003F"/>
  <guideline x="265" y="231"/>
  <outline>
    <contour>
      <point x="347" y="598" type="curve" smooth="yes"/>
      <point x="347" y="465"/>
      <point x="173" y="332"/>
      <point x="143" y="236" type="curve"/>
      <point x="179" y="231" type="line"/>
      <point x="209" y="317"/>
      <point x="485" y="472"/>
      <point x="485" y="629" type="curve" smooth="yes"/>
      <point x="485" y="650"/>
      <point x="417" y="712"/>
      <point x="355" y="712" type="curve" smooth="yes"/>
      <point x="254" y="712"/>
      <point x="81" y="569"/>
      <point x="81" y="507" type="curve" smooth="yes"/>
      <point x="81" y="494"/>
      <point x="87" y="481"/>
      <point x="96" y="469" type="curve"/>
      <point x="233" y="531" type="line"/>
      <point x="228" y="539"/>
      <point x="223" y="548"/>
      <point x="223" y="561" type="curve" smooth="yes"/>
      <point x="223" y="611"/>
      <point x="263" y="659"/>
      <point x="305" y="670" type="curve"/>
      <point x="332" y="659"/>
      <point x="347" y="632"/>
    </contour>
    <component base="period" xOffset="65"/>
  </outline>
</glyph>
<glyph name="at" format="2">
  <advance width="796"/>
  <unicode hex="0040"/>
  <outline>
    <contour>
      <point x="254" y="-123" type="curve" smooth="yes"/>
      <point x="319" y="-123"/>
      <point x="386" y="-88"/>
      <point x="459" y="-34" type="curve"/>
      <point x="450" y="-19" type="line"/>
      <point x="394" y="-49"/>
      <point x="357" y="-63"/>
      <point x="282" y="-84" type="curve"/>
      <point x="192" y="-63"/>
      <point x="124" y="15"/>
      <point x="124" y="104" type="curve" smooth="yes"/>
      <point x="124" y="301"/>
      <point x="298" y="527"/>
      <point x="510" y="561" type="curve"/>
      <point x="619" y="522"/>
      <point x="691" y="435"/>
      <point x="691" y="354" type="curve" smooth="yes"/>
      <point x="691" y="217"/>
      <point x="570" y="102"/>
      <point x="516" y="72" type="curve"/>
      <point x="534" y="128"/>
      <point x="540" y="152"/>
      <point x="562" y="216" type="curve" smooth="yes"/>
      <point x="630" y="413" type="line"/>
      <point x="622" y="421" type="line"/>
      <point x="520" y="394" type="line"/>
      <point x="451" y="178" type="line" smooth="yes"/>
      <point x="438" y="137"/>
      <point x="427" y="69"/>
      <point x="430" y="57" type="curve" smooth="yes"/>
      <point x="433" y="46"/>
      <point x="458" y="33"/>
      <point x="482" y="33" type="curve" smooth="yes"/>
      <point x="591" y="33"/>
      <point x="805" y="238"/>
      <point x="805" y="400" type="curve" smooth="yes"/>
      <point x="805" y="512"/>
      <point x="667" y="597"/>
      <point x="535" y="597" type="curve" smooth="yes"/>
      <point x="312" y="597"/>
      <point x="-4" y="308"/>
      <point x="-4" y="59" type="curve" smooth="yes"/>
      <point x="-4" y="-73"/>
      <point x="156" y="-123"/>
    </contour>
    <component base="panse_adq" xScale="0.8" yScale="0.8" xOffset="187" yOffset="36"/>
  </outline>
</glyph>
<glyph name="A" format="2">
  <advance width="700"/>
  <unicode hex="0041"/>
  <anchor x="237" y="0" name="bottom"/>
  <anchor x="541" y="700" name="top"/>
  <outline>
    <contour>
      <point x="-98" y="0" type="line"/>
      <point x="177" y="0" type="line"/>
      <point x="180" y="18" type="line"/>
      <point x="89" y="34" type="line"/>
      <point x="469" y="651" type="line"/>
      <point x="459" y="663" type="line"/>
      <point x="450" y="34" type="line"/>
      <point x="340" y="18" type="line"/>
      <point x="337" y="0" type="line"/>
      <point x="644" y="0" type="line"/>
      <point x="646" y="18" type="line"/>
      <point x="588" y="33" type="line"/>
      <point x="597" y="700" type="line"/>
      <point x="471" y="700" type="line"/>
      <point x="-37" y="32" type="line"/>
      <point x="-96" y="18" type="line"/>
    </contour>
    <contour>
      <point x="175" y="217" type="line"/>
      <point x="458" y="217" type="line"/>
      <point x="463" y="258" type="line"/>
      <point x="191" y="258" type="line"/>
    </contour>
  </outline>
</glyph>
<glyph name="B" format="2">
  <advance width="640"/>
  <unicode hex="0042"/>
  <outline>
    <contour>
      <point x="-51" y="0" type="line"/>
      <point x="180" y="0" type="line" smooth="yes"/>
      <point x="451" y="0"/>
      <point x="592" y="91"/>
      <point x="592" y="197" type="curve" smooth="yes"/>
      <point x="592" y="282"/>
      <point x="485" y="333"/>
      <point x="379" y="361" type="curve"/>
      <point x="519" y="392"/>
      <point x="642" y="473"/>
      <point x="642" y="549" type="curve" smooth="yes"/>
      <point x="642" y="623"/>
      <point x="533" y="700"/>
      <point x="355" y="700" type="curve" smooth="yes"/>
      <point x="154" y="700" type="line"/>
      <point x="150" y="685" type="line"/>
      <point x="229" y="672" type="line"/>
      <point x="37" y="33" type="line"/>
      <point x="-46" y="15" type="line"/>
    </contour>
    <contour>
      <point x="176" y="37" type="curve"/>
      <point x="270" y="353" type="line"/>
      <point x="388" y="341"/>
      <point x="447" y="270"/>
      <point x="447" y="200" type="curve" smooth="yes"/>
      <point x="447" y="102"/>
      <point x="367" y="37"/>
    </contour>
    <contour>
      <point x="497" y="438"/>
      <point x="374" y="375"/>
      <point x="280" y="383" type="curve"/>
      <point x="363" y="658" type="line"/>
      <point x="474" y="653"/>
      <point x="497" y="599"/>
      <point x="497" y="542" type="curve" smooth="yes"/>
    </contour>
  </outline>
</glyph>
<glyph name="C" format="2">
  <advance width="599"/>
  <unicode hex="0043"/>
  <anchor x="330" y="0" name="bottom"/>
  <outline>
    <contour>
      <point x="296" y="-13" type="curve" smooth="yes"/>
      <point x="350" y="-13"/>
      <point x="449" y="0"/>
      <point x="478" y="6" type="curve"/>
      <point x="542" y="201" type="line"/>
      <point x="525" y="208" type="line"/>
      <point x="455" y="124" type="line" smooth="yes"/>
      <point x="380" y="35"/>
      <point x="341" y="28"/>
      <point x="326" y="28" type="curve" smooth="yes"/>
      <point x="234" y="28"/>
      <point x="193" y="155"/>
      <point x="193" y="248" type="curve" smooth="yes"/>
      <point x="193" y="435"/>
      <point x="340" y="670"/>
      <point x="473" y="670" type="curve" smooth="yes"/>
      <point x="507" y="670"/>
      <point x="524" y="662"/>
      <point x="548" y="646" type="curve"/>
      <point x="604" y="477" type="line"/>
      <point x="621" y="479" type="line"/>
      <point x="661" y="676" type="line"/>
      <point x="595" y="708"/>
      <point x="547" y="713"/>
      <point x="497" y="713" type="curve" smooth="yes"/>
      <point x="287" y="713"/>
      <point x="40" y="438"/>
      <point x="40" y="224" type="curve" smooth="yes"/>
      <point x="40" y="107"/>
      <point x="137" y="-13"/>
    </contour>
  </outline>
</glyph>
<glyph name="D" format="2">
  <advance width="685"/>
  <unicode hex="0044"/>
  <outline>
    <contour>
      <point x="-50" y="0" type="line"/>
      <point x="167" y="0" type="line" smooth="yes"/>
      <point x="457" y="0"/>
      <point x="691" y="245"/>
      <point x="691" y="435" type="curve" smooth="yes"/>
      <point x="691" y="564"/>
      <point x="585" y="700"/>
      <point x="360" y="700" type="curve" smooth="yes"/>
      <point x="153" y="700" type="line"/>
      <point x="149" y="685" type="line"/>
      <point x="228" y="672" type="line"/>
      <point x="35" y="33" type="line"/>
      <point x="-47" y="15" type="line"/>
    </contour>
    <contour>
      <point x="174" y="37" type="curve"/>
      <point x="364" y="665" type="line"/>
      <point x="496" y="665"/>
      <point x="541" y="534"/>
      <point x="541" y="433" type="curve" smooth="yes"/>
      <point x="541" y="276"/>
      <point x="431" y="37"/>
    </contour>
  </outline>
</glyph>
<glyph name="E" format="2">
  <advance width="661"/>
  <unicode hex="0045"/>
  <anchor x="332" y="0" name="bottom"/>
  <anchor x="492" y="700" name="top"/>
  <outline>
    <contour>
      <point x="-47" y="0" type="line"/>
      <point x="267" y="0" type="line"/>
      <point x="268" y="18" type="line"/>
      <point x="172" y="18" type="line"/>
      <point x="370" y="682" type="line"/>
      <point x="458" y="682" type="line"/>
      <point x="462" y="700" type="line"/>
      <point x="164" y="700" type="line"/>
      <point x="160" y="686" type="line"/>
      <point x="227" y="664" type="line"/>
      <point x="40" y="37" type="line"/>
      <point x="-46" y="18" type="line"/>
    </contour>
    <contour>
      <point x="174" y="0" type="line"/>
      <point x="552" y="0" type="line"/>
      <point x="609" y="201" type="line"/>
      <point x="593" y="208" type="line"/>
      <point x="447" y="58" type="line"/>
      <point x="163" y="33" type="line"/>
    </contour>
    <contour>
      <point x="454" y="210" type="line"/>
      <point x="519" y="469" type="line"/>
      <point x="502" y="475" type="line"/>
      <point x="407" y="378" type="line"/>
      <point x="261" y="356" type="line"/>
      <point x="256" y="330" type="line"/>
      <point x="397" y="324" type="line"/>
      <point x="436" y="211" type="line"/>
    </contour>
    <contour>
      <point x="636" y="482" type="line"/>
      <point x="654" y="485" type="line"/>
      <point x="681" y="700" type="line"/>
      <point x="328" y="700" type="line"/>
      <point x="315" y="673" type="line"/>
      <point x="549" y="651" type="line"/>
    </contour>
  </outline>
</glyph>
<glyph name="F" format="2">
  <advance width="601"/>
  <unicode hex="0046"/>
  <anchor x="226" y="0" name="bottom"/>
  <anchor x="-31" y="700" name="top"/>
  <outline>
    <contour>
      <point x="-47" y="0" type="line"/>
      <point x="267" y="0" type="line"/>
      <point x="268" y="18" type="line"/>
      <point x="178" y="38" type="line"/>
      <point x="370" y="682" type="line"/>
      <point x="458" y="682" type="line"/>
      <point x="462" y="700" type="line"/>
      <point x="164" y="700" type="line"/>
      <point x="160" y="686" type="line"/>
      <point x="227" y="664" type="line"/>
      <point x="40" y="37" type="line"/>
      <point x="-46" y="18" type="line"/>
    </contour>
    <contour>
      <point x="460" y="219" type="line"/>
      <point x="523" y="464" type="line"/>
      <point x="506" y="470" type="line"/>
      <point x="417" y="379" type="line"/>
      <point x="264" y="356" type="line"/>
      <point x="259" y="331" type="line"/>
      <point x="401" y="321" type="line"/>
      <point x="442" y="220" type="line"/>
    </contour>
    <contour>
      <point x="633" y="488" type="line"/>
      <point x="651" y="491" type="line"/>
      <point x="681" y="700" type="line"/>
      <point x="328" y="700" type="line"/>
      <point x="315" y="673" type="line"/>
      <point x="548" y="648" type="line"/>
    </contour>
  </outline>
</glyph>
<glyph name="G" format="2">
  <advance width="678"/>
  <unicode hex="0047"/>
  <anchor x="317" y="0" name="bottom"/>
  <outline>
    <contour>
      <point x="517" y="-14" type="line"/>
      <point x="532" y="-14" type="line"/>
      <point x="611" y="282" type="line"/>
      <point x="677" y="299" type="line"/>
      <point x="681" y="317" type="line"/>
      <point x="343" y="317" type="line"/>
      <point x="340" y="300" type="line"/>
      <point x="474" y="281" type="line"/>
      <point x="416" y="63" type="line"/>
      <point x="401" y="49"/>
      <point x="373" y="28"/>
      <point x="332" y="28" type="curve" smooth="yes"/>
      <point x="221" y="28"/>
      <point x="194" y="159"/>
      <point x="194" y="251" type="curve" smooth="yes"/>
      <point x="194" y="430"/>
      <point x="340" y="670"/>
      <point x="474" y="670" type="curve" smooth="yes"/>
      <point x="508" y="670"/>
      <point x="524" y="663"/>
      <point x="549" y="646" type="curve"/>
      <point x="605" y="477" type="line"/>
      <point x="622" y="479" type="line"/>
      <point x="662" y="676" type="line"/>
      <point x="596" y="706"/>
      <point x="558" y="713"/>
      <point x="498" y="713" type="curve" smooth="yes"/>
      <point x="287" y="713"/>
      <point x="41" y="436"/>
      <point x="41" y="229" type="curve" smooth="yes"/>
      <point x="41" y="100"/>
      <point x="159" y="-13"/>
      <point x="306" y="-13" type="curve" smooth="yes"/>
      <point x="355" y="-13"/>
      <point x="410" y="6"/>
      <point x="456" y="25" type="curve"/>
    </contour>
  </outline>
</glyph>
<glyph name="H" format="2">
  <advance width="783"/>
  <unicode hex="0048"/>
  <anchor x="293" y="0" name="bottom"/>
  <outline>
    <contour>
      <point x="182" y="334" type="line"/>
      <point x="618" y="334" type="line"/>
      <point x="633" y="376" type="line"/>
      <point x="198" y="376" type="line"/>
    </contour>
    <component base="I"/>
    <component base="I" xOffset="425"/>
  </outline>
</glyph>
<glyph name="I" format="2">
  <advance width="358"/>
  <unicode hex="0049"/>
  <anchor x="329" y="700" name="top"/>
  <outline>
    <contour>
      <point x="-47" y="0" type="line"/>
      <point x="267" y="0" type="line"/>
      <point x="268" y="18" type="line"/>
      <point x="180" y="38" type="line"/>
      <point x="367" y="662" type="line"/>
      <point x="459" y="682" type="line"/>
      <point x="463" y="700" type="line"/>
      <point x="165" y="700" type="line"/>
      <point x="161" y="686" type="line"/>
      <point x="230" y="664" type="line"/>
      <point x="42" y="38" type="line"/>
      <point x="-46" y="18" type="line"/>
    </contour>
  </outline>
</glyph>
<glyph name="J" format="2">
  <advance width="348"/>
  <unicode hex="004A"/>
  <anchor x="-74" y="700" name="top"/>
  <outline>
    <contour>
      <point x="-148" y="-226" type="line"/>
      <point x="-10" y="-140"/>
      <point x="162" y="-23"/>
      <point x="201" y="108" type="curve" smooth="yes"/>
      <point x="366" y="662" type="line"/>
      <point x="449" y="682" type="line"/>
      <point x="453" y="700" type="line"/>
      <point x="155" y="700" type="line"/>
      <point x="151" y="686" type="line"/>
      <point x="229" y="664" type="line"/>
      <point x="63" y="108" type="line" smooth="yes"/>
      <point x="31" y="0"/>
      <point x="-54" y="-112"/>
      <point x="-158" y="-211" type="curve"/>
    </contour>
  </outline>
</glyph>
<glyph name="K" format="2">
  <advance width="675"/>
  <unicode hex="004B"/>
  <outline>
    <contour>
      <point x="479" y="0" type="line"/>
      <point x="640" y="0" type="line"/>
      <point x="648" y="17" type="line"/>
      <point x="331" y="390" type="line"/>
      <point x="316" y="338" type="line"/>
      <point x="749" y="671" type="line"/>
      <point x="798" y="682" type="line"/>
      <point x="800" y="700" type="line"/>
      <point x="550" y="700" type="line"/>
      <point x="546" y="683" type="line"/>
      <point x="603" y="669" type="line"/>
      <point x="282" y="349" type="line"/>
    </contour>
    <component base="I"/>
  </outline>
</glyph>
<glyph name="L" format="2">
  <advance width="587"/>
  <unicode hex="004C"/>
  <anchor x="250" y="0" name="bottom"/>
  <anchor x="424" y="700" name="top"/>
  <outline>
    <contour>
      <point x="118" y="0" type="line"/>
      <point x="496" y="0" type="line"/>
      <point x="558" y="196" type="line"/>
      <point x="542" y="203" type="line"/>
      <point x="392" y="58" type="line"/>
      <point x="139" y="37" type="line"/>
    </contour>
    <component base="I"/>
  </outline>
</glyph>
<glyph name="M" format="2">
  <advance width="913"/>
  <unicode hex="004D"/>
  <outline>
    <contour>
      <point x="371" y="59" type="line"/>
      <point x="750" y="596" type="line"/>
      <point x="760" y="700" type="line"/>
      <point x="735" y="700" type="line"/>
      <point x="410" y="169" type="line"/>
      <point x="475" y="221" type="line"/>
      <point x="421" y="700" type="line"/>
      <point x="213" y="700" type="line"/>
      <point x="209" y="683" type="line"/>
      <point x="288" y="667" type="line"/>
      <point x="357" y="63" type="line"/>
    </contour>
    <contour>
      <point x="-72" y="0" type="line"/>
      <point x="188" y="0" type="line"/>
      <point x="188" y="17" type="line"/>
      <point x="117" y="33" type="line"/>
      <point x="310" y="643" type="line"/>
      <point x="295" y="678" type="line"/>
      <point x="-8" y="33" type="line"/>
      <point x="-72" y="17" type="line"/>
    </contour>
    <contour>
      <point x="560" y="0" type="line"/>
      <point x="852" y="0" type="line"/>
      <point x="852" y="17" type="line"/>
      <point x="789" y="32" type="line"/>
      <point x="885" y="667" type="line"/>
      <point x="958" y="683" type="line"/>
      <point x="961" y="700" type="line"/>
      <point x="755" y="700" type="line"/>
      <point x="651" y="35" type="line"/>
      <point x="560" y="17" type="line"/>
    </contour>
  </outline>
</glyph>
<glyph name="O" format="2">
  <advance width="662"/>
  <unicode hex="004F"/>
  <anchor x="325" y="0" name="bottom"/>
  <anchor x="473" y="700" name="top"/>
  <outline>
    <contour>
      <point x="256" y="-14" type="curve" smooth="yes"/>
      <point x="457" y="-14"/>
      <point x="680" y="281"/>
      <point x="680" y="493" type="curve" smooth="yes"/>
      <point x="680" y="617"/>
      <point x="584" y="714"/>
      <point x="470" y="714" type="curve" smooth="yes"/>
      <point x="271" y="714"/>
      <point x="40" y="431"/>
      <point x="40" y="221" type="curve" smooth="yes"/>
      <point x="40" y="107"/>
      <point x="129" y="-14"/>
    </contour>
    <contour>
      <point x="298" y="32" type="curve" smooth="yes"/>
      <point x="222" y="32"/>
      <point x="192" y="140"/>
      <point x="192" y="240" type="curve" smooth="yes"/>
      <point x="192" y="390"/>
      <point x="291" y="668"/>
      <point x="425" y="668" type="curve" smooth="yes"/>
      <point x="482" y="668"/>
      <point x="528" y="597"/>
      <point x="528" y="477" type="curve" smooth="yes"/>
      <point x="528" y="325"/>
      <point x="441" y="32"/>
    </contour>
  </outline>
</glyph>
<glyph name="P" format="2">
  <advance width="604"/>
  <unicode hex="0050"/>
  <anchor x="-31" y="700" name="top"/>
  <outline>
    <contour>
      <point x="-47" y="0" type="line"/>
      <point x="267" y="0" type="line"/>
      <point x="268" y="18" type="line"/>
      <point x="177" y="38" type="line"/>
      <point x="364" y="666" type="line"/>
      <point x="461" y="653"/>
      <point x="506" y="584"/>
      <point x="506" y="516" type="curve" smooth="yes"/>
      <point x="506" y="431"/>
      <point x="444" y="330"/>
      <point x="299" y="281" type="curve"/>
      <point x="303" y="258" type="line"/>
      <point x="424" y="286"/>
      <point x="651" y="384"/>
      <point x="651" y="514" type="curve" smooth="yes"/>
      <point x="651" y="613"/>
      <point x="531" y="700"/>
      <point x="358" y="700" type="curve" smooth="yes"/>
      <point x="164" y="700" type="line"/>
      <point x="160" y="686" type="line"/>
      <point x="226" y="664" type="line"/>
      <point x="39" y="37" type="line"/>
      <point x="-46" y="18" type="line"/>
    </contour>
  </outline>
</glyph>
<glyph name="Q" format="2">
  <advance width="677"/>
  <unicode hex="0051"/>
  <anchor x="336" y="0" name="bottom"/>
  <anchor x="548" y="666" name="top"/>
  <outline>
    <contour>
      <point x="453" y="-194" type="curve"/>
      <point x="576" y="-191"/>
      <point x="706" y="-169"/>
      <point x="823" y="-141" type="curve"/>
      <point x="822" y="-122" type="line"/>
      <point x="757" y="-119"/>
      <point x="619" y="-103"/>
      <point x="549" y="-93" type="curve"/>
      <point x="493" y="-67"/>
      <point x="422" y="-18"/>
      <point x="370" y="20" type="curve"/>
      <point x="339" y="8" type="line"/>
      <point x="372" y="-59"/>
      <point x="420" y="-150"/>
    </contour>
    <component base="O"/>
  </outline>
</glyph>
<glyph name="R" format="2">
  <advance width="646"/>
  <unicode hex="0052"/>
  <anchor x="371" y="0" name="bottom"/>
  <anchor x="473" y="700" name="top"/>
  <outline>
    <contour>
      <point x="-47" y="0" type="line"/>
      <point x="267" y="0" type="line"/>
      <point x="268" y="18" type="line"/>
      <point x="178" y="36" type="line"/>
      <point x="364" y="662" type="line"/>
      <point x="468" y="656"/>
      <point x="500" y="595"/>
      <point x="500" y="538" type="curve" smooth="yes"/>
      <point x="500" y="462"/>
      <point x="430" y="358"/>
      <point x="242" y="325" type="curve"/>
      <point x="234" y="295" type="line"/>
      <point x="425" y="316"/>
      <point x="645" y="412"/>
      <point x="645" y="538" type="curve" smooth="yes"/>
      <point x="645" y="631"/>
      <point x="529" y="700"/>
      <point x="358" y="700" type="curve" smooth="yes"/>
      <point x="164" y="700" type="line"/>
      <point x="160" y="686" type="line"/>
      <point x="227" y="664" type="line"/>
      <point x="40" y="35" type="line"/>
      <point x="-46" y="18" type="line"/>
    </contour>
    <contour>
      <point x="447" y="0" type="line"/>
      <point x="603" y="0" type="line"/>
      <point x="609" y="16" type="line"/>
      <point x="350" y="340" type="line"/>
      <point x="304" y="324" type="line"/>
    </contour>
  </outline>
</glyph>
<glyph name="S" format="2">
  <advance width="535"/>
  <unicode hex="0053"/>
  <anchor x="243" y="-9" name="bottom"/>
  <outline>
    <contour>
      <point x="164" y="-9" type="curve" smooth="yes"/>
      <point x="316" y="-9"/>
      <point x="428" y="93"/>
      <point x="428" y="193" type="curve" smooth="yes"/>
      <point x="428" y="300"/>
      <point x="314" y="465"/>
      <point x="314" y="567" type="curve" smooth="yes"/>
      <point x="314" y="622"/>
      <point x="357" y="679"/>
      <point x="424" y="679" type="curve" smooth="yes"/>
      <point x="455" y="679"/>
      <point x="484" y="664"/>
      <point x="508" y="642" type="curve"/>
      <point x="520" y="481" type="line"/>
      <point x="537" y="478" type="line"/>
      <point x="607" y="666" type="line"/>
      <point x="566" y="701"/>
      <point x="504" y="719"/>
      <point x="447" y="719" type="curve" smooth="yes"/>
      <point x="304" y="719"/>
      <point x="187" y="635"/>
      <point x="187" y="518" type="curve" smooth="yes"/>
      <point x="187" y="403"/>
      <point x="305" y="231"/>
      <point x="305" y="131" type="curve" smooth="yes"/>
      <point x="305" y="85"/>
      <point x="260" y="32"/>
      <point x="187" y="32" type="curve" smooth="yes"/>
      <point x="156" y="32"/>
      <point x="119" y="40"/>
      <point x="89" y="69" type="curve"/>
      <point x="68" y="253" type="line"/>
      <point x="51" y="255" type="line"/>
      <point x="-20" y="62" type="line"/>
      <point x="2" y="34"/>
      <point x="71" y="-9"/>
    </contour>
  </outline>
</glyph>
<glyph name="T" format="2">
  <advance width="677"/>
  <unicode hex="0054"/>
  <anchor x="403" y="0" name="bottom"/>
  <anchor x="461" y="700" name="top"/>
  <outline>
    <contour>
      <point x="94" y="0" type="line"/>
      <point x="440" y="0" type="line"/>
      <point x="442" y="18" type="line"/>
      <point x="342" y="38" type="line"/>
      <point x="538" y="700" type="line"/>
      <point x="400" y="700" type="line"/>
      <point x="205" y="41" type="line"/>
      <point x="95" y="16" type="line"/>
    </contour>
    <contour>
      <point x="697" y="482" type="line"/>
      <point x="715" y="482" type="line"/>
      <point x="774" y="732" type="line"/>
      <point x="757" y="739" type="line"/>
      <point x="674" y="700" type="line"/>
      <point x="235" y="700" type="line"/>
      <point x="173" y="730" type="line"/>
      <point x="155" y="728" type="line"/>
      <point x="86" y="495" type="line"/>
      <point x="103" y="489" type="line"/>
      <point x="236" y="658" type="line"/>
      <point x="660" y="658" type="line"/>
    </contour>
  </outline>
</glyph>
<glyph name="U" format="2">
  <advance width="674"/>
  <unicode hex="0055"/>
  <anchor x="335" y="-14" name="bottom"/>
  <anchor x="501" y="700" name="top"/>
  <outline>
    <contour>
      <point x="309" y="-14" type="curve" smooth="yes"/>
      <point x="433" y="-14"/>
      <point x="524" y="49"/>
      <point x="574" y="214" type="curve" smooth="yes"/>
      <point x="709" y="661" type="line"/>
      <point x="780" y="682" type="line"/>
      <point x="783" y="700" type="line"/>
      <point x="569" y="700" type="line"/>
      <point x="565" y="682" type="line"/>
      <point x="656" y="661" type="line"/>
      <point x="529" y="235" type="line" smooth="yes"/>
      <point x="486" y="89"/>
      <point x="413" y="37"/>
      <point x="333" y="37" type="curve" smooth="yes"/>
      <point x="232" y="37"/>
      <point x="173" y="117"/>
      <point x="218" y="264" type="curve" smooth="yes"/>
      <point x="338" y="662" type="line"/>
      <point x="429" y="682" type="line"/>
      <point x="433" y="700" type="line"/>
      <point x="136" y="700" type="line"/>
      <point x="132" y="686" type="line"/>
      <point x="201" y="665" type="line"/>
      <point x="83" y="275" type="line" smooth="yes"/>
      <point x="18" y="62"/>
      <point x="187" y="-14"/>
    </contour>
  </outline>
</glyph>
<glyph name="V" format="2">
  <advance width="707"/>
  <unicode hex="0056"/>
  <anchor x="568" y="0" name="bottom"/>
  <anchor x="747" y="700" name="top"/>
  <outline>
    <contour>
      <point x="158" y="0" type="line"/>
      <point x="282" y="0" type="line"/>
      <point x="800" y="667" type="line"/>
      <point x="858" y="682" type="line"/>
      <point x="860" y="700" type="line"/>
      <point x="582" y="700" type="line"/>
      <point x="579" y="682" type="line"/>
      <point x="670" y="666" type="line"/>
      <point x="284" y="49" type="line"/>
      <point x="294" y="37" type="line"/>
      <point x="303" y="665" type="line"/>
      <point x="413" y="682" type="line"/>
      <point x="416" y="700" type="line"/>
      <point x="111" y="700" type="line"/>
      <point x="109" y="682" type="line"/>
      <point x="167" y="666" type="line"/>
    </contour>
  </outline>
</glyph>
<glyph name="W" format="2">
  <advance width="989"/>
  <unicode hex="0057"/>
  <anchor x="569" y="0" name="bottom"/>
  <anchor x="628" y="700" name="top"/>
  <outline>
    <contour>
      <point x="486" y="0" type="line"/>
      <point x="608" y="0" type="line"/>
      <point x="1084" y="667" type="line"/>
      <point x="1145" y="682" type="line"/>
      <point x="1147" y="700" type="line"/>
      <point x="867" y="700" type="line"/>
      <point x="864" y="682" type="line"/>
      <point x="957" y="666" type="line"/>
      <point x="610" y="49" type="line"/>
      <point x="622" y="37" type="line"/>
      <point x="661" y="665" type="line"/>
      <point x="769" y="682" type="line"/>
      <point x="772" y="700" type="line"/>
      <point x="467" y="700" type="line"/>
      <point x="465" y="682" type="line"/>
      <point x="525" y="666" type="line"/>
    </contour>
    <contour>
      <point x="155" y="0" type="line"/>
      <point x="277" y="0" type="line"/>
      <point x="613" y="478" type="line"/>
      <point x="561" y="548" type="line"/>
      <point x="279" y="51" type="line"/>
      <point x="291" y="37" type="line"/>
      <point x="300" y="665" type="line"/>
      <point x="388" y="682" type="line"/>
      <point x="391" y="700" type="line"/>
      <point x="106" y="700" type="line"/>
      <point x="104" y="682" type="line"/>
      <point x="164" y="666" type="line"/>
    </contour>
  </outline>
</glyph>
<glyph name="X" format="2">
  <advance width="736"/>
  <unicode hex="0058"/>
  <anchor x="392" y="0" name="bottom"/>
  <outline>
    <contour>
      <point x="371" y="0" type="line"/>
      <point x="680" y="0" type="line"/>
      <point x="682" y="18" type="line"/>
      <point x="613" y="34" type="line"/>
      <point x="337" y="666" type="line"/>
      <point x="432" y="682" type="line"/>
      <point x="435" y="700" type="line"/>
      <point x="116" y="700" type="line"/>
      <point x="112" y="682" type="line"/>
      <point x="186" y="666" type="line"/>
      <point x="462" y="34" type="line"/>
      <point x="373" y="18" type="line"/>
    </contour>
    <contour>
      <point x="-74" y="0" type="line"/>
      <point x="215" y="0" type="line"/>
      <point x="218" y="18" type="line"/>
      <point x="150" y="32" type="line"/>
      <point x="396" y="358" type="line"/>
      <point x="387" y="372" type="line"/>
      <point x="7" y="33" type="line"/>
      <point x="-71" y="18" type="line"/>
    </contour>
    <contour>
      <point x="412" y="338" type="line"/>
      <point x="770" y="666" type="line"/>
      <point x="822" y="682" type="line"/>
      <point x="824" y="700" type="line"/>
      <point x="571" y="700" type="line"/>
      <point x="568" y="682" type="line"/>
      <point x="637" y="666" type="line"/>
      <point x="406" y="352" type="line"/>
    </contour>
  </outline>
</glyph>
<glyph name="Y" format="2">
  <advance width="661"/>
  <unicode hex="0059"/>
  <anchor x="307" y="0" name="bottom"/>
  <anchor x="486" y="700" name="top"/>
  <outline>
    <contour>
      <point x="109" y="0" type="line"/>
      <point x="422" y="0" type="line"/>
      <point x="423" y="18" type="line"/>
      <point x="336" y="38" type="line"/>
      <point x="425" y="338" type="line"/>
      <point x="376" y="270" type="line"/>
      <point x="747" y="665" type="line"/>
      <point x="807" y="682" type="line"/>
      <point x="809" y="700" type="line"/>
      <point x="559" y="700" type="line"/>
      <point x="556" y="682" type="line"/>
      <point x="622" y="665" type="line"/>
      <point x="401" y="337" type="line"/>
      <point x="413" y="337" type="line"/>
      <point x="314" y="665" type="line"/>
      <point x="408" y="682" type="line"/>
      <point x="411" y="700" type="line"/>
      <point x="96" y="700" type="line"/>
      <point x="92" y="682" type="line"/>
      <point x="169" y="664" type="line"/>
      <point x="294" y="278" type="line"/>
      <point x="292" y="353" type="line"/>
      <point x="198" y="37" type="line"/>
      <point x="110" y="18" type="line"/>
    </contour>
  </outline>
</glyph>
<glyph name="Z" format="2">
  <advance width="663"/>
  <unicode hex="005A"/>
  <outline>
    <contour>
      <point x="-1" y="0" type="line"/>
      <point x="520" y="0" type="line"/>
      <point x="597" y="243" type="line"/>
      <point x="580" y="249" type="line"/>
      <point x="416" y="42" type="line"/>
      <point x="95" y="42" type="line"/>
      <point x="152" y="17" type="line"/>
      <point x="711" y="684" type="line"/>
      <point x="704" y="700" type="line"/>
      <point x="327" y="700" type="line"/>
      <point x="260" y="730" type="line"/>
      <point x="242" y="728" type="line"/>
      <point x="165" y="495" type="line"/>
      <point x="181" y="489" type="line"/>
      <point x="329" y="658" type="line"/>
      <point x="609" y="658" type="line"/>
      <point x="550" y="683" type="line"/>
      <point x="-7" y="16" type="line"/>
    </contour>
  </outline>
</glyph>
<glyph name="bracketleft" format="2">
  <advance width="297"/>
  <unicode hex="005B"/>
  <outline>
    <contour>
      <point x="-60" y="-164" type="line"/>
      <point x="62" y="-164" type="line"/>
      <point x="294" y="700" type="line"/>
      <point x="172" y="700" type="line"/>
    </contour>
    <contour>
      <point x="-19" y="-164" type="line"/>
      <point x="186" y="-164" type="line"/>
      <point x="200" y="-111" type="line"/>
      <point x="-5" y="-111" type="line"/>
    </contour>
    <contour>
      <point x="199" y="647" type="line"/>
      <point x="404" y="647" type="line"/>
      <point x="418" y="700" type="line"/>
      <point x="213" y="700" type="line"/>
    </contour>
  </outline>
</glyph>
<glyph name="backslash" format="2">
  <advance width="465"/>
  <unicode hex="005C"/>
  <outline>
    <contour>
      <point x="388" y="-40" type="line"/>
      <point x="218" y="700" type="line"/>
      <point x="121" y="700" type="line"/>
      <point x="291" y="-40" type="line"/>
    </contour>
  </outline>
</glyph>
<glyph name="a" format="2">
  <advance width="551"/>
  <unicode hex="0061"/>
  <note>
a
</note>
  <guideline x="502" y="509"/>
  <anchor x="179" y="0" name="bottom"/>
  <anchor x="339" y="480" name="top"/>
  <outline>
    <contour>
      <point x="375" y="-14" type="curve"/>
      <point x="411" y="23"/>
      <point x="459" y="77"/>
      <point x="518" y="125" type="curve"/>
      <point x="511" y="142" type="line"/>
      <point x="472" y="123"/>
      <point x="443" y="106"/>
      <point x="421" y="88" type="curve"/>
      <point x="428" y="122"/>
      <point x="432" y="148"/>
      <point x="454" y="215" type="curve" smooth="yes"/>
      <point x="547" y="500" type="line"/>
      <point x="533" y="509" type="line"/>
      <point x="406" y="454" type="line"/>
      <point x="308" y="149" type="line" smooth="yes"/>
      <point x="289" y="91"/>
      <point x="275" y="49"/>
      <point x="277" y="36" type="curve" smooth="yes"/>
      <point x="279" y="23"/>
      <point x="339" y="-14"/>
    </contour>
    <component base="panse_adq" xOffset="-13"/>
  </outline>
</glyph>
<glyph name="b" format="2">
  <advance width="507"/>
  <unicode hex="0062"/>
  <note>
b
</note>
  <guideline x="437" y="499"/>
  <outline>
    <contour>
      <point x="223" y="-14" type="curve" smooth="yes"/>
      <point x="380" y="-14"/>
      <point x="508" y="261"/>
      <point x="508" y="410" type="curve" smooth="yes"/>
      <point x="508" y="459"/>
      <point x="482" y="509"/>
      <point x="440" y="509" type="curve" smooth="yes"/>
      <point x="377" y="509"/>
      <point x="243" y="378"/>
      <point x="90" y="120" type="curve"/>
      <point x="129" y="85" type="line"/>
      <point x="185" y="254"/>
      <point x="342" y="412"/>
      <point x="368" y="429" type="curve"/>
      <point x="371" y="410"/>
      <point x="371" y="379"/>
      <point x="371" y="358" type="curve" smooth="yes"/>
      <point x="371" y="232"/>
      <point x="314" y="71"/>
      <point x="270" y="33" type="curve"/>
      <point x="233" y="39"/>
      <point x="144" y="116"/>
      <point x="116" y="146" type="curve"/>
      <point x="6" y="60" type="line"/>
      <point x="64" y="16"/>
      <point x="161" y="-14"/>
    </contour>
    <contour>
      <point x="6" y="60" type="line"/>
      <point x="52" y="63" type="line"/>
      <point x="164" y="168" type="line"/>
      <point x="288" y="609" type="line"/>
      <point x="171" y="626" type="line"/>
    </contour>
    <component base="empattement_montante" xScale="0.918" yScale="1.02" xOffset="-253" yOffset="-21" identifier="558F185D"/>
  </outline>
</glyph>
<glyph name="c" format="2">
  <advance width="379"/>
  <unicode hex="0063"/>
  <note>
c
</note>
  <guideline x="478" y="509"/>
  <anchor x="233" y="0" name="bottom"/>
  <outline>
    <contour>
      <point x="143" y="-14" type="curve" smooth="yes"/>
      <point x="214" y="-14"/>
      <point x="289" y="51"/>
      <point x="336" y="142" type="curve"/>
      <point x="321" y="153" type="line"/>
      <point x="269" y="100"/>
      <point x="209" y="57"/>
      <point x="175" y="46" type="curve"/>
      <point x="151" y="71"/>
      <point x="147" y="110"/>
      <point x="147" y="155" type="curve" smooth="yes"/>
      <point x="147" y="251"/>
      <point x="191" y="379"/>
      <point x="255" y="437" type="curve"/>
      <point x="302" y="418"/>
      <point x="339" y="388"/>
      <point x="364" y="367" type="curve"/>
      <point x="427" y="481" type="line"/>
      <point x="399" y="498"/>
      <point x="348" y="509"/>
      <point x="315" y="509" type="curve" smooth="yes"/>
      <point x="211" y="509"/>
      <point x="1" y="252"/>
      <point x="1" y="117" type="curve" smooth="yes"/>
      <point x="1" y="49"/>
      <point x="60" y="-14"/>
    </contour>
  </outline>
</glyph>
<glyph name="e" format="2">
  <advance width="400"/>
  <unicode hex="0065"/>
  <note>
e
</note>
  <guideline x="462" y="509"/>
  <anchor x="174" y="0" name="bottom"/>
  <anchor x="287" y="480" name="top"/>
  <outline>
    <contour>
      <point x="130" y="-14" type="curve" smooth="yes"/>
      <point x="202" y="-14"/>
      <point x="286" y="52"/>
      <point x="339" y="141" type="curve"/>
      <point x="324" y="154" type="line"/>
      <point x="267" y="101"/>
      <point x="204" y="58"/>
      <point x="168" y="48" type="curve"/>
      <point x="153" y="72"/>
      <point x="140" y="110"/>
      <point x="140" y="155" type="curve" smooth="yes"/>
      <point x="140" y="256"/>
      <point x="185" y="395"/>
      <point x="283" y="469" type="curve"/>
      <point x="291" y="452"/>
      <point x="298" y="433"/>
      <point x="298" y="410" type="curve" smooth="yes"/>
      <point x="298" y="361"/>
      <point x="220" y="256"/>
      <point x="125" y="231" type="curve"/>
      <point x="123" y="208" type="line"/>
      <point x="267" y="241"/>
      <point x="420" y="310"/>
      <point x="420" y="408" type="curve" smooth="yes"/>
      <point x="420" y="460"/>
      <point x="353" y="509"/>
      <point x="318" y="509" type="curve" smooth="yes"/>
      <point x="194" y="509"/>
      <point x="3" y="271"/>
      <point x="3" y="117" type="curve" smooth="yes"/>
      <point x="3" y="58"/>
      <point x="56" y="-14"/>
    </contour>
  </outline>
</glyph>
<glyph name="f" format="2">
  <advance width="299"/>
  <unicode hex="0066"/>
  <note>
f
</note>
  <guideline x="443" y="499"/>
  <anchor x="55" y="5" name="bottom"/>
  <outline>
    <contour>
      <point x="-134" y="-262" type="curve" smooth="yes"/>
      <point x="-66" y="-262"/>
      <point x="97" y="-107"/>
      <point x="123" y="-22" type="curve" smooth="yes"/>
      <point x="174" y="145"/>
      <point x="241" y="402"/>
      <point x="278" y="549" type="curve" smooth="yes"/>
      <point x="290" y="598"/>
      <point x="306" y="651"/>
      <point x="316" y="674" type="curve"/>
      <point x="357" y="668"/>
      <point x="408" y="648"/>
      <point x="462" y="618" type="curve"/>
      <point x="512" y="726" type="line"/>
      <point x="480" y="741"/>
      <point x="431" y="744"/>
      <point x="405" y="744" type="curve" smooth="yes"/>
      <point x="348" y="744"/>
      <point x="172" y="649"/>
      <point x="148" y="545" type="curve"/>
      <point x="118" y="392"/>
      <point x="51" y="155"/>
      <point x="5" y="-7" type="curve" smooth="yes"/>
      <point x="-19" y="-90"/>
      <point x="-40" y="-154"/>
      <point x="-59" y="-182" type="curve"/>
      <point x="-87" y="-180"/>
      <point x="-129" y="-154"/>
      <point x="-180" y="-117" type="curve"/>
      <point x="-245" y="-239" type="line"/>
      <point x="-194" y="-257"/>
      <point x="-159" y="-262"/>
    </contour>
    <component base="barreft" xOffset="-40" yOffset="28"/>
  </outline>
</glyph>
<glyph name="g" format="2">
  <advance width="453"/>
  <unicode hex="0067"/>
  <note>
g
</note>
  <guideline x="462" y="509"/>
  <outline>
    <contour>
      <point x="177" y="131" type="curve" smooth="yes"/>
      <point x="281" y="131"/>
      <point x="435" y="286"/>
      <point x="435" y="402" type="curve" smooth="yes"/>
      <point x="435" y="467"/>
      <point x="369" y="509"/>
      <point x="295" y="509" type="curve" smooth="yes"/>
      <point x="198" y="509"/>
      <point x="30" y="352"/>
      <point x="30" y="237" type="curve" smooth="yes"/>
      <point x="30" y="180"/>
      <point x="101" y="131"/>
    </contour>
    <contour>
      <point x="212" y="172" type="curve"/>
      <point x="188" y="188"/>
      <point x="160" y="222"/>
      <point x="160" y="272" type="curve" smooth="yes"/>
      <point x="160" y="341"/>
      <point x="207" y="432"/>
      <point x="249" y="458" type="curve"/>
      <point x="285" y="441"/>
      <point x="309" y="406"/>
      <point x="309" y="361" type="curve" smooth="yes"/>
      <point x="309" y="300"/>
      <point x="259" y="197"/>
    </contour>
    <component base="barreft" xOffset="121" yOffset="38"/>
    <contour>
      <point x="207" y="141" type="curve"/>
      <point x="169" y="147" type="line"/>
      <point x="134" y="124"/>
      <point x="65" y="78"/>
      <point x="42" y="53" type="curve"/>
      <point x="42" y="25"/>
      <point x="89" y="-22"/>
      <point x="118" y="-33" type="curve" smooth="yes"/>
      <point x="233" y="-76" type="line" smooth="yes"/>
      <point x="264" y="-88"/>
      <point x="299" y="-102"/>
      <point x="315" y="-118" type="curve"/>
      <point x="287" y="-155"/>
      <point x="204" y="-170"/>
      <point x="160" y="-170" type="curve" smooth="yes"/>
      <point x="93" y="-170"/>
      <point x="17" y="-142"/>
      <point x="7" y="-93" type="curve"/>
      <point x="30" y="-69"/>
      <point x="51" y="-54"/>
      <point x="131" y="-5" type="curve"/>
      <point x="124" y="21" type="line"/>
      <point x="-22" y="-55"/>
      <point x="-85" y="-95"/>
      <point x="-121" y="-130" type="curve"/>
      <point x="-119" y="-221"/>
      <point x="-10" y="-264"/>
      <point x="58" y="-264" type="curve" smooth="yes"/>
      <point x="157" y="-264"/>
      <point x="394" y="-157"/>
      <point x="394" y="-56" type="curve" smooth="yes"/>
      <point x="394" y="-29"/>
      <point x="380" y="4"/>
      <point x="339" y="21" type="curve" smooth="yes"/>
      <point x="205" y="75" type="line" smooth="yes"/>
      <point x="183" y="84"/>
      <point x="169" y="91"/>
      <point x="165" y="97" type="curve"/>
      <point x="174" y="109"/>
      <point x="191" y="126"/>
    </contour>
  </outline>
</glyph>
<glyph name="j" format="2">
  <advance width="276"/>
  <unicode hex="006A"/>
  <note>
j
</note>
  <guideline x="471" y="509"/>
  <anchor x="208" y="485" name="top"/>
  <outline>
    <contour>
      <point x="-168" y="-264" type="line"/>
      <point x="-62" y="-191"/>
      <point x="100" y="-47"/>
      <point x="153" y="68" type="curve"/>
      <point x="177" y="130"/>
      <point x="268" y="445"/>
      <point x="272" y="476" type="curve"/>
      <point x="170" y="509" type="line"/>
      <point x="132" y="475"/>
      <point x="74" y="421"/>
      <point x="29" y="384" type="curve"/>
      <point x="41" y="364" type="line"/>
      <point x="76" y="386"/>
      <point x="109" y="408"/>
      <point x="136" y="425" type="curve"/>
      <point x="129" y="395"/>
      <point x="55" y="138"/>
      <point x="30" y="65" type="curve"/>
      <point x="-21" y="-59"/>
      <point x="-93" y="-165"/>
      <point x="-178" y="-249" type="curve"/>
    </contour>
    <component base="pointij" xScale="1.02" yScale="1.02" xOffset="60" yOffset="-20" identifier="9F5BD81C"/>
  </outline>
</glyph>
<glyph name="k" format="2">
  <advance width="537"/>
  <unicode hex="006B"/>
  <note>
k
</note>
  <guideline x="447" y="509"/>
  <anchor x="209" y="1" name="bottom"/>
  <outline>
    <contour>
      <point x="346" y="-14" type="curve"/>
      <point x="380" y="22"/>
      <point x="434" y="71"/>
      <point x="506" y="131" type="curve"/>
      <point x="493" y="149" type="line"/>
      <point x="450" y="121"/>
      <point x="423" y="107"/>
      <point x="405" y="95" type="curve"/>
      <point x="379" y="110"/>
      <point x="342" y="169"/>
      <point x="322" y="233" type="curve"/>
      <point x="425" y="263"/>
      <point x="542" y="331"/>
      <point x="542" y="389" type="curve" smooth="yes"/>
      <point x="542" y="439"/>
      <point x="451" y="509"/>
      <point x="409" y="509" type="curve" smooth="yes"/>
      <point x="363" y="509"/>
      <point x="273" y="382"/>
      <point x="174" y="236" type="curve"/>
      <point x="147" y="160" type="line"/>
      <point x="254" y="302"/>
      <point x="328" y="392"/>
      <point x="359" y="421" type="curve"/>
      <point x="372" y="416"/>
      <point x="404" y="397"/>
      <point x="404" y="364" type="curve" smooth="yes"/>
      <point x="404" y="318"/>
      <point x="311" y="253"/>
      <point x="216" y="216" type="curve"/>
      <point x="237" y="101"/>
      <point x="270" y="44"/>
    </contour>
    <component base="fut-long" xOffset="-10"/>
    <component base="empattement_montante" xScale="0.918" yScale="1.02" xOffset="-243" yOffset="-21" identifier="6EDEF508"/>
  </outline>
</glyph>
<glyph name="l" format="2">
  <advance width="306"/>
  <unicode hex="006C"/>
  <note>
l
</note>
  <anchor x="56" y="0" name="bottom"/>
  <outline>
    <contour>
      <point x="132" y="-14" type="curve"/>
      <point x="169" y="26"/>
      <point x="198" y="56"/>
      <point x="271" y="116" type="curve"/>
      <point x="264" y="131" type="line"/>
      <point x="212" y="109"/>
      <point x="175" y="85"/>
      <point x="154" y="66" type="curve"/>
      <point x="157" y="106"/>
      <point x="167" y="147"/>
      <point x="186" y="215" type="curve" smooth="yes"/>
      <point x="291" y="585" type="line"/>
      <point x="170" y="589" type="line"/>
      <point x="43" y="149" type="line" smooth="yes"/>
      <point x="26" y="91"/>
      <point x="23" y="49"/>
      <point x="26" y="36" type="curve" smooth="yes"/>
      <point x="30" y="18"/>
      <point x="94" y="-9"/>
    </contour>
    <component base="empattement_montante" xScale="0.918" yScale="1.02" xOffset="-243" yOffset="-21"/>
  </outline>
</glyph>
<glyph name="m" format="2">
  <advance width="848"/>
  <unicode hex="006D"/>
  <note>
m
</note>
  <guideline x="452" y="509"/>
  <anchor x="219" y="1" name="bottom"/>
  <outline>
    <contour>
      <point x="319" y="-14" type="line"/>
      <point x="419" y="15" type="line"/>
      <point x="458" y="149" type="line" smooth="yes"/>
      <point x="488" y="253"/>
      <point x="561" y="420"/>
      <point x="561" y="468" type="curve" smooth="yes"/>
      <point x="561" y="491"/>
      <point x="539" y="509"/>
      <point x="512" y="509" type="curve" smooth="yes"/>
      <point x="421" y="509"/>
      <point x="249" y="308"/>
      <point x="140" y="157" type="curve"/>
      <point x="149" y="127" type="line"/>
      <point x="189" y="185"/>
      <point x="349" y="381"/>
      <point x="424" y="419" type="curve"/>
      <point x="415" y="380"/>
      <point x="364" y="248"/>
      <point x="329" y="148" type="curve" smooth="yes"/>
      <point x="282" y="14" type="line"/>
    </contour>
    <component base="fut" xOffset="13"/>
    <component base="epaule-n" xOffset="287"/>
  </outline>
</glyph>
<glyph name="o" format="2">
  <advance width="478"/>
  <unicode hex="006F"/>
  <note>
o
</note>
  <guideline x="519" y="509"/>
  <anchor x="196" y="0" name="bottom"/>
  <anchor x="287" y="480" name="top"/>
  <outline>
    <contour>
      <point x="162" y="-15" type="curve" smooth="yes"/>
      <point x="267" y="-15"/>
      <point x="474" y="206"/>
      <point x="474" y="374" type="curve" smooth="yes"/>
      <point x="474" y="437"/>
      <point x="416" y="509"/>
      <point x="321" y="509" type="curve" smooth="yes"/>
      <point x="213" y="509"/>
      <point x="6" y="285"/>
      <point x="6" y="130" type="curve" smooth="yes"/>
      <point x="6" y="51"/>
      <point x="77" y="-15"/>
    </contour>
    <contour>
      <point x="197" y="30" type="curve"/>
      <point x="170" y="54"/>
      <point x="144" y="97"/>
      <point x="144" y="173" type="curve" smooth="yes"/>
      <point x="144" y="259"/>
      <point x="222" y="424"/>
      <point x="282" y="462" type="curve"/>
      <point x="311" y="441"/>
      <point x="336" y="402"/>
      <point x="336" y="339" type="curve" smooth="yes"/>
      <point x="336" y="228"/>
      <point x="254" y="65"/>
    </contour>
  </outline>
</glyph>
<glyph name="p" format="2">
  <advance width="524"/>
  <unicode hex="0070"/>
  <note>
p
</note>
  <guideline x="474" y="509"/>
  <outline>
    <contour>
      <point x="-149" y="-250" type="line"/>
      <point x="195" y="-250" type="line"/>
      <point x="199" y="-234" type="line"/>
      <point x="76" y="-209" type="line"/>
      <point x="140" y="3"/>
      <point x="239" y="357"/>
      <point x="298" y="557" type="curve"/>
      <point x="288" y="570" type="line"/>
      <point x="161" y="524" type="line"/>
      <point x="113" y="345"/>
      <point x="17" y="-7"/>
      <point x="-49" y="-207" type="curve"/>
      <point x="-149" y="-234" type="line"/>
    </contour>
    <contour>
      <point x="206" y="-14" type="curve" smooth="yes"/>
      <point x="347" y="-14"/>
      <point x="515" y="211"/>
      <point x="515" y="355" type="curve" smooth="yes"/>
      <point x="515" y="437"/>
      <point x="461" y="502"/>
      <point x="404" y="502" type="curve" smooth="yes"/>
      <point x="339" y="502"/>
      <point x="133" y="415"/>
      <point x="27" y="333" type="curve"/>
      <point x="39" y="312" type="line"/>
      <point x="123" y="362"/>
      <point x="306" y="438"/>
      <point x="355" y="442" type="curve"/>
      <point x="367" y="421"/>
      <point x="373" y="379"/>
      <point x="373" y="335" type="curve" smooth="yes"/>
      <point x="373" y="264"/>
      <point x="330" y="103"/>
      <point x="268" y="39" type="curve"/>
      <point x="223" y="45"/>
      <point x="177" y="83"/>
      <point x="147" y="108" type="curve"/>
      <point x="101" y="6" type="line"/>
      <point x="125" y="-2"/>
      <point x="173" y="-14"/>
    </contour>
  </outline>
</glyph>
<glyph name="q" format="2">
  <advance width="506"/>
  <unicode hex="0071"/>
  <note>
q
</note>
  <guideline x="478" y="509"/>
  <anchor x="322" y="484" name="top"/>
  <outline>
    <contour>
      <point x="66" y="-250" type="line"/>
      <point x="370" y="-250" type="line"/>
      <point x="376" y="-236" type="line"/>
      <point x="320" y="-209" type="line"/>
      <point x="382" y="-4"/>
      <point x="464" y="301"/>
      <point x="526" y="501" type="curve"/>
      <point x="514" y="509" type="line"/>
      <point x="388" y="456" type="line"/>
      <point x="331" y="267"/>
      <point x="260" y="-5"/>
      <point x="195" y="-203" type="curve"/>
      <point x="68" y="-232" type="line"/>
    </contour>
    <component base="panse_adq" xOffset="-28"/>
  </outline>
</glyph>
<glyph name="r" format="2">
  <advance width="429"/>
  <unicode hex="0072"/>
  <note>
r
</note>
  <guideline x="454" y="509"/>
  <anchor x="133" y="1" name="bottom"/>
  <outline>
    <contour>
      <point x="185" y="144" type="line"/>
      <point x="248" y="260"/>
      <point x="318" y="362"/>
      <point x="343" y="381" type="curve"/>
      <point x="365" y="371"/>
      <point x="403" y="344"/>
      <point x="425" y="325" type="curve"/>
      <point x="498" y="487" type="line"/>
      <point x="472" y="497"/>
      <point x="422" y="506"/>
      <point x="408" y="506" type="curve" smooth="yes"/>
      <point x="358" y="506"/>
      <point x="258" y="336"/>
      <point x="174" y="163" type="curve"/>
    </contour>
    <component base="fut" xOffset="13"/>
  </outline>
</glyph>
<glyph name="s" format="2">
  <advance width="326"/>
  <unicode hex="0073"/>
  <note>
s
</note>
  <guideline x="468" y="509"/>
  <anchor x="149" y="0" name="bottom"/>
  <outline>
    <contour>
      <point x="92" y="-9" type="curve" smooth="yes"/>
      <point x="169" y="-9"/>
      <point x="271" y="89"/>
      <point x="271" y="167" type="curve" smooth="yes"/>
      <point x="271" y="178"/>
      <point x="269" y="199"/>
      <point x="255" y="221" type="curve" smooth="yes"/>
      <point x="188" y="328" type="line" smooth="yes"/>
      <point x="178" y="344"/>
      <point x="168" y="362"/>
      <point x="168" y="385" type="curve" smooth="yes"/>
      <point x="168" y="403"/>
      <point x="174" y="428"/>
      <point x="196" y="453" type="curve"/>
      <point x="224" y="439"/>
      <point x="274" y="383"/>
      <point x="290" y="360" type="curve"/>
      <point x="355" y="497" type="line"/>
      <point x="326" y="506"/>
      <point x="279" y="513"/>
      <point x="251" y="513" type="curve" smooth="yes"/>
      <point x="184" y="513"/>
      <point x="67" y="389"/>
      <point x="67" y="313" type="curve" smooth="yes"/>
      <point x="67" y="294"/>
      <point x="71" y="277"/>
      <point x="83" y="258" type="curve" smooth="yes"/>
      <point x="145" y="158" type="line" smooth="yes"/>
      <point x="156" y="140"/>
      <point x="173" y="112"/>
      <point x="173" y="89" type="curve" smooth="yes"/>
      <point x="173" y="71"/>
      <point x="165" y="55"/>
      <point x="152" y="43" type="curve"/>
      <point x="116" y="63"/>
      <point x="72" y="106"/>
      <point x="36" y="145" type="curve"/>
      <point x="-41" y="21" type="line"/>
      <point x="7" y="-2"/>
      <point x="64" y="-9"/>
    </contour>
  </outline>
</glyph>
<glyph name="t" format="2">
  <advance width="334"/>
  <unicode hex="0074"/>
  <note>
t
</note>
  <guideline x="466" y="509"/>
  <anchor x="155" y="0" name="bottom"/>
  <outline>
    <component base="barreft" xOffset="-16" yOffset="30"/>
    <contour>
      <point x="221" y="326" type="curve" smooth="yes"/>
      <point x="256" y="456"/>
      <point x="299" y="581"/>
      <point x="324" y="636" type="curve"/>
      <point x="308" y="646" type="line"/>
      <point x="151" y="487" type="line"/>
      <point x="126" y="412"/>
      <point x="92" y="308"/>
      <point x="70" y="232" type="curve" smooth="yes"/>
      <point x="58" y="191"/>
      <point x="14" y="39"/>
      <point x="17" y="27" type="curve" smooth="yes"/>
      <point x="21" y="10"/>
      <point x="94" y="-14"/>
      <point x="123" y="-14" type="curve"/>
      <point x="161" y="21"/>
      <point x="208" y="64"/>
      <point x="265" y="112" type="curve"/>
      <point x="256" y="127" type="line"/>
      <point x="211" y="104"/>
      <point x="184" y="89"/>
      <point x="156" y="67" type="curve"/>
      <point x="168" y="119"/>
      <point x="197" y="237"/>
    </contour>
  </outline>
</glyph>
<glyph name="u" format="2">
  <advance width="595"/>
  <unicode hex="0075"/>
  <note>
u
</note>
  <guideline x="525" y="509"/>
  <anchor x="196" y="0" name="bottom"/>
  <anchor x="352" y="480" name="top"/>
  <outline>
    <contour>
      <point x="76" y="-14" type="curve" smooth="yes"/>
      <point x="144" y="-14"/>
      <point x="290" y="132"/>
      <point x="419" y="326" type="curve"/>
      <point x="410" y="358" type="line"/>
      <point x="369" y="298"/>
      <point x="231" y="117"/>
      <point x="165" y="78" type="curve"/>
      <point x="200" y="176"/>
      <point x="265" y="343"/>
      <point x="286" y="466" type="curve"/>
      <point x="193" y="509" type="line"/>
      <point x="153" y="475"/>
      <point x="126" y="446"/>
      <point x="52" y="384" type="curve"/>
      <point x="64" y="364" type="line"/>
      <point x="103" y="392"/>
      <point x="127" y="406"/>
      <point x="156" y="427" type="curve"/>
      <point x="139" y="319"/>
      <point x="27" y="95"/>
      <point x="27" y="29" type="curve" smooth="yes"/>
      <point x="27" y="5"/>
      <point x="47" y="-14"/>
    </contour>
    <contour>
      <point x="511" y="326" type="curve" smooth="yes"/>
      <point x="540" y="426"/>
      <point x="550" y="461"/>
      <point x="554" y="498" type="curve"/>
      <point x="544" y="509" type="line"/>
      <point x="433" y="479" type="line"/>
      <point x="420" y="427" type="line" smooth="yes"/>
      <point x="413" y="399"/>
      <point x="379" y="284"/>
      <point x="363" y="232" type="curve" smooth="yes"/>
      <point x="351" y="192"/>
      <point x="293" y="40"/>
      <point x="296" y="28" type="curve" smooth="yes"/>
      <point x="300" y="11"/>
      <point x="372" y="-14"/>
      <point x="402" y="-14" type="curve"/>
      <point x="437" y="19"/>
      <point x="487" y="64"/>
      <point x="544" y="112" type="curve"/>
      <point x="535" y="127" type="line"/>
      <point x="491" y="104"/>
      <point x="463" y="89"/>
      <point x="435" y="67" type="curve"/>
      <point x="447" y="119"/>
      <point x="485" y="239"/>
    </contour>
  </outline>
</glyph>
<glyph name="v" format="2">
  <advance width="496"/>
  <unicode hex="0076"/>
  <note>
v
</note>
  <guideline x="494" y="509"/>
  <anchor x="222" y="0" name="bottom"/>
  <outline>
    <contour>
      <point x="158" y="-14" type="line"/>
      <point x="338" y="136"/>
      <point x="507" y="286"/>
      <point x="507" y="397" type="curve" smooth="yes"/>
      <point x="507" y="445"/>
      <point x="487" y="473"/>
      <point x="459" y="509" type="curve"/>
      <point x="346" y="447" type="line"/>
      <point x="367" y="418"/>
      <point x="383" y="392"/>
      <point x="383" y="356" type="curve" smooth="yes"/>
      <point x="383" y="296"/>
      <point x="310" y="150"/>
      <point x="189" y="56" type="curve"/>
      <point x="224" y="161"/>
      <point x="256" y="362"/>
      <point x="256" y="440" type="curve" smooth="yes"/>
      <point x="256" y="453"/>
      <point x="256" y="467"/>
      <point x="255" y="485" type="curve"/>
      <point x="160" y="509" type="line"/>
      <point x="121" y="475"/>
      <point x="94" y="447"/>
      <point x="22" y="386" type="curve"/>
      <point x="33" y="367" type="line"/>
      <point x="72" y="393"/>
      <point x="99" y="409"/>
      <point x="128" y="429" type="curve"/>
      <point x="129" y="313"/>
      <point x="88" y="112"/>
      <point x="59" y="17" type="curve"/>
    </contour>
  </outline>
</glyph>
<glyph name="w" format="2">
  <advance width="739"/>
  <unicode hex="0077"/>
  <note>
w
</note>
  <guideline x="492" y="509"/>
  <anchor x="236" y="0" name="bottom"/>
  <anchor x="402" y="470" name="top"/>
  <outline>
    <contour>
      <point x="409" y="-14" type="line"/>
      <point x="589" y="136"/>
      <point x="750" y="289"/>
      <point x="750" y="396" type="curve" smooth="yes"/>
      <point x="750" y="446"/>
      <point x="734" y="474"/>
      <point x="707" y="509" type="curve"/>
      <point x="591" y="447" type="line"/>
      <point x="612" y="418"/>
      <point x="628" y="391"/>
      <point x="628" y="360" type="curve" smooth="yes"/>
      <point x="628" y="300"/>
      <point x="561" y="150"/>
      <point x="440" y="56" type="curve"/>
      <point x="481" y="183"/>
      <point x="510" y="375"/>
      <point x="503" y="490" type="curve"/>
      <point x="429" y="509" type="line"/>
      <point x="366" y="473" type="line"/>
      <point x="405" y="310"/>
      <point x="340" y="112"/>
      <point x="311" y="17" type="curve"/>
    </contour>
    <contour>
      <point x="156" y="-14" type="line"/>
      <point x="273" y="81"/>
      <point x="360" y="176"/>
      <point x="417" y="257" type="curve"/>
      <point x="385" y="288" type="line"/>
      <point x="351" y="229"/>
      <point x="277" y="125"/>
      <point x="187" y="56" type="curve"/>
      <point x="222" y="161"/>
      <point x="256" y="362"/>
      <point x="256" y="440" type="curve" smooth="yes"/>
      <point x="256" y="453"/>
      <point x="256" y="467"/>
      <point x="255" y="485" type="curve"/>
      <point x="160" y="509" type="line"/>
      <point x="121" y="475"/>
      <point x="94" y="447"/>
      <point x="22" y="386" type="curve"/>
      <point x="33" y="367" type="line"/>
      <point x="72" y="393"/>
      <point x="99" y="409"/>
      <point x="128" y="429" type="curve"/>
      <point x="129" y="316"/>
      <point x="86" y="112"/>
      <point x="57" y="17" type="curve"/>
    </contour>
  </outline>
</glyph>
<glyph name="x" format="2">
  <advance width="489"/>
  <unicode hex="0078"/>
  <note>
x
</note>
  <guideline x="469" y="509"/>
  <anchor x="215" y="0" name="bottom"/>
  <outline>
    <contour>
      <point x="292" y="-14" type="line"/>
      <point x="318" y="7"/>
      <point x="391" y="72"/>
      <point x="442" y="111" type="curve"/>
      <point x="432" y="131" type="line"/>
      <point x="408" y="116"/>
      <point x="343" y="81"/>
      <point x="324" y="68" type="curve"/>
      <point x="290" y="178"/>
      <point x="275" y="359"/>
      <point x="282" y="485" type="curve"/>
      <point x="192" y="509" type="line"/>
      <point x="158" y="481"/>
      <point x="81" y="414"/>
      <point x="42" y="384" type="curve"/>
      <point x="52" y="364" type="line"/>
      <point x="78" y="381"/>
      <point x="140" y="416"/>
      <point x="157" y="428" type="curve"/>
      <point x="158" y="300"/>
      <point x="190" y="98"/>
      <point x="208" y="10" type="curve"/>
    </contour>
    <contour>
      <point x="27" y="-14" type="curve" smooth="yes"/>
      <point x="68" y="-14"/>
      <point x="168" y="126"/>
      <point x="241" y="251" type="curve"/>
      <point x="234" y="276" type="line"/>
      <point x="188" y="210"/>
      <point x="115" y="114"/>
      <point x="95" y="96" type="curve"/>
      <point x="73" y="102"/>
      <point x="43" y="122"/>
      <point x="26" y="134" type="curve"/>
      <point x="-57" y="8" type="line"/>
      <point x="-33" y="-6"/>
      <point x="3" y="-14"/>
    </contour>
    <contour>
      <point x="249" y="227" type="line"/>
      <point x="291" y="285"/>
      <point x="367" y="381"/>
      <point x="389" y="400" type="curve"/>
      <point x="412" y="392"/>
      <point x="436" y="371"/>
      <point x="453" y="357" type="curve"/>
      <point x="528" y="496" type="line"/>
      <point x="512" y="504"/>
      <point x="476" y="509"/>
      <point x="453" y="509" type="curve" smooth="yes"/>
      <point x="413" y="509"/>
      <point x="316" y="377"/>
      <point x="242" y="250" type="curve"/>
    </contour>
  </outline>
</glyph>
<glyph name="y" format="2">
  <advance width="494"/>
  <unicode hex="0079"/>
  <note>
y
</note>
  <guideline x="461" y="509"/>
  <anchor x="233" y="5" name="bottom"/>
  <anchor x="264" y="470" name="top"/>
  <outline>
    <contour>
      <point x="-150" y="-264" type="curve" smooth="yes"/>
      <point x="-50" y="-264"/>
      <point x="124" y="-93"/>
      <point x="194" y="-24" type="curve" smooth="yes"/>
      <point x="363" y="142"/>
      <point x="504" y="283"/>
      <point x="504" y="400" type="curve" smooth="yes"/>
      <point x="504" y="444"/>
      <point x="488" y="474"/>
      <point x="461" y="509" type="curve"/>
      <point x="343" y="447" type="line"/>
      <point x="364" y="419"/>
      <point x="380" y="396"/>
      <point x="380" y="358" type="curve" smooth="yes"/>
      <point x="380" y="283"/>
      <point x="279" y="104"/>
      <point x="152" y="-19" type="curve" smooth="yes"/>
      <point x="86" y="-82"/>
      <point x="4" y="-139"/>
      <point x="-113" y="-139" type="curve" smooth="yes"/>
      <point x="-145" y="-139"/>
      <point x="-179" y="-128"/>
      <point x="-206" y="-108" type="curve"/>
      <point x="-254" y="-234" type="line"/>
      <point x="-208" y="-263"/>
      <point x="-169" y="-264"/>
    </contour>
    <contour>
      <point x="59" y="-104" type="curve"/>
      <point x="173" y="-21" type="line"/>
      <point x="236" y="125"/>
      <point x="251" y="370"/>
      <point x="240" y="485" type="curve"/>
      <point x="146" y="509" type="line"/>
      <point x="107" y="475"/>
      <point x="83" y="447"/>
      <point x="11" y="386" type="curve"/>
      <point x="22" y="367" type="line"/>
      <point x="61" y="393"/>
      <point x="88" y="411"/>
      <point x="114" y="429" type="curve"/>
      <point x="119" y="321"/>
      <point x="119" y="107"/>
    </contour>
  </outline>
</glyph>
<glyph name="z" format="2">
  <advance width="403"/>
  <unicode hex="007A"/>
  <guideline x="460" y="509"/>
  <outline>
    <contour>
      <point x="-46" y="-14" type="line"/>
      <point x="-2" y="14" type="line"/>
      <point x="279" y="-4" type="line"/>
      <point x="367" y="180" type="line"/>
      <point x="353" y="190" type="line"/>
      <point x="329" y="165"/>
      <point x="292" y="130"/>
      <point x="248" y="130" type="curve" smooth="yes"/>
      <point x="84" y="130" type="line"/>
      <point x="44" y="60" type="line"/>
      <point x="459" y="493" type="line"/>
      <point x="449" y="509" type="line"/>
      <point x="405" y="482" type="line"/>
      <point x="128" y="499" type="line"/>
      <point x="40" y="315" type="line"/>
      <point x="55" y="304" type="line"/>
      <point x="88" y="341"/>
      <point x="118" y="365"/>
      <point x="166" y="365" type="curve" smooth="yes"/>
      <point x="323" y="365" type="line"/>
      <point x="356" y="434" type="line"/>
      <point x="-56" y="2" type="line"/>
    </contour>
  </outline>
</glyph>
<glyph name="braceleft" format="2">
  <advance width="335"/>
  <unicode hex="007B"/>
  <outline>
    <contour>
      <point x="50" y="305" type="curve"/>
      <point x="47" y="282" type="line"/>
      <point x="96" y="271"/>
      <point x="98" y="234"/>
      <point x="84" y="174" type="curve" smooth="yes"/>
      <point x="46" y="13" type="line" smooth="yes"/>
      <point x="27" y="-68"/>
      <point x="108" y="-136"/>
      <point x="183" y="-173" type="curve"/>
      <point x="193" y="-157" type="line"/>
      <point x="146" y="-123"/>
      <point x="152" y="-57"/>
      <point x="168" y="9" type="curve" smooth="yes"/>
      <point x="207" y="170" type="line" smooth="yes"/>
      <point x="219" y="220"/>
      <point x="157" y="273"/>
      <point x="116" y="288" type="curve"/>
      <point x="165" y="303"/>
      <point x="250" y="336"/>
      <point x="267" y="393" type="curve" smooth="yes"/>
      <point x="317" y="562" type="line" smooth="yes"/>
      <point x="340" y="639"/>
      <point x="358" y="691"/>
      <point x="428" y="705" type="curve"/>
      <point x="425" y="729" type="line"/>
      <point x="361" y="724"/>
      <point x="225" y="678"/>
      <point x="186" y="543" type="curve" smooth="yes"/>
      <point x="147" y="408" type="line" smooth="yes"/>
      <point x="130" y="349"/>
      <point x="104" y="305"/>
    </contour>
  </outline>
</glyph>
<glyph name="cent" format="2">
  <advance width="389"/>
  <unicode hex="00A2"/>
  <outline>
    <component base="c" xOffset="40" yOffset="112"/>
    <contour>
      <point x="325" y="700" type="line"/>
      <point x="289" y="568" type="line"/>
      <point x="349" y="568" type="line"/>
      <point x="385" y="700" type="line"/>
    </contour>
    <contour>
      <point x="172" y="131" type="line"/>
      <point x="137" y="-1" type="line"/>
      <point x="197" y="-1" type="line"/>
      <point x="232" y="131" type="line"/>
    </contour>
  </outline>
</glyph>
<glyph name="sterling" format="2">
  <advance width="577"/>
  <unicode hex="00A3"/>
  <outline>
    <contour>
      <point x="661" y="635" type="line"/>
      <point x="618" y="680"/>
      <point x="566" y="714"/>
      <point x="516" y="714" type="curve" smooth="yes"/>
      <point x="416" y="714"/>
      <point x="241" y="544"/>
      <point x="198" y="424" type="curve" smooth="yes"/>
      <point x="160" y="317" type="line" smooth="yes"/>
      <point x="122" y="210"/>
      <point x="94" y="138"/>
      <point x="59" y="95" type="curve"/>
      <point x="-66" y="76" type="line"/>
      <point x="-31" y="-14" type="line"/>
      <point x="75" y="66" type="line"/>
      <point x="158" y="38"/>
      <point x="304" y="-14"/>
      <point x="342" y="-14" type="curve" smooth="yes"/>
      <point x="431" y="-14"/>
      <point x="538" y="107"/>
      <point x="538" y="181" type="curve" smooth="yes"/>
      <point x="538" y="209"/>
      <point x="523" y="228"/>
      <point x="503" y="244" type="curve"/>
      <point x="412" y="154" type="line"/>
      <point x="435" y="134"/>
      <point x="449" y="106"/>
      <point x="454" y="66" type="curve"/>
      <point x="374" y="66"/>
      <point x="264" y="139"/>
      <point x="223" y="139" type="curve" smooth="yes"/>
      <point x="188" y="139"/>
      <point x="145" y="119"/>
      <point x="125" y="107" type="curve"/>
      <point x="176" y="148"/>
      <point x="280" y="267"/>
      <point x="319" y="382" type="curve" smooth="yes"/>
      <point x="354" y="485" type="line" smooth="yes"/>
      <point x="389" y="587"/>
      <point x="417" y="648"/>
      <point x="437" y="671" type="curve"/>
      <point x="479" y="651"/>
      <point x="523" y="571"/>
      <point x="545" y="514" type="curve"/>
    </contour>
    <contour>
      <point x="112" y="390" type="line"/>
      <point x="89" y="330" type="line"/>
      <point x="465" y="330" type="line"/>
      <point x="488" y="390" type="line"/>
    </contour>
  </outline>
</glyph>
<glyph name="currency" format="2">
  <advance width="541"/>
  <unicode hex="00A4"/>
  <outline>
    <component base="degree" xScale="1.1" yScale="1.1" xOffset="56" yOffset="-290"/>
    <contour>
      <point x="89" y="504" type="line"/>
      <point x="211" y="382" type="line"/>
      <point x="273" y="444" type="line"/>
      <point x="151" y="567" type="line"/>
    </contour>
    <contour>
      <point x="326" y="267" type="line"/>
      <point x="448" y="145" type="line"/>
      <point x="510" y="207" type="line"/>
      <point x="388" y="330" type="line"/>
    </contour>
    <contour>
      <point x="447" y="567" type="line"/>
      <point x="325" y="445" type="line"/>
      <point x="387" y="383" type="line"/>
      <point x="509" y="505" type="line"/>
    </contour>
    <contour>
      <point x="210" y="330" type="line"/>
      <point x="87" y="207" type="line"/>
      <point x="150" y="145" type="line"/>
      <point x="273" y="268" type="line"/>
    </contour>
  </outline>
</glyph>
<glyph name="section" format="2">
  <advance width="473"/>
  <unicode hex="00A7"/>
  <outline>
    <contour>
      <point x="108" y="-220" type="curve" smooth="yes"/>
      <point x="198" y="-220"/>
      <point x="350" y="-110"/>
      <point x="350" y="-11" type="curve" smooth="yes"/>
      <point x="350" y="21"/>
      <point x="336" y="42"/>
      <point x="319" y="56" type="curve" smooth="yes"/>
      <point x="177" y="171" type="line" smooth="yes"/>
      <point x="151" y="192"/>
      <point x="142" y="204"/>
      <point x="142" y="220" type="curve" smooth="yes"/>
      <point x="142" y="251"/>
      <point x="154" y="313"/>
      <point x="250" y="390" type="curve"/>
      <point x="242" y="418" type="line"/>
      <point x="147" y="361"/>
      <point x="23" y="270"/>
      <point x="23" y="164" type="curve" smooth="yes"/>
      <point x="23" y="142"/>
      <point x="29" y="129"/>
      <point x="47" y="114" type="curve" smooth="yes"/>
      <point x="183" y="4" type="line" smooth="yes"/>
      <point x="215" y="-22"/>
      <point x="233" y="-42"/>
      <point x="233" y="-72" type="curve" smooth="yes"/>
      <point x="233" y="-103"/>
      <point x="221" y="-140"/>
      <point x="191" y="-169" type="curve"/>
      <point x="132" y="-145"/>
      <point x="78" y="-107"/>
      <point x="16" y="-42" type="curve"/>
      <point x="-71" y="-167" type="line"/>
      <point x="1" y="-209"/>
      <point x="69" y="-220"/>
    </contour>
    <contour>
      <point x="220" y="79" type="line"/>
      <point x="307" y="139"/>
      <point x="435" y="247"/>
      <point x="435" y="336" type="curve" smooth="yes"/>
      <point x="435" y="358"/>
      <point x="426" y="375"/>
      <point x="412" y="387" type="curve" smooth="yes"/>
      <point x="294" y="490" type="line" smooth="yes"/>
      <point x="255" y="524"/>
      <point x="239" y="558"/>
      <point x="239" y="584" type="curve" smooth="yes"/>
      <point x="239" y="610"/>
      <point x="243" y="632"/>
      <point x="272" y="665" type="curve"/>
      <point x="319" y="646"/>
      <point x="382" y="587"/>
      <point x="414" y="547" type="curve"/>
      <point x="486" y="683" type="line"/>
      <point x="456" y="700"/>
      <point x="388" y="714"/>
      <point x="349" y="714" type="curve" smooth="yes"/>
      <point x="238" y="714"/>
      <point x="115" y="600"/>
      <point x="115" y="514" type="curve" smooth="yes"/>
      <point x="115" y="482"/>
      <point x="129" y="463"/>
      <point x="147" y="448" type="curve" smooth="yes"/>
      <point x="282" y="335" type="line" smooth="yes"/>
      <point x="303" y="318"/>
      <point x="312" y="300"/>
      <point x="312" y="285" type="curve" smooth="yes"/>
      <point x="312" y="250"/>
      <point x="296" y="185"/>
      <point x="213" y="103" type="curve"/>
    </contour>
  </outline>
</glyph>
<glyph name="copyright" format="2">
  <advance width="647"/>
  <unicode hex="00A9"/>
  <outline>
    <contour>
      <point x="365" y="263" type="curve" smooth="yes"/>
      <point x="416" y="263"/>
      <point x="454" y="292"/>
      <point x="487" y="329" type="curve"/>
      <point x="473" y="348" type="line"/>
      <point x="449" y="330"/>
      <point x="428" y="322"/>
      <point x="407" y="322" type="curve" smooth="yes"/>
      <point x="349" y="322"/>
      <point x="317" y="385"/>
      <point x="317" y="454" type="curve" smooth="yes"/>
      <point x="317" y="511"/>
      <point x="336" y="549"/>
      <point x="370" y="549" type="curve" smooth="yes"/>
      <point x="402" y="549"/>
      <point x="425" y="506"/>
      <point x="442" y="464" type="curve"/>
      <point x="499" y="537" type="line"/>
      <point x="476" y="564"/>
      <point x="438" y="591"/>
      <point x="386" y="591" type="curve" smooth="yes"/>
      <point x="296" y="591"/>
      <point x="227" y="510"/>
      <point x="227" y="418" type="curve" smooth="yes"/>
      <point x="227" y="331"/>
      <point x="290" y="263"/>
    </contour>
    <contour>
      <point x="370" y="126" type="curve" smooth="yes"/>
      <point x="534" y="126"/>
      <point x="663" y="257"/>
      <point x="663" y="421" type="curve" smooth="yes"/>
      <point x="663" y="584"/>
      <point x="534" y="714"/>
      <point x="370" y="714" type="curve" smooth="yes"/>
      <point x="206" y="714"/>
      <point x="77" y="584"/>
      <point x="77" y="421" type="curve" smooth="yes"/>
      <point x="77" y="257"/>
      <point x="206" y="126"/>
    </contour>
    <contour>
      <point x="370" y="183" type="curve" smooth="yes"/>
      <point x="238" y="183"/>
      <point x="133" y="289"/>
      <point x="133" y="421" type="curve" smooth="yes"/>
      <point x="133" y="552"/>
      <point x="238" y="657"/>
      <point x="370" y="657" type="curve" smooth="yes"/>
      <point x="502" y="657"/>
      <point x="607" y="552"/>
      <point x="607" y="421" type="curve" smooth="yes"/>
      <point x="607" y="289"/>
      <point x="502" y="183"/>
    </contour>
  </outline>
</glyph>
<glyph name="registered" format="2">
  <advance width="647"/>
  <unicode hex="00AE"/>
  <outline>
    <contour>
      <point x="370" y="126" type="curve" smooth="yes"/>
      <point x="534" y="126"/>
      <point x="663" y="257"/>
      <point x="663" y="421" type="curve" smooth="yes"/>
      <point x="663" y="584"/>
      <point x="534" y="714"/>
      <point x="370" y="714" type="curve" smooth="yes"/>
      <point x="206" y="714"/>
      <point x="77" y="584"/>
      <point x="77" y="421" type="curve" smooth="yes"/>
      <point x="77" y="257"/>
      <point x="206" y="126"/>
    </contour>
    <contour>
      <point x="370" y="183" type="curve" smooth="yes"/>
      <point x="238" y="183"/>
      <point x="133" y="289"/>
      <point x="133" y="421" type="curve" smooth="yes"/>
      <point x="133" y="552"/>
      <point x="238" y="657"/>
      <point x="370" y="657" type="curve" smooth="yes"/>
      <point x="502" y="657"/>
      <point x="607" y="552"/>
      <point x="607" y="421" type="curve" smooth="yes"/>
      <point x="607" y="289"/>
      <point x="502" y="183"/>
    </contour>
    <contour>
      <point x="244" y="292" type="line"/>
      <point x="375" y="292" type="line"/>
      <point x="375" y="303" type="line"/>
      <point x="354" y="306"/>
      <point x="346" y="313"/>
      <point x="346" y="348" type="curve" smooth="yes"/>
      <point x="346" y="416" type="line"/>
      <point x="352" y="416" type="line" smooth="yes"/>
      <point x="360" y="416"/>
      <point x="365" y="410"/>
      <point x="371" y="401" type="curve" smooth="yes"/>
      <point x="442" y="292" type="line"/>
      <point x="533" y="292" type="line"/>
      <point x="533" y="302" type="line"/>
      <point x="528" y="305" type="line" smooth="yes"/>
      <point x="509" y="317"/>
      <point x="452" y="405"/>
      <point x="425" y="430" type="curve"/>
      <point x="458" y="436"/>
      <point x="491" y="460"/>
      <point x="491" y="498" type="curve" smooth="yes"/>
      <point x="491" y="545"/>
      <point x="446" y="572"/>
      <point x="374" y="572" type="curve" smooth="yes"/>
      <point x="244" y="572" type="line"/>
      <point x="244" y="561" type="line"/>
      <point x="258" y="557"/>
      <point x="262" y="549"/>
      <point x="262" y="515" type="curve" smooth="yes"/>
      <point x="262" y="348" type="line" smooth="yes"/>
      <point x="262" y="314"/>
      <point x="258" y="307"/>
      <point x="244" y="303" type="curve"/>
    </contour>
    <contour>
      <point x="346" y="438" type="line"/>
      <point x="346" y="551" type="line"/>
      <point x="348" y="551" type="line" smooth="yes"/>
      <point x="385" y="551"/>
      <point x="410" y="529"/>
      <point x="410" y="495" type="curve" smooth="yes"/>
      <point x="410" y="461"/>
      <point x="388" y="438"/>
      <point x="356" y="438" type="curve" smooth="yes"/>
    </contour>
  </outline>
</glyph>
<glyph name="degree" format="2">
  <advance width="297"/>
  <unicode hex="00B0"/>
  <outline>
    <contour>
      <point x="222" y="526" type="curve" smooth="yes"/>
      <point x="190" y="526"/>
      <point x="161" y="554"/>
      <point x="161" y="587" type="curve" smooth="yes"/>
      <point x="161" y="618"/>
      <point x="190" y="646"/>
      <point x="222" y="646" type="curve" smooth="yes"/>
      <point x="254" y="646"/>
      <point x="282" y="618"/>
      <point x="282" y="587" type="curve" smooth="yes"/>
      <point x="282" y="554"/>
      <point x="254" y="526"/>
    </contour>
    <contour>
      <point x="222" y="459" type="curve" smooth="yes"/>
      <point x="291" y="459"/>
      <point x="348" y="517"/>
      <point x="348" y="587" type="curve" smooth="yes"/>
      <point x="348" y="656"/>
      <point x="291" y="713"/>
      <point x="222" y="713" type="curve" smooth="yes"/>
      <point x="152" y="713"/>
      <point x="95" y="656"/>
      <point x="95" y="587" type="curve" smooth="yes"/>
      <point x="95" y="517"/>
      <point x="152" y="459"/>
    </contour>
  </outline>
</glyph>
<glyph name="paragraph" format="2">
  <advance width="724"/>
  <unicode hex="00B6"/>
  <outline>
    <contour>
      <point x="167" y="-250" type="line"/>
      <point x="277" y="-250" type="line"/>
      <point x="508" y="613" type="line"/>
      <point x="593" y="613" type="line"/>
      <point x="362" y="-250" type="line"/>
      <point x="472" y="-250" type="line"/>
      <point x="683" y="537" type="line" smooth="yes"/>
      <point x="706" y="623"/>
      <point x="722" y="642"/>
      <point x="782" y="653" type="curve"/>
      <point x="795" y="700" type="line"/>
      <point x="422" y="700" type="line" smooth="yes"/>
      <point x="271" y="700"/>
      <point x="144" y="597"/>
      <point x="110" y="470" type="curve" smooth="yes"/>
      <point x="76" y="343"/>
      <point x="147" y="238"/>
      <point x="298" y="238" type="curve"/>
    </contour>
  </outline>
</glyph>
<glyph name="AE" format="2">
  <advance width="1056"/>
  <unicode hex="00C6"/>
  <outline>
    <contour>
      <point x="-98" y="0" type="line"/>
      <point x="177" y="0" type="line"/>
      <point x="180" y="18" type="line"/>
      <point x="97" y="34" type="line"/>
      <point x="629" y="651" type="line"/>
      <point x="619" y="663" type="line"/>
      <point x="460" y="34" type="line"/>
      <point x="350" y="18" type="line"/>
      <point x="347" y="0" type="line"/>
      <point x="654" y="0" type="line"/>
      <point x="656" y="18" type="line"/>
      <point x="548" y="33" type="line"/>
      <point x="757" y="700" type="line"/>
      <point x="631" y="700" type="line"/>
      <point x="-37" y="32" type="line"/>
      <point x="-96" y="18" type="line"/>
    </contour>
    <contour>
      <point x="225" y="217" type="line"/>
      <point x="508" y="217" type="line"/>
      <point x="513" y="258" type="line"/>
      <point x="241" y="258" type="line"/>
    </contour>
    <component base="E" xOffset="395" identifier="C4378BA9"/>
  </outline>
</glyph>
<glyph name="germandbls" format="2">
  <advance width="547"/>
  <unicode hex="00DF"/>
  <outline>
    <contour>
      <point x="-134" y="-262" type="curve" smooth="yes"/>
      <point x="-66" y="-262"/>
      <point x="97" y="-107"/>
      <point x="123" y="-22" type="curve" smooth="yes"/>
      <point x="174" y="145"/>
      <point x="241" y="402"/>
      <point x="278" y="549" type="curve" smooth="yes"/>
      <point x="290" y="598"/>
      <point x="306" y="651"/>
      <point x="316" y="674" type="curve"/>
      <point x="363" y="651"/>
      <point x="409" y="588"/>
      <point x="449" y="511" type="curve"/>
      <point x="375" y="454"/>
      <point x="303" y="383"/>
      <point x="303" y="313" type="curve" smooth="yes"/>
      <point x="303" y="294"/>
      <point x="307" y="277"/>
      <point x="319" y="258" type="curve" smooth="yes"/>
      <point x="381" y="158" type="line" smooth="yes"/>
      <point x="392" y="140"/>
      <point x="409" y="112"/>
      <point x="409" y="89" type="curve" smooth="yes"/>
      <point x="409" y="71"/>
      <point x="401" y="55"/>
      <point x="388" y="43" type="curve"/>
      <point x="352" y="63"/>
      <point x="308" y="106"/>
      <point x="272" y="145" type="curve"/>
      <point x="195" y="21" type="line"/>
      <point x="243" y="-2"/>
      <point x="300" y="-9"/>
      <point x="328" y="-9" type="curve" smooth="yes"/>
      <point x="405" y="-9"/>
      <point x="507" y="89"/>
      <point x="507" y="167" type="curve" smooth="yes"/>
      <point x="507" y="178"/>
      <point x="505" y="199"/>
      <point x="491" y="221" type="curve" smooth="yes"/>
      <point x="424" y="328" type="line" smooth="yes"/>
      <point x="414" y="344"/>
      <point x="404" y="362"/>
      <point x="404" y="385" type="curve" smooth="yes"/>
      <point x="404" y="464"/>
      <point x="551" y="529"/>
      <point x="551" y="550" type="curve" smooth="yes"/>
      <point x="551" y="628"/>
      <point x="451" y="744"/>
      <point x="405" y="744" type="curve" smooth="yes"/>
      <point x="348" y="744"/>
      <point x="172" y="649"/>
      <point x="148" y="545" type="curve"/>
      <point x="118" y="392"/>
      <point x="51" y="155"/>
      <point x="5" y="-7" type="curve" smooth="yes"/>
      <point x="-19" y="-90"/>
      <point x="-40" y="-154"/>
      <point x="-59" y="-182" type="curve"/>
      <point x="-87" y="-180"/>
      <point x="-129" y="-154"/>
      <point x="-180" y="-117" type="curve"/>
      <point x="-245" y="-239" type="line"/>
      <point x="-194" y="-257"/>
      <point x="-159" y="-262"/>
    </contour>
    <contour>
      <point x="134" y="445" type="line"/>
      <point x="149" y="486" type="line"/>
      <point x="52" y="473" type="line"/>
      <point x="53" y="450" type="line"/>
    </contour>
  </outline>
</glyph>
<glyph name="ae" format="2">
  <advance width="687"/>
  <unicode hex="00E6"/>
  <outline>
    <contour>
      <point x="371" y="337" type="curve"/>
      <point x="415" y="377" type="line"/>
      <point x="385" y="392" type="line"/>
      <point x="385" y="392"/>
      <point x="376" y="355"/>
    </contour>
    <component base="panse_adq" xOffset="-13" identifier="7D16B1F2"/>
    <component base="e" xOffset="287" identifier="8A21DEE4"/>
  </outline>
</glyph>
<glyph name="idotless" format="2">
  <advance width="319"/>
  <unicode hex="0131"/>
  <guideline x="450" y="509"/>
  <anchor x="194" y="480" name="top"/>
  <outline>
    <contour>
      <point x="131" y="-14" type="curve"/>
      <point x="169" y="21"/>
      <point x="216" y="64"/>
      <point x="273" y="112" type="curve"/>
      <point x="264" y="127" type="line"/>
      <point x="219" y="104"/>
      <point x="192" y="89"/>
      <point x="164" y="67" type="curve"/>
      <point x="176" y="119"/>
      <point x="215" y="239"/>
      <point x="241" y="326" type="curve" smooth="yes"/>
      <point x="258" y="378"/>
      <point x="278" y="450"/>
      <point x="282" y="476" type="curve"/>
      <point x="188" y="509" type="line"/>
      <point x="148" y="474"/>
      <point x="108" y="435"/>
      <point x="47" y="384" type="curve"/>
      <point x="59" y="364" type="line"/>
      <point x="94" y="385"/>
      <point x="120" y="404"/>
      <point x="154" y="425" type="curve"/>
      <point x="144" y="392"/>
      <point x="124" y="330"/>
      <point x="92" y="232" type="curve" smooth="yes"/>
      <point x="79" y="192"/>
      <point x="22" y="39"/>
      <point x="25" y="27" type="curve" smooth="yes"/>
      <point x="29" y="10"/>
      <point x="102" y="-14"/>
    </contour>
  </outline>
</glyph>
<glyph name="OE" format="2">
  <advance width="1006"/>
  <unicode hex="0152"/>
  <outline>
    <contour>
      <point x="325" y="0" type="curve" smooth="yes"/>
      <point x="418" y="0" type="line"/>
      <point x="435" y="37" type="line"/>
      <point x="362" y="37" type="line" smooth="yes"/>
      <point x="253" y="37"/>
      <point x="192" y="140"/>
      <point x="192" y="240" type="curve" smooth="yes"/>
      <point x="192" y="400"/>
      <point x="292" y="661"/>
      <point x="600" y="661" type="curve" smooth="yes"/>
      <point x="622" y="661" type="line"/>
      <point x="632" y="700" type="line"/>
      <point x="595" y="700" type="line" smooth="yes"/>
      <point x="272" y="700"/>
      <point x="39" y="433"/>
      <point x="39" y="223" type="curve" smooth="yes"/>
      <point x="39" y="97"/>
      <point x="130" y="0"/>
    </contour>
    <contour>
      <point x="312" y="0" type="line"/>
      <point x="626" y="0" type="line"/>
      <point x="627" y="18" type="line"/>
      <point x="531" y="18" type="line"/>
      <point x="729" y="682" type="line"/>
      <point x="817" y="682" type="line"/>
      <point x="821" y="700" type="line"/>
      <point x="595" y="700" type="line"/>
      <point x="586" y="664" type="line"/>
      <point x="399" y="37" type="line"/>
      <point x="313" y="18" type="line"/>
    </contour>
    <contour>
      <point x="533" y="0" type="line"/>
      <point x="897" y="0" type="line"/>
      <point x="954" y="201" type="line"/>
      <point x="938" y="208" type="line"/>
      <point x="792" y="58" type="line"/>
      <point x="522" y="33" type="line"/>
    </contour>
    <contour>
      <point x="799" y="210" type="line"/>
      <point x="864" y="469" type="line"/>
      <point x="847" y="475" type="line"/>
      <point x="752" y="378" type="line"/>
      <point x="620" y="356" type="line"/>
      <point x="615" y="330" type="line"/>
      <point x="742" y="324" type="line"/>
      <point x="781" y="211" type="line"/>
    </contour>
    <contour>
      <point x="981" y="482" type="line"/>
      <point x="999" y="485" type="line"/>
      <point x="1026" y="700" type="line"/>
      <point x="687" y="700" type="line"/>
      <point x="674" y="673" type="line"/>
      <point x="894" y="651" type="line"/>
    </contour>
  </outline>
</glyph>
<glyph name="longs" format="2">
  <advance width="299"/>
  <unicode hex="017F"/>
  <anchor x="55" y="5" name="bottom"/>
  <outline>
    <contour>
      <point x="-134" y="-262" type="curve" smooth="yes"/>
      <point x="-66" y="-262"/>
      <point x="97" y="-107"/>
      <point x="123" y="-22" type="curve" smooth="yes"/>
      <point x="174" y="145"/>
      <point x="241" y="402"/>
      <point x="278" y="549" type="curve" smooth="yes"/>
      <point x="290" y="598"/>
      <point x="306" y="651"/>
      <point x="316" y="674" type="curve"/>
      <point x="357" y="668"/>
      <point x="408" y="648"/>
      <point x="462" y="618" type="curve"/>
      <point x="512" y="726" type="line"/>
      <point x="480" y="741"/>
      <point x="431" y="744"/>
      <point x="405" y="744" type="curve" smooth="yes"/>
      <point x="348" y="744"/>
      <point x="172" y="649"/>
      <point x="148" y="545" type="curve"/>
      <point x="118" y="392"/>
      <point x="51" y="155"/>
      <point x="5" y="-7" type="curve" smooth="yes"/>
      <point x="-19" y="-90"/>
      <point x="-40" y="-154"/>
      <point x="-59" y="-182" type="curve"/>
      <point x="-87" y="-180"/>
      <point x="-129" y="-154"/>
      <point x="-180" y="-117" type="curve"/>
      <point x="-245" y="-239" type="line"/>
      <point x="-194" y="-257"/>
      <point x="-159" y="-262"/>
    </contour>
    <contour>
      <point x="134" y="445" type="line"/>
      <point x="149" y="486" type="line"/>
      <point x="52" y="473" type="line"/>
      <point x="53" y="450" type="line"/>
    </contour>
  </outline>
</glyph>
<glyph name="acutecomb" format="2">
  <advance width="211"/>
  <unicode hex="0301"/>
  <anchor x="65" y="480" name="_top"/>
  <outline>
    <contour>
      <point x="37" y="541" type="line"/>
      <point x="276" y="640" type="line"/>
      <point x="201" y="744" type="line"/>
      <point x="27" y="555" type="line"/>
    </contour>
  </outline>
</glyph>
<glyph name="tildecomb" format="2">
  <advance width="349"/>
  <unicode hex="0303"/>
  <anchor x="217" y="474" name="_top"/>
  <outline>
    <contour>
      <point x="131" y="577" type="line"/>
      <point x="156" y="595"/>
      <point x="188" y="612"/>
      <point x="203" y="612" type="curve" smooth="yes"/>
      <point x="223" y="612"/>
      <point x="325" y="567"/>
      <point x="343" y="567" type="curve" smooth="yes"/>
      <point x="368" y="567"/>
      <point x="424" y="636"/>
      <point x="458" y="693" type="curve"/>
      <point x="439" y="704" type="line"/>
      <point x="413" y="682"/>
      <point x="385" y="669"/>
      <point x="367" y="669" type="curve" smooth="yes"/>
      <point x="346" y="669"/>
      <point x="254" y="714"/>
      <point x="229" y="714" type="curve" smooth="yes"/>
      <point x="207" y="714"/>
      <point x="147" y="644"/>
      <point x="112" y="589" type="curve"/>
    </contour>
  </outline>
</glyph>
<glyph name="macroncomb" format="2">
  <advance width="377"/>
  <unicode hex="0304"/>
  <guideline x="286" y="568" angle="270"/>
  <anchor x="265" y="470" name="_top"/>
  <outline>
    <contour>
      <point x="175" y="574" type="curve"/>
      <point x="408" y="574" type="line"/>
      <point x="421" y="604"/>
      <point x="431" y="633"/>
      <point x="438" y="663" type="curve"/>
      <point x="205" y="663" type="line"/>
      <point x="198" y="633"/>
      <point x="188" y="604"/>
    </contour>
  </outline>
</glyph>
<glyph name="cedillacomb" format="2">
  <advance width="600"/>
  <unicode hex="0327"/>
  <anchor x="265" y="0" name="_bottom"/>
  <outline>
    <contour>
      <point x="118" y="-264" type="curve" smooth="yes"/>
      <point x="183" y="-264"/>
      <point x="253" y="-182"/>
      <point x="253" y="-116" type="curve" smooth="yes"/>
      <point x="253" y="-99"/>
      <point x="206" y="-71"/>
      <point x="161" y="-52" type="curve"/>
      <point x="198" y="14" type="line"/>
      <point x="166" y="19" type="line"/>
      <point x="75" y="-96" type="line"/>
      <point x="79" y="-111" type="line"/>
      <point x="149" y="-136"/>
      <point x="181" y="-154"/>
      <point x="181" y="-181" type="curve" smooth="yes"/>
      <point x="181" y="-195"/>
      <point x="173" y="-208"/>
      <point x="161" y="-219" type="curve"/>
      <point x="129" y="-204"/>
      <point x="93" y="-173"/>
      <point x="59" y="-137" type="curve"/>
      <point x="-1" y="-236" type="line"/>
      <point x="51" y="-259"/>
      <point x="87" y="-264"/>
    </contour>
  </outline>
</glyph>
<glyph name="dagger" format="2">
  <advance width="429"/>
  <unicode hex="2020"/>
  <outline>
    <contour>
      <point x="275" y="548" type="curve"/>
      <point x="172" y="385" type="line"/>
      <point x="128" y="-40" type="line"/>
      <point x="146" y="-44" type="line"/>
      <point x="318" y="371" type="line"/>
      <point x="302" y="546" type="line"/>
      <point x="355" y="538"/>
      <point x="411" y="526"/>
      <point x="460" y="530" type="curve"/>
      <point x="474" y="546" type="line"/>
      <point x="464" y="647" type="line"/>
      <point x="407" y="605"/>
      <point x="361" y="591"/>
      <point x="304" y="571" type="curve"/>
      <point x="334" y="622"/>
      <point x="373" y="674"/>
      <point x="392" y="724" type="curve"/>
      <point x="386" y="744" type="line"/>
      <point x="275" y="744" type="line"/>
      <point x="283" y="687"/>
      <point x="290" y="631"/>
      <point x="283" y="574" type="curve"/>
      <point x="254" y="602"/>
      <point x="209" y="645"/>
      <point x="175" y="663" type="curve"/>
      <point x="155" y="656" type="line"/>
      <point x="112" y="536" type="line"/>
      <point x="163" y="545"/>
      <point x="217" y="548"/>
    </contour>
  </outline>
</glyph>
<glyph name="daggerdbl" format="2">
  <advance width="454"/>
  <unicode hex="2021"/>
  <outline>
    <contour>
      <point x="300" y="548" type="curve"/>
      <point x="206" y="423" type="line"/>
      <point x="242" y="339" type="line"/>
      <point x="260" y="335" type="line"/>
      <point x="352" y="409" type="line"/>
      <point x="327" y="546" type="line"/>
      <point x="380" y="538"/>
      <point x="436" y="526"/>
      <point x="485" y="530" type="curve"/>
      <point x="499" y="546" type="line"/>
      <point x="489" y="647" type="line"/>
      <point x="432" y="605"/>
      <point x="386" y="591"/>
      <point x="329" y="571" type="curve"/>
      <point x="359" y="622"/>
      <point x="398" y="674"/>
      <point x="417" y="724" type="curve"/>
      <point x="411" y="744" type="line"/>
      <point x="300" y="744" type="line"/>
      <point x="308" y="687"/>
      <point x="315" y="631"/>
      <point x="308" y="574" type="curve"/>
      <point x="279" y="602"/>
      <point x="234" y="645"/>
      <point x="200" y="663" type="curve"/>
      <point x="180" y="656" type="line"/>
      <point x="137" y="536" type="line"/>
      <point x="188" y="545"/>
      <point x="242" y="548"/>
    </contour>
    <contour>
      <point x="202" y="127" type="curve"/>
      <point x="296" y="252" type="line"/>
      <point x="260" y="336" type="line"/>
      <point x="242" y="340" type="line"/>
      <point x="150" y="266" type="line"/>
      <point x="175" y="129" type="line"/>
      <point x="122" y="137"/>
      <point x="66" y="149"/>
      <point x="17" y="145" type="curve"/>
      <point x="3" y="129" type="line"/>
      <point x="13" y="28" type="line"/>
      <point x="70" y="70"/>
      <point x="116" y="84"/>
      <point x="173" y="104" type="curve"/>
      <point x="143" y="53"/>
      <point x="104" y="1"/>
      <point x="85" y="-49" type="curve"/>
      <point x="91" y="-69" type="line"/>
      <point x="202" y="-69" type="line"/>
      <point x="194" y="-12"/>
      <point x="187" y="44"/>
      <point x="194" y="101" type="curve"/>
      <point x="223" y="73"/>
      <point x="268" y="30"/>
      <point x="302" y="12" type="curve"/>
      <point x="322" y="19" type="line"/>
      <point x="365" y="139" type="line"/>
      <point x="314" y="130"/>
      <point x="260" y="127"/>
    </contour>
  </outline>
</glyph>
<glyph name="bullet" format="2">
  <advance width="315"/>
  <unicode hex="2022"/>
  <outline>
    <contour>
      <point x="188" y="258" type="curve" smooth="yes"/>
      <point x="249" y="258"/>
      <point x="291" y="302"/>
      <point x="291" y="361" type="curve" smooth="yes"/>
      <point x="291" y="418"/>
      <point x="249" y="465"/>
      <point x="188" y="465" type="curve" smooth="yes"/>
      <point x="128" y="465"/>
      <point x="84" y="418"/>
      <point x="84" y="361" type="curve" smooth="yes"/>
      <point x="84" y="302"/>
      <point x="128" y="258"/>
    </contour>
  </outline>
</glyph>
<glyph name="guilsinglleft" format="2">
  <advance width="336"/>
  <unicode hex="2039"/>
  <outline>
    <contour>
      <point x="218" y="40" type="line"/>
      <point x="235" y="48" type="line"/>
      <point x="197" y="287" type="line"/>
      <point x="188" y="258" type="line"/>
      <point x="350" y="469" type="line"/>
      <point x="337" y="487" type="line"/>
      <point x="56" y="290" type="line"/>
      <point x="50" y="258" type="line"/>
    </contour>
  </outline>
</glyph>
<glyph name="euro" format="2">
  <advance width="692"/>
  <unicode hex="20AC"/>
  <outline>
    <component base="C" xOffset="93"/>
    <contour>
      <point x="101" y="456" type="line"/>
      <point x="83" y="396" type="line"/>
      <point x="569" y="396" type="line"/>
      <point x="587" y="456" type="line"/>
    </contour>
    <contour>
      <point x="61" y="318" type="line"/>
      <point x="43" y="258" type="line"/>
      <point x="499" y="258" type="line"/>
      <point x="517" y="318" type="line"/>
    </contour>
  </outline>
</glyph>
<glyph name="trademark" format="2">
  <advance width="951"/>
  <unicode hex="2122"/>
  <outline>
    <contour>
      <point x="182" y="332" type="line"/>
      <point x="353" y="332" type="line"/>
      <point x="353" y="346" type="line"/>
      <point x="344" y="346"/>
      <point x="336" y="365"/>
      <point x="336" y="406" type="curve"/>
      <point x="200" y="406" type="line"/>
      <point x="200" y="356"/>
      <point x="187" y="341"/>
      <point x="182" y="342" type="curve"/>
    </contour>
    <contour>
      <point x="200" y="358" type="line"/>
      <point x="336" y="358" type="line"/>
      <point x="336" y="695" type="line"/>
      <point x="200" y="695" type="line"/>
    </contour>
    <contour>
      <point x="266" y="673" type="line"/>
      <point x="340" y="673" type="line" smooth="yes"/>
      <point x="397" y="673"/>
      <point x="421" y="628"/>
      <point x="434" y="585" type="curve"/>
      <point x="446" y="590" type="line"/>
      <point x="438" y="716" type="line"/>
      <point x="422" y="716" type="line"/>
      <point x="417" y="703"/>
      <point x="405" y="701"/>
      <point x="365" y="701" type="curve" smooth="yes"/>
      <point x="266" y="701" type="line"/>
    </contour>
    <contour>
      <point x="266" y="673" type="line"/>
      <point x="266" y="701" type="line"/>
      <point x="167" y="701" type="line" smooth="yes"/>
      <point x="128" y="701"/>
      <point x="116" y="703"/>
      <point x="111" y="716" type="curve"/>
      <point x="96" y="716" type="line"/>
      <point x="87" y="590" type="line"/>
      <point x="100" y="585" type="line"/>
      <point x="111" y="628"/>
      <point x="137" y="673"/>
      <point x="193" y="673" type="curve" smooth="yes"/>
    </contour>
    <contour>
      <point x="460" y="332" type="line"/>
      <point x="581" y="332" type="line"/>
      <point x="581" y="346" type="line"/>
      <point x="545" y="349"/>
      <point x="525" y="364"/>
      <point x="529" y="418" type="curve" smooth="yes"/>
      <point x="547" y="654" type="line"/>
      <point x="535" y="654" type="line"/>
      <point x="641" y="360" type="line"/>
      <point x="700" y="360" type="line"/>
      <point x="795" y="656" type="line"/>
      <point x="775" y="701" type="line"/>
      <point x="708" y="492" type="line"/>
      <point x="719" y="500" type="line"/>
      <point x="652" y="701" type="line"/>
      <point x="479" y="701" type="line"/>
      <point x="479" y="688" type="line"/>
      <point x="497" y="688"/>
      <point x="513" y="672"/>
      <point x="510" y="630" type="curve" smooth="yes"/>
      <point x="492" y="413" type="line" smooth="yes"/>
      <point x="489" y="374"/>
      <point x="481" y="349"/>
      <point x="460" y="346" type="curve"/>
    </contour>
    <contour>
      <point x="783" y="332" type="line"/>
      <point x="954" y="332" type="line"/>
      <point x="954" y="346" type="line"/>
      <point x="943" y="348"/>
      <point x="937" y="358"/>
      <point x="932" y="406" type="curve" smooth="yes"/>
      <point x="910" y="626" type="line" smooth="yes"/>
      <point x="906" y="664"/>
      <point x="905" y="681"/>
      <point x="919" y="687" type="curve"/>
      <point x="919" y="701" type="line"/>
      <point x="775" y="701" type="line"/>
      <point x="797" y="406" type="line" smooth="yes"/>
      <point x="800" y="364"/>
      <point x="800" y="352"/>
      <point x="783" y="346" type="curve"/>
    </contour>
  </outline>
</glyph>
<glyph name="rightArrow" format="2">
  <advance width="1208"/>
  <unicode hex="2192"/>
  <outline>
    <contour>
      <point x="860" y="-44" type="line"/>
      <point x="1169" y="215" type="line"/>
      <point x="1169" y="273" type="line"/>
      <point x="860" y="532" type="line"/>
      <point x="827" y="498" type="line"/>
      <point x="958" y="226" type="line"/>
      <point x="958" y="264" type="line"/>
      <point x="827" y="-9" type="line"/>
    </contour>
    <contour>
      <point x="193" y="272" type="line"/>
      <point x="193" y="219" type="line"/>
      <point x="955" y="219" type="line"/>
      <point x="955" y="272" type="line"/>
    </contour>
    <component base="eclat-fleche" xScale="1.32" yScale="-1.32" xOffset="166" yOffset="568"/>
    <component base="plume-fleche" xScale="1.32" yScale="1.32" xOffset="163" yOffset="-78"/>
    <component base="plume-fleche" xScale="1.32" yScale="-1.32" xOffset="163" yOffset="572"/>
  </outline>
</glyph>
<glyph name="HandPointingRight" format="2">
  <advance width="1527"/>
  <unicode hex="261E"/>
  <outline>
    <contour>
      <point x="244" y="48" type="line"/>
      <point x="119" y="44" type="line"/>
      <point x="197" y="146" type="line"/>
      <point x="92" y="175" type="line"/>
      <point x="186" y="248" type="line"/>
      <point x="83" y="266" type="line"/>
      <point x="186" y="321" type="line"/>
      <point x="92" y="376" type="line"/>
      <point x="200" y="403" type="line"/>
      <point x="119" y="505" type="line"/>
      <point x="252" y="462" type="line"/>
      <point x="206" y="602" type="line"/>
      <point x="400" y="467" type="line"/>
      <point x="505" y="530"/>
      <point x="652" y="598"/>
      <point x="714" y="618" type="curve"/>
      <point x="794" y="602"/>
      <point x="974" y="552"/>
      <point x="1021" y="497" type="curve"/>
      <point x="1341" y="462" type="line" smooth="yes"/>
      <point x="1418" y="455"/>
      <point x="1489" y="446"/>
      <point x="1513" y="383" type="curve"/>
      <point x="1497" y="308"/>
      <point x="1423" y="301"/>
      <point x="1348" y="299" type="curve" smooth="yes"/>
      <point x="1115" y="295" type="line"/>
      <point x="1129" y="275"/>
      <point x="1137" y="248"/>
      <point x="1137" y="225" type="curve" smooth="yes"/>
      <point x="1137" y="186"/>
      <point x="1102" y="137"/>
      <point x="1050" y="137" type="curve"/>
      <point x="1055" y="124"/>
      <point x="1060" y="107"/>
      <point x="1060" y="92" type="curve" smooth="yes"/>
      <point x="1060" y="32"/>
      <point x="987" y="-16"/>
      <point x="939" y="7" type="curve"/>
      <point x="941" y="-1"/>
      <point x="939" y="-9"/>
      <point x="939" y="-16" type="curve" smooth="yes"/>
      <point x="939" y="-52"/>
      <point x="895" y="-75"/>
      <point x="843" y="-75" type="curve" smooth="yes"/>
      <point x="820" y="-75"/>
      <point x="777" y="-71"/>
      <point x="741" y="-56" type="curve"/>
      <point x="719" y="-55"/>
      <point x="599" y="-29"/>
      <point x="554" y="-6" type="curve" smooth="yes"/>
      <point x="404" y="73" type="line"/>
      <point x="211" y="-75" type="line"/>
    </contour>
    <contour>
      <point x="772" y="-31" type="line"/>
      <point x="886" y="-31" type="line"/>
      <point x="899" y="15" type="line"/>
      <point x="723" y="156" type="line"/>
      <point x="691" y="147" type="line"/>
      <point x="666" y="91" type="line"/>
    </contour>
    <contour>
      <point x="740" y="184" type="line"/>
      <point x="944" y="50" type="line"/>
      <point x="992" y="48" type="line"/>
      <point x="1022" y="76" type="line"/>
      <point x="1009" y="120" type="line"/>
      <point x="769" y="248" type="line"/>
    </contour>
    <contour>
      <point x="794" y="322" type="line"/>
      <point x="819" y="269" type="line"/>
      <point x="1024" y="165" type="line"/>
      <point x="1087" y="191" type="line"/>
      <point x="1094" y="238" type="line"/>
      <point x="1066" y="278" type="line"/>
      <point x="1016" y="266" type="line"/>
      <point x="925" y="294" type="line"/>
      <point x="843" y="380" type="line"/>
    </contour>
    <contour>
      <point x="706" y="-8" type="line"/>
      <point x="620" y="90" type="line"/>
      <point x="653" y="170" type="line"/>
      <point x="691" y="190" type="line"/>
      <point x="734" y="270" type="line"/>
      <point x="766" y="282" type="line"/>
      <point x="758" y="301" type="line"/>
      <point x="664" y="259" type="line"/>
      <point x="514" y="259" type="line"/>
      <point x="512" y="301" type="line"/>
      <point x="648" y="305" type="line"/>
      <point x="745" y="350" type="line"/>
      <point x="827" y="426" type="line"/>
      <point x="890" y="402" type="line"/>
      <point x="956" y="338" type="line"/>
      <point x="1028" y="328" type="line"/>
      <point x="1048" y="344" type="line"/>
      <point x="1041" y="376" type="line"/>
      <point x="1016" y="357" type="line"/>
      <point x="985" y="367" type="line"/>
      <point x="955" y="421" type="line"/>
      <point x="996" y="448" type="line"/>
      <point x="959" y="497" type="line"/>
      <point x="713" y="569" type="line"/>
      <point x="606" y="533"/>
      <point x="509" y="476"/>
      <point x="401" y="404" type="curve"/>
      <point x="380" y="269" type="line"/>
      <point x="417" y="120" type="line"/>
      <point x="585" y="28" type="line"/>
    </contour>
    <contour>
      <point x="1053" y="447" type="line"/>
      <point x="1093" y="394" type="line"/>
      <point x="1103" y="338" type="line"/>
      <point x="1433" y="343" type="line"/>
      <point x="1464" y="370" type="line"/>
      <point x="1433" y="409" type="line"/>
    </contour>
    <contour>
      <point x="757" y="185" type="line"/>
      <point x="777" y="229" type="line"/>
      <point x="837" y="198" type="line"/>
      <point x="812" y="152" type="line"/>
    </contour>
    <contour>
      <point x="681" y="94" type="line"/>
      <point x="698" y="130" type="line"/>
      <point x="720" y="137" type="line"/>
      <point x="771" y="101" type="line"/>
      <point x="719" y="46" type="line"/>
    </contour>
    <contour>
      <point x="807" y="317" type="line"/>
      <point x="842" y="358" type="line"/>
      <point x="895" y="314" type="line"/>
      <point x="859" y="261" type="line"/>
      <point x="830" y="281" type="line"/>
    </contour>
  </outline>
</glyph>
<glyph name="A_E" format="2">
  <advance width="1076"/>
  <unicode hex="F1010"/>
  <outline>
    <contour>
      <point x="-98" y="0" type="line"/>
      <point x="177" y="0" type="line"/>
      <point x="180" y="18" type="line"/>
      <point x="96" y="34" type="line"/>
      <point x="648" y="651" type="line"/>
      <point x="638" y="663" type="line"/>
      <point x="450" y="37" type="line"/>
      <point x="364" y="18" type="line"/>
      <point x="363" y="0" type="line"/>
      <point x="644" y="0" type="line"/>
      <point x="646" y="18" type="line"/>
      <point x="588" y="33" type="line"/>
      <point x="776" y="700" type="line"/>
      <point x="650" y="700" type="line"/>
      <point x="-37" y="32" type="line"/>
      <point x="-96" y="18" type="line"/>
    </contour>
    <contour>
      <point x="215" y="217" type="line"/>
      <point x="568" y="217" type="line"/>
      <point x="573" y="258" type="line"/>
      <point x="231" y="258" type="line"/>
    </contour>
    <component base="E" xOffset="415"/>
  </outline>
</glyph>
<glyph name="A_O" format="2">
  <advance width="1074"/>
  <unicode hex="F1030"/>
  <outline>
    <contour>
      <point x="-98" y="0" type="line"/>
      <point x="177" y="0" type="line"/>
      <point x="180" y="18" type="line"/>
      <point x="89" y="34" type="line"/>
      <point x="469" y="651" type="line"/>
      <point x="459" y="663" type="line"/>
      <point x="452" y="216" type="line"/>
      <point x="564" y="63" type="line"/>
      <point x="594" y="700" type="line"/>
      <point x="471" y="700" type="line"/>
      <point x="-37" y="32" type="line"/>
      <point x="-96" y="18" type="line"/>
    </contour>
    <contour>
      <point x="175" y="217" type="line"/>
      <point x="458" y="217" type="line"/>
      <point x="463" y="258" type="line"/>
      <point x="191" y="258" type="line"/>
    </contour>
    <component base="O" xOffset="412"/>
  </outline>
</glyph>
<glyph name="a_o" format="2">
  <advance width="765"/>
  <unicode hex="F1130"/>
  <outline>
    <component base="panse_adq" xOffset="-13" identifier="54A4BEF4"/>
    <component base="o" xOffset="287"/>
    <contour>
      <point x="369" y="337" type="line"/>
      <point x="406" y="369" type="line"/>
      <point x="382" y="382" type="line"/>
    </contour>
  </outline>
</glyph>
<glyph name="C_H" format="2">
  <advance width="992"/>
  <unicode hex="F1410"/>
  <outline>
    <component base="C"/>
    <component base="I" xOffset="634"/>
    <contour>
      <point x="394" y="495" type="line"/>
      <point x="329" y="236" type="line"/>
      <point x="346" y="230" type="line"/>
      <point x="441" y="327" type="line"/>
      <point x="816" y="341" type="line"/>
      <point x="821" y="369" type="line"/>
      <point x="451" y="381" type="line"/>
      <point x="412" y="494" type="line"/>
    </contour>
  </outline>
</glyph>
<glyph name="C_Q" format="2">
  <advance width="633"/>
  <unicode hex="F1440"/>
  <anchor x="336" y="0" name="bottom"/>
  <outline>
    <component base="C" identifier="2259B3BA"/>
    <contour>
      <point x="458" y="-176" type="curve"/>
      <point x="580" y="-182"/>
      <point x="706" y="-166"/>
      <point x="823" y="-144" type="curve"/>
      <point x="822" y="-122" type="line"/>
      <point x="757" y="-119"/>
      <point x="618" y="-105"/>
      <point x="548" y="-95" type="curve"/>
      <point x="492" y="-69"/>
      <point x="422" y="-21"/>
      <point x="370" y="15" type="curve"/>
      <point x="339" y="8" type="line"/>
      <point x="374" y="-58"/>
      <point x="421" y="-138"/>
    </contour>
  </outline>
</glyph>
<glyph name="c_h" format="2">
  <advance width="734"/>
  <unicode hex="F1510"/>
  <outline>
    <contour>
      <point x="267" y="442" type="curve"/>
      <point x="284" y="494" type="line"/>
      <point x="165" y="450"/>
      <point x="-3" y="248"/>
      <point x="-3" y="119" type="curve" smooth="yes"/>
      <point x="-3" y="27"/>
      <point x="82" y="-14"/>
      <point x="159" y="-14" type="curve" smooth="yes"/>
      <point x="273" y="-14"/>
      <point x="363" y="63"/>
      <point x="422" y="160" type="curve"/>
      <point x="407" y="172" type="line"/>
      <point x="355" y="115"/>
      <point x="266" y="56"/>
      <point x="197" y="46" type="curve"/>
      <point x="165" y="73"/>
      <point x="141" y="119"/>
      <point x="141" y="165" type="curve" smooth="yes"/>
      <point x="141" y="243"/>
      <point x="169" y="375"/>
    </contour>
    <component base="empattement_montante" xScale="0.918" yScale="1.02" xOffset="-68" yOffset="-21" identifier="2D0F0B27"/>
    <contour>
      <point x="274" y="129" type="line"/>
      <point x="402" y="261"/>
      <point x="522" y="387"/>
      <point x="583" y="417" type="curve"/>
      <point x="529" y="298"/>
      <point x="458" y="134"/>
      <point x="442" y="36" type="curve" smooth="yes"/>
      <point x="439" y="18"/>
      <point x="513" y="-14"/>
      <point x="542" y="-14" type="curve"/>
      <point x="581" y="21"/>
      <point x="600" y="50"/>
      <point x="686" y="124" type="curve"/>
      <point x="676" y="141" type="line"/>
      <point x="630" y="116"/>
      <point x="607" y="98"/>
      <point x="579" y="77" type="curve"/>
      <point x="592" y="177"/>
      <point x="721" y="400"/>
      <point x="721" y="467" type="curve" smooth="yes"/>
      <point x="721" y="491"/>
      <point x="698" y="509"/>
      <point x="674" y="509" type="curve" smooth="yes"/>
      <point x="606" y="509"/>
      <point x="486" y="398"/>
      <point x="378" y="279" type="curve"/>
      <point x="475" y="616" type="line"/>
      <point x="354" y="619" type="line"/>
      <point x="219" y="158" type="line"/>
    </contour>
  </outline>
</glyph>
<glyph name="c_q" format="2">
  <advance width="381"/>
  <unicode hex="F1540"/>
  <outline>
    <component base="c"/>
    <contour>
      <point x="326" y="142" type="curve"/>
      <point x="173" y="36" type="line"/>
      <point x="148" y="-49"/>
      <point x="124" y="-131"/>
      <point x="100" y="-203" type="curve"/>
      <point x="-27" y="-232" type="line"/>
      <point x="-29" y="-250" type="line"/>
      <point x="275" y="-250" type="line"/>
      <point x="281" y="-236" type="line"/>
      <point x="225" y="-209" type="line"/>
      <point x="256" y="-108"/>
      <point x="291" y="17"/>
    </contour>
  </outline>
</glyph>
<glyph name="D_U_D_E_L_A" format="2">
  <advance width="2507"/>
  <unicode hex="F1630"/>
  <outline>
    <component base="D"/>
    <contour>
      <point x="975" y="386" type="curve" smooth="yes"/>
      <point x="1062" y="386"/>
      <point x="1127" y="430"/>
      <point x="1161" y="541" type="curve" smooth="yes"/>
      <point x="1201" y="673" type="line"/>
      <point x="1251" y="687" type="line"/>
      <point x="1253" y="700" type="line"/>
      <point x="1103" y="700" type="line"/>
      <point x="1101" y="687" type="line"/>
      <point x="1164" y="673" type="line"/>
      <point x="1129" y="556" type="line" smooth="yes"/>
      <point x="1100" y="458"/>
      <point x="1048" y="422"/>
      <point x="992" y="422" type="curve" smooth="yes"/>
      <point x="921" y="422"/>
      <point x="882" y="478"/>
      <point x="912" y="576" type="curve" smooth="yes"/>
      <point x="942" y="673" type="line"/>
      <point x="1005" y="687" type="line"/>
      <point x="1008" y="700" type="line"/>
      <point x="800" y="700" type="line"/>
      <point x="797" y="690" type="line"/>
      <point x="846" y="676" type="line"/>
      <point x="817" y="584" type="line" smooth="yes"/>
      <point x="772" y="440"/>
      <point x="890" y="386"/>
    </contour>
    <contour>
      <point x="642" y="0" type="line"/>
      <point x="862" y="0" type="line"/>
      <point x="863" y="13" type="line"/>
      <point x="795" y="13" type="line"/>
      <point x="884" y="316" type="line"/>
      <point x="937" y="316" type="line"/>
      <point x="939" y="329" type="line"/>
      <point x="740" y="329" type="line"/>
      <point x="737" y="319" type="line"/>
      <point x="784" y="304" type="line"/>
      <point x="703" y="26" type="line"/>
      <point x="643" y="13" type="line"/>
    </contour>
    <contour>
      <point x="797" y="0" type="line"/>
      <point x="1052" y="0" type="line"/>
      <point x="1092" y="141" type="line"/>
      <point x="1081" y="146" type="line"/>
      <point x="979" y="41" type="line"/>
      <point x="789" y="23" type="line"/>
    </contour>
    <contour>
      <point x="950" y="87" type="line"/>
      <point x="987" y="228" type="line"/>
      <point x="975" y="233" type="line"/>
      <point x="915" y="188" type="line"/>
      <point x="832" y="172" type="line"/>
      <point x="828" y="154" type="line"/>
      <point x="908" y="150" type="line"/>
      <point x="937" y="88" type="line"/>
    </contour>
    <contour>
      <point x="1061" y="186" type="line"/>
      <point x="1074" y="189" type="line"/>
      <point x="1093" y="329" type="line"/>
      <point x="855" y="329" type="line"/>
      <point x="846" y="310" type="line"/>
      <point x="1003" y="295" type="line"/>
    </contour>
    <component base="L" xOffset="1180"/>
    <component base="A" xOffset="1807"/>
  </outline>
</glyph>
<glyph name="d_u_d_e_l_a" format="2">
  <advance width="1855"/>
  <unicode hex="F1730"/>
  <outline>
    <component base="panse_adq" xOffset="-95" yOffset="-250"/>
    <contour>
      <point x="322" y="-264" type="curve"/>
      <point x="359" y="-224"/>
      <point x="388" y="-194"/>
      <point x="461" y="-134" type="curve"/>
      <point x="454" y="-119" type="line"/>
      <point x="402" y="-141"/>
      <point x="365" y="-165"/>
      <point x="344" y="-184" type="curve"/>
      <point x="347" y="-144"/>
      <point x="357" y="-103"/>
      <point x="376" y="-35" type="curve" smooth="yes"/>
      <point x="550" y="585" type="line"/>
      <point x="429" y="589" type="line"/>
      <point x="233" y="-101" type="line" smooth="yes"/>
      <point x="217" y="-159"/>
      <point x="213" y="-201"/>
      <point x="216" y="-214" type="curve" smooth="yes"/>
      <point x="220" y="-232"/>
      <point x="284" y="-259"/>
    </contour>
    <component base="empattement_montante" xScale="0.918" yScale="1.02" xOffset="16" yOffset="-21" identifier="B3944E73"/>
    <component base="u" yScale="0.93" xOffset="560" yOffset="264"/>
    <component base="e" yScale="0.93" xOffset="530" yOffset="-251"/>
    <contour>
      <point x="1136" y="-264" type="curve"/>
      <point x="1173" y="-224"/>
      <point x="1202" y="-194"/>
      <point x="1275" y="-134" type="curve"/>
      <point x="1268" y="-119" type="line"/>
      <point x="1216" y="-141"/>
      <point x="1179" y="-165"/>
      <point x="1158" y="-184" type="curve"/>
      <point x="1161" y="-144"/>
      <point x="1171" y="-103"/>
      <point x="1190" y="-35" type="curve" smooth="yes"/>
      <point x="1361" y="585" type="line"/>
      <point x="1240" y="589" type="line"/>
      <point x="1047" y="-101" type="line" smooth="yes"/>
      <point x="1031" y="-159"/>
      <point x="1027" y="-201"/>
      <point x="1030" y="-214" type="curve" smooth="yes"/>
      <point x="1034" y="-232"/>
      <point x="1098" y="-259"/>
    </contour>
    <component base="empattement_montante" xScale="0.918" yScale="1.02" xOffset="827" yOffset="-21"/>
    <component base="a" xOffset="1304"/>
  </outline>
</glyph>
<glyph name="Enb" format="2">
  <advance width="549"/>
  <unicode hex="F1800"/>
  <outline>
    <contour>
      <point x="249" y="-10" type="curve" smooth="yes"/>
      <point x="284" y="-10"/>
      <point x="376" y="-2"/>
      <point x="446" y="23" type="curve"/>
      <point x="509" y="210" type="line"/>
      <point x="492" y="217" type="line"/>
      <point x="391" y="86"/>
      <point x="325" y="30"/>
      <point x="273" y="30" type="curve" smooth="yes"/>
      <point x="197" y="30"/>
      <point x="165" y="103"/>
      <point x="165" y="171" type="curve" smooth="yes"/>
      <point x="165" y="256"/>
      <point x="219" y="338"/>
      <point x="310" y="338" type="curve" smooth="yes"/>
      <point x="338" y="338" type="line"/>
      <point x="378" y="232" type="line"/>
      <point x="396" y="231" type="line"/>
      <point x="459" y="476" type="line"/>
      <point x="442" y="482" type="line"/>
      <point x="348" y="378" type="line"/>
      <point x="330" y="378" type="line" smooth="yes"/>
      <point x="288" y="378"/>
      <point x="260" y="420"/>
      <point x="260" y="479" type="curve" smooth="yes"/>
      <point x="260" y="573"/>
      <point x="317" y="668"/>
      <point x="421" y="668" type="curve" smooth="yes"/>
      <point x="455" y="668"/>
      <point x="477" y="659"/>
      <point x="505" y="642" type="curve"/>
      <point x="560" y="475" type="line"/>
      <point x="577" y="477" type="line"/>
      <point x="618" y="664" type="line"/>
      <point x="558" y="700"/>
      <point x="515" y="712"/>
      <point x="452" y="712" type="curve" smooth="yes"/>
      <point x="289" y="712"/>
      <point x="108" y="606"/>
      <point x="108" y="478" type="curve" smooth="yes"/>
      <point x="108" y="419"/>
      <point x="154" y="376"/>
      <point x="201" y="359" type="curve"/>
      <point x="109" y="337"/>
      <point x="14" y="242"/>
      <point x="14" y="152" type="curve" smooth="yes"/>
      <point x="14" y="50"/>
      <point x="109" y="-10"/>
    </contour>
  </outline>
</glyph>
<glyph name="E_A" format="2">
  <advance width="1211"/>
  <unicode hex="F1810"/>
  <outline>
    <contour>
      <point x="-47" y="0" type="line"/>
      <point x="267" y="0" type="line"/>
      <point x="268" y="18" type="line"/>
      <point x="172" y="18" type="line"/>
      <point x="370" y="682" type="line"/>
      <point x="458" y="682" type="line"/>
      <point x="462" y="700" type="line"/>
      <point x="164" y="700" type="line"/>
      <point x="160" y="686" type="line"/>
      <point x="227" y="664" type="line"/>
      <point x="40" y="37" type="line"/>
      <point x="-46" y="18" type="line"/>
    </contour>
    <contour>
      <point x="174" y="0" type="line"/>
      <point x="572" y="0" type="line"/>
      <point x="629" y="201" type="line"/>
      <point x="613" y="208" type="line"/>
      <point x="501" y="61" type="line"/>
      <point x="163" y="33" type="line"/>
    </contour>
    <contour>
      <point x="454" y="210" type="line"/>
      <point x="519" y="469" type="line"/>
      <point x="502" y="475" type="line"/>
      <point x="407" y="378" type="line"/>
      <point x="261" y="356" type="line"/>
      <point x="256" y="330" type="line"/>
      <point x="397" y="324" type="line"/>
      <point x="436" y="211" type="line"/>
    </contour>
    <contour>
      <point x="636" y="482" type="line"/>
      <point x="654" y="485" type="line"/>
      <point x="681" y="700" type="line"/>
      <point x="328" y="700" type="line"/>
      <point x="315" y="673" type="line"/>
      <point x="549" y="651" type="line"/>
    </contour>
    <component base="A" xOffset="511"/>
  </outline>
</glyph>
<glyph name="E_S_S" format="2">
  <advance width="1626"/>
  <unicode hex="F18E0"/>
  <outline>
    <contour>
      <point x="-47" y="0" type="line"/>
      <point x="267" y="0" type="line"/>
      <point x="268" y="18" type="line"/>
      <point x="172" y="18" type="line"/>
      <point x="370" y="682" type="line"/>
      <point x="458" y="682" type="line"/>
      <point x="462" y="700" type="line"/>
      <point x="164" y="700" type="line"/>
      <point x="160" y="686" type="line"/>
      <point x="227" y="664" type="line"/>
      <point x="40" y="37" type="line"/>
      <point x="-46" y="18" type="line"/>
    </contour>
    <contour>
      <point x="174" y="0" type="line"/>
      <point x="686" y="0" type="line"/>
      <point x="626" y="118" type="line"/>
      <point x="650" y="253" type="line"/>
      <point x="633" y="255" type="line"/>
      <point x="562" y="62" type="line"/>
      <point x="163" y="33" type="line"/>
    </contour>
    <contour>
      <point x="454" y="210" type="line"/>
      <point x="519" y="469" type="line"/>
      <point x="502" y="475" type="line"/>
      <point x="407" y="378" type="line"/>
      <point x="261" y="356" type="line"/>
      <point x="256" y="330" type="line"/>
      <point x="397" y="324" type="line"/>
      <point x="436" y="211" type="line"/>
    </contour>
    <contour>
      <point x="636" y="482" type="line"/>
      <point x="654" y="485" type="line"/>
      <point x="681" y="700" type="line"/>
      <point x="328" y="700" type="line"/>
      <point x="315" y="673" type="line"/>
      <point x="549" y="651" type="line"/>
    </contour>
    <component base="S_S" xOffset="583"/>
  </outline>
</glyph>
<glyph name="enb" format="2">
  <advance width="383"/>
  <unicode hex="F1900"/>
  <guideline x="434" y="509"/>
  <outline>
    <contour>
      <point x="124" y="-14" type="curve" smooth="yes"/>
      <point x="201" y="-14"/>
      <point x="293" y="71"/>
      <point x="331" y="142" type="curve"/>
      <point x="317" y="153" type="line"/>
      <point x="273" y="112"/>
      <point x="214" y="67"/>
      <point x="159" y="45" type="curve"/>
      <point x="152" y="59"/>
      <point x="143" y="81"/>
      <point x="143" y="105" type="curve" smooth="yes"/>
      <point x="143" y="160"/>
      <point x="170" y="231"/>
      <point x="285" y="217" type="curve"/>
      <point x="317" y="272" type="line"/>
      <point x="311" y="289" type="line"/>
      <point x="206" y="287"/>
      <point x="-3" y="208"/>
      <point x="-3" y="77" type="curve" smooth="yes"/>
      <point x="-3" y="21"/>
      <point x="63" y="-14"/>
    </contour>
    <contour>
      <point x="214" y="252" type="curve"/>
      <point x="225" y="260" type="line"/>
      <point x="208" y="289"/>
      <point x="202" y="315"/>
      <point x="202" y="345" type="curve" smooth="yes"/>
      <point x="202" y="385"/>
      <point x="220" y="421"/>
      <point x="266" y="461" type="curve"/>
      <point x="308" y="435"/>
      <point x="333" y="411"/>
      <point x="364" y="373" type="curve"/>
      <point x="426" y="481" type="line"/>
      <point x="398" y="497"/>
      <point x="363" y="509"/>
      <point x="324" y="509" type="curve" smooth="yes"/>
      <point x="273" y="509"/>
      <point x="55" y="421"/>
      <point x="55" y="334" type="curve" smooth="yes"/>
      <point x="55" y="285"/>
      <point x="130" y="260"/>
    </contour>
  </outline>
</glyph>
<glyph name="e_a" format="2">
  <advance width="942"/>
  <unicode hex="F1910"/>
  <outline>
    <contour>
      <point x="142" y="-14" type="curve" smooth="yes"/>
      <point x="224" y="-14"/>
      <point x="371" y="92"/>
      <point x="438" y="196" type="curve"/>
      <point x="429" y="211" type="line"/>
      <point x="369" y="142"/>
      <point x="226" y="58"/>
      <point x="180" y="48" type="curve"/>
      <point x="165" y="72"/>
      <point x="148" y="110"/>
      <point x="148" y="155" type="curve" smooth="yes"/>
      <point x="148" y="256"/>
      <point x="193" y="395"/>
      <point x="291" y="469" type="curve"/>
      <point x="299" y="452"/>
      <point x="306" y="433"/>
      <point x="306" y="410" type="curve" smooth="yes"/>
      <point x="306" y="361"/>
      <point x="228" y="256"/>
      <point x="133" y="231" type="curve"/>
      <point x="131" y="208" type="line"/>
      <point x="275" y="241"/>
      <point x="428" y="310"/>
      <point x="428" y="408" type="curve" smooth="yes"/>
      <point x="428" y="460"/>
      <point x="361" y="509"/>
      <point x="326" y="509" type="curve" smooth="yes"/>
      <point x="202" y="509"/>
      <point x="3" y="271"/>
      <point x="3" y="117" type="curve" smooth="yes"/>
      <point x="3" y="58"/>
      <point x="64" y="-14"/>
    </contour>
    <component base="a" xOffset="391"/>
  </outline>
</glyph>
<glyph name="e_s_s" format="2">
  <advance width="1069"/>
  <unicode hex="F19E0"/>
  <outline>
    <contour>
      <point x="130" y="-14" type="curve" smooth="yes"/>
      <point x="185" y="-14"/>
      <point x="271" y="58"/>
      <point x="326" y="118" type="curve"/>
      <point x="357" y="67"/>
      <point x="439" y="-9"/>
      <point x="474" y="-9" type="curve" smooth="yes"/>
      <point x="551" y="-9"/>
      <point x="653" y="89"/>
      <point x="653" y="167" type="curve" smooth="yes"/>
      <point x="653" y="178"/>
      <point x="651" y="199"/>
      <point x="637" y="221" type="curve" smooth="yes"/>
      <point x="570" y="328" type="line" smooth="yes"/>
      <point x="560" y="344"/>
      <point x="550" y="362"/>
      <point x="550" y="385" type="curve" smooth="yes"/>
      <point x="550" y="403"/>
      <point x="556" y="428"/>
      <point x="578" y="453" type="curve"/>
      <point x="606" y="439"/>
      <point x="667" y="383"/>
      <point x="724" y="21" type="curve"/>
      <point x="772" y="-2"/>
      <point x="807" y="-9"/>
      <point x="835" y="-9" type="curve" smooth="yes"/>
      <point x="912" y="-9"/>
      <point x="1014" y="89"/>
      <point x="1014" y="167" type="curve" smooth="yes"/>
      <point x="1014" y="178"/>
      <point x="1012" y="199"/>
      <point x="998" y="221" type="curve" smooth="yes"/>
      <point x="931" y="328" type="line" smooth="yes"/>
      <point x="921" y="344"/>
      <point x="911" y="362"/>
      <point x="911" y="385" type="curve" smooth="yes"/>
      <point x="911" y="403"/>
      <point x="917" y="428"/>
      <point x="939" y="453" type="curve"/>
      <point x="967" y="439"/>
      <point x="1017" y="383"/>
      <point x="1033" y="360" type="curve"/>
      <point x="1098" y="497" type="line"/>
      <point x="1069" y="506"/>
      <point x="1022" y="513"/>
      <point x="994" y="513" type="curve" smooth="yes"/>
      <point x="927" y="513"/>
      <point x="810" y="389"/>
      <point x="810" y="313" type="curve" smooth="yes"/>
      <point x="810" y="294"/>
      <point x="814" y="277"/>
      <point x="826" y="258" type="curve" smooth="yes"/>
      <point x="888" y="158" type="line" smooth="yes"/>
      <point x="899" y="140"/>
      <point x="916" y="112"/>
      <point x="916" y="89" type="curve" smooth="yes"/>
      <point x="916" y="71"/>
      <point x="908" y="55"/>
      <point x="895" y="43" type="curve"/>
      <point x="859" y="63"/>
      <point x="785" y="106"/>
      <point x="730" y="497" type="curve"/>
      <point x="701" y="506"/>
      <point x="661" y="513"/>
      <point x="633" y="513" type="curve" smooth="yes"/>
      <point x="566" y="513"/>
      <point x="449" y="389"/>
      <point x="449" y="313" type="curve" smooth="yes"/>
      <point x="449" y="294"/>
      <point x="453" y="277"/>
      <point x="465" y="258" type="curve" smooth="yes"/>
      <point x="527" y="158" type="line" smooth="yes"/>
      <point x="538" y="140"/>
      <point x="555" y="112"/>
      <point x="555" y="89" type="curve" smooth="yes"/>
      <point x="555" y="71"/>
      <point x="547" y="55"/>
      <point x="534" y="43" type="curve"/>
      <point x="498" y="63"/>
      <point x="417" y="165"/>
      <point x="381" y="221" type="curve"/>
      <point x="319" y="160"/>
      <point x="205" y="64"/>
      <point x="169" y="53" type="curve"/>
      <point x="154" y="75"/>
      <point x="140" y="110"/>
      <point x="140" y="155" type="curve" smooth="yes"/>
      <point x="140" y="173"/>
      <point x="141" y="193"/>
      <point x="145" y="213" type="curve"/>
      <point x="282" y="248"/>
      <point x="420" y="315"/>
      <point x="420" y="408" type="curve" smooth="yes"/>
      <point x="420" y="460"/>
      <point x="353" y="509"/>
      <point x="318" y="509" type="curve" smooth="yes"/>
      <point x="194" y="509"/>
      <point x="3" y="271"/>
      <point x="3" y="117" type="curve" smooth="yes"/>
      <point x="3" y="58"/>
      <point x="56" y="-14"/>
    </contour>
    <contour>
      <point x="149" y="239" type="curve"/>
      <point x="167" y="324"/>
      <point x="210" y="414"/>
      <point x="283" y="469" type="curve"/>
      <point x="291" y="452"/>
      <point x="298" y="433"/>
      <point x="298" y="410" type="curve" smooth="yes"/>
      <point x="298" y="365"/>
      <point x="233" y="274"/>
    </contour>
  </outline>
</glyph>
<glyph name="F_V" format="2">
  <advance width="1179"/>
  <unicode hex="F2050"/>
  <anchor x="226" y="0" name="bottom"/>
  <anchor x="-31" y="700" name="top"/>
  <outline>
    <contour>
      <point x="-47" y="0" type="line"/>
      <point x="267" y="0" type="line"/>
      <point x="268" y="18" type="line"/>
      <point x="178" y="38" type="line"/>
      <point x="370" y="682" type="line"/>
      <point x="458" y="682" type="line"/>
      <point x="462" y="700" type="line"/>
      <point x="164" y="700" type="line"/>
      <point x="160" y="686" type="line"/>
      <point x="227" y="664" type="line"/>
      <point x="40" y="37" type="line"/>
      <point x="-46" y="18" type="line"/>
    </contour>
    <contour>
      <point x="460" y="219" type="line"/>
      <point x="523" y="464" type="line"/>
      <point x="506" y="470" type="line"/>
      <point x="417" y="379" type="line"/>
      <point x="264" y="356" type="line"/>
      <point x="259" y="331" type="line"/>
      <point x="401" y="321" type="line"/>
      <point x="442" y="220" type="line"/>
    </contour>
    <contour>
      <point x="681" y="488" type="line"/>
      <point x="699" y="491" type="line"/>
      <point x="729" y="700" type="line"/>
      <point x="328" y="700" type="line"/>
      <point x="315" y="673" type="line"/>
      <point x="644" y="643" type="line"/>
    </contour>
    <component base="V" xOffset="472" identifier="554866F1"/>
  </outline>
</glyph>
<glyph name="f_v" format="2">
  <advance width="485"/>
  <unicode hex="F2150"/>
  <outline>
    <contour>
      <point x="-124" y="-262" type="curve" smooth="yes"/>
      <point x="-56" y="-262"/>
      <point x="107" y="-107"/>
      <point x="133" y="-22" type="curve" smooth="yes"/>
      <point x="184" y="145"/>
      <point x="251" y="402"/>
      <point x="288" y="549" type="curve" smooth="yes"/>
      <point x="300" y="598"/>
      <point x="316" y="651"/>
      <point x="326" y="674" type="curve"/>
      <point x="367" y="668"/>
      <point x="418" y="648"/>
      <point x="472" y="618" type="curve"/>
      <point x="522" y="726" type="line"/>
      <point x="490" y="741"/>
      <point x="441" y="744"/>
      <point x="415" y="744" type="curve" smooth="yes"/>
      <point x="358" y="744"/>
      <point x="182" y="649"/>
      <point x="158" y="545" type="curve"/>
      <point x="128" y="392"/>
      <point x="61" y="155"/>
      <point x="15" y="-7" type="curve" smooth="yes"/>
      <point x="-9" y="-90"/>
      <point x="-30" y="-154"/>
      <point x="-49" y="-182" type="curve"/>
      <point x="-77" y="-180"/>
      <point x="-119" y="-154"/>
      <point x="-170" y="-117" type="curve"/>
      <point x="-235" y="-239" type="line"/>
      <point x="-184" y="-257"/>
      <point x="-149" y="-262"/>
    </contour>
    <contour>
      <point x="146" y="443" type="line"/>
      <point x="159" y="486" type="line"/>
      <point x="62" y="473" type="line"/>
      <point x="63" y="450" type="line"/>
    </contour>
    <contour>
      <point x="146" y="38" type="curve"/>
      <point x="107" y="-5" type="line"/>
      <point x="137" y="-14" type="line"/>
      <point x="317" y="136"/>
      <point x="496" y="286"/>
      <point x="496" y="397" type="curve" smooth="yes"/>
      <point x="496" y="445"/>
      <point x="476" y="473"/>
      <point x="448" y="509" type="curve"/>
      <point x="335" y="447" type="line"/>
      <point x="356" y="418"/>
      <point x="372" y="392"/>
      <point x="372" y="356" type="curve" smooth="yes"/>
      <point x="372" y="296"/>
      <point x="289" y="150"/>
    </contour>
  </outline>
</glyph>
<glyph name="G_U" format="2">
  <advance width="1054"/>
  <unicode hex="F2210"/>
  <outline>
    <contour>
      <point x="306" y="-13" type="curve" smooth="yes"/>
      <point x="371" y="-13"/>
      <point x="436" y="13"/>
      <point x="518" y="89" type="curve"/>
      <point x="567" y="14"/>
      <point x="637" y="-14"/>
      <point x="697" y="-14" type="curve" smooth="yes"/>
      <point x="821" y="-14"/>
      <point x="915" y="49"/>
      <point x="962" y="214" type="curve" smooth="yes"/>
      <point x="1089" y="661" type="line"/>
      <point x="1160" y="682" type="line"/>
      <point x="1163" y="700" type="line"/>
      <point x="949" y="700" type="line"/>
      <point x="945" y="682" type="line"/>
      <point x="1036" y="661" type="line"/>
      <point x="917" y="235" type="line" smooth="yes"/>
      <point x="876" y="89"/>
      <point x="801" y="37"/>
      <point x="721" y="37" type="curve" smooth="yes"/>
      <point x="624" y="37"/>
      <point x="563" y="107"/>
      <point x="611" y="282" type="curve"/>
      <point x="677" y="299" type="line"/>
      <point x="681" y="317" type="line"/>
      <point x="343" y="317" type="line"/>
      <point x="340" y="300" type="line"/>
      <point x="474" y="281" type="line"/>
      <point x="416" y="63" type="line"/>
      <point x="401" y="49"/>
      <point x="373" y="28"/>
      <point x="332" y="28" type="curve" smooth="yes"/>
      <point x="221" y="28"/>
      <point x="194" y="159"/>
      <point x="194" y="251" type="curve" smooth="yes"/>
      <point x="194" y="430"/>
      <point x="340" y="670"/>
      <point x="474" y="670" type="curve" smooth="yes"/>
      <point x="508" y="670"/>
      <point x="524" y="663"/>
      <point x="549" y="646" type="curve"/>
      <point x="605" y="477" type="line"/>
      <point x="622" y="479" type="line"/>
      <point x="662" y="676" type="line"/>
      <point x="596" y="706"/>
      <point x="558" y="713"/>
      <point x="498" y="713" type="curve" smooth="yes"/>
      <point x="287" y="713"/>
      <point x="41" y="436"/>
      <point x="41" y="229" type="curve" smooth="yes"/>
      <point x="41" y="100"/>
      <point x="159" y="-13"/>
    </contour>
  </outline>
</glyph>
<glyph name="g_u" format="2">
  <advance width="1011"/>
  <unicode hex="F2310"/>
  <outline>
    <contour>
      <point x="177" y="131" type="curve" smooth="yes"/>
      <point x="281" y="131"/>
      <point x="435" y="286"/>
      <point x="435" y="402" type="curve" smooth="yes"/>
      <point x="435" y="467"/>
      <point x="369" y="509"/>
      <point x="295" y="509" type="curve" smooth="yes"/>
      <point x="198" y="509"/>
      <point x="30" y="352"/>
      <point x="30" y="237" type="curve" smooth="yes"/>
      <point x="30" y="180"/>
      <point x="101" y="131"/>
    </contour>
    <contour>
      <point x="212" y="172" type="curve"/>
      <point x="188" y="188"/>
      <point x="160" y="222"/>
      <point x="160" y="272" type="curve" smooth="yes"/>
      <point x="160" y="341"/>
      <point x="207" y="432"/>
      <point x="249" y="458" type="curve"/>
      <point x="285" y="441"/>
      <point x="309" y="406"/>
      <point x="309" y="361" type="curve" smooth="yes"/>
      <point x="309" y="300"/>
      <point x="259" y="197"/>
    </contour>
    <contour>
      <point x="590" y="442" type="line"/>
      <point x="616" y="486" type="line"/>
      <point x="609" y="509" type="line"/>
      <point x="310" y="496" type="line"/>
      <point x="213" y="483" type="line"/>
      <point x="214" y="460" type="line"/>
      <point x="281" y="456" type="line"/>
    </contour>
    <contour>
      <point x="207" y="141" type="curve"/>
      <point x="169" y="147" type="line"/>
      <point x="134" y="124"/>
      <point x="65" y="78"/>
      <point x="42" y="53" type="curve"/>
      <point x="42" y="25"/>
      <point x="89" y="-22"/>
      <point x="118" y="-33" type="curve" smooth="yes"/>
      <point x="233" y="-76" type="line" smooth="yes"/>
      <point x="264" y="-88"/>
      <point x="299" y="-102"/>
      <point x="315" y="-118" type="curve"/>
      <point x="287" y="-155"/>
      <point x="204" y="-170"/>
      <point x="160" y="-170" type="curve" smooth="yes"/>
      <point x="93" y="-170"/>
      <point x="17" y="-142"/>
      <point x="7" y="-93" type="curve"/>
      <point x="30" y="-69"/>
      <point x="51" y="-54"/>
      <point x="131" y="-5" type="curve"/>
      <point x="124" y="21" type="line"/>
      <point x="-22" y="-55"/>
      <point x="-85" y="-95"/>
      <point x="-121" y="-130" type="curve"/>
      <point x="-119" y="-221"/>
      <point x="-10" y="-264"/>
      <point x="58" y="-264" type="curve" smooth="yes"/>
      <point x="157" y="-264"/>
      <point x="394" y="-157"/>
      <point x="394" y="-56" type="curve" smooth="yes"/>
      <point x="394" y="-29"/>
      <point x="380" y="4"/>
      <point x="339" y="21" type="curve" smooth="yes"/>
      <point x="205" y="75" type="line" smooth="yes"/>
      <point x="183" y="84"/>
      <point x="169" y="91"/>
      <point x="165" y="97" type="curve"/>
      <point x="174" y="109"/>
      <point x="191" y="126"/>
    </contour>
    <contour>
      <point x="492" y="-14" type="curve" smooth="yes"/>
      <point x="560" y="-14"/>
      <point x="706" y="132"/>
      <point x="835" y="326" type="curve"/>
      <point x="826" y="358" type="line"/>
      <point x="785" y="298"/>
      <point x="647" y="117"/>
      <point x="581" y="78" type="curve"/>
      <point x="616" y="176"/>
      <point x="681" y="343"/>
      <point x="702" y="466" type="curve"/>
      <point x="609" y="509" type="line"/>
      <point x="576" y="446" type="line"/>
      <point x="555" y="319"/>
      <point x="443" y="95"/>
      <point x="443" y="29" type="curve" smooth="yes"/>
      <point x="443" y="5"/>
      <point x="463" y="-14"/>
    </contour>
    <contour>
      <point x="927" y="326" type="curve" smooth="yes"/>
      <point x="956" y="426"/>
      <point x="966" y="461"/>
      <point x="970" y="498" type="curve"/>
      <point x="960" y="509" type="line"/>
      <point x="849" y="479" type="line"/>
      <point x="836" y="427" type="line" smooth="yes"/>
      <point x="829" y="399"/>
      <point x="795" y="284"/>
      <point x="779" y="232" type="curve" smooth="yes"/>
      <point x="767" y="192"/>
      <point x="709" y="40"/>
      <point x="712" y="28" type="curve" smooth="yes"/>
      <point x="716" y="11"/>
      <point x="788" y="-14"/>
      <point x="818" y="-14" type="curve"/>
      <point x="853" y="19"/>
      <point x="903" y="64"/>
      <point x="960" y="112" type="curve"/>
      <point x="951" y="127" type="line"/>
      <point x="907" y="104"/>
      <point x="879" y="89"/>
      <point x="851" y="67" type="curve"/>
      <point x="863" y="119"/>
      <point x="901" y="239"/>
    </contour>
  </outline>
</glyph>
<glyph name="L_E" format="2">
  <advance width="1118"/>
  <unicode hex="F3210"/>
  <outline>
    <contour>
      <point x="118" y="0" type="line"/>
      <point x="496" y="0" type="line"/>
      <point x="558" y="196" type="line"/>
      <point x="542" y="203" type="line"/>
      <point x="502" y="70" type="line"/>
      <point x="139" y="37" type="line"/>
    </contour>
    <component base="I"/>
    <component base="E" xOffset="457"/>
  </outline>
</glyph>
<glyph name="L_U" format="2">
  <advance width="1116"/>
  <unicode hex="F3250"/>
  <outline>
    <contour>
      <point x="118" y="0" type="line"/>
      <point x="521" y="0" type="line"/>
      <point x="521" y="28" type="line"/>
      <point x="482" y="65" type="line"/>
      <point x="139" y="37" type="line"/>
    </contour>
    <component base="I"/>
    <component base="U" xOffset="442"/>
  </outline>
</glyph>
<glyph name="l_e" format="2">
  <advance width="449"/>
  <unicode hex="F3311"/>
  <outline>
    <contour>
      <point x="50" y="175" type="line"/>
      <point x="231" y="374" type="line"/>
      <point x="291" y="585" type="line"/>
      <point x="170" y="589" type="line"/>
    </contour>
    <component base="empattement_montante" xScale="0.918" yScale="1.02" xOffset="-243" yOffset="-21"/>
    <component base="e" xOffset="49"/>
  </outline>
</glyph>
<glyph name="l_l" format="2">
  <advance width="612"/>
  <unicode hex="F3320"/>
  <outline>
    <contour>
      <point x="132" y="-14" type="curve"/>
      <point x="186" y="37"/>
      <point x="270" y="120"/>
      <point x="373" y="195" type="curve"/>
      <point x="368" y="212" type="line"/>
      <point x="255" y="149"/>
      <point x="180" y="100"/>
      <point x="156" y="81" type="curve"/>
      <point x="159" y="115"/>
      <point x="167" y="147"/>
      <point x="186" y="215" type="curve" smooth="yes"/>
      <point x="291" y="585" type="line"/>
      <point x="170" y="589" type="line"/>
      <point x="43" y="149" type="line" smooth="yes"/>
      <point x="26" y="91"/>
      <point x="23" y="49"/>
      <point x="26" y="36" type="curve" smooth="yes"/>
      <point x="30" y="18"/>
      <point x="94" y="-9"/>
    </contour>
    <component base="empattement_montante" xScale="0.918" yScale="1.02" xOffset="-243" yOffset="-21"/>
    <component base="l" xOffset="306"/>
  </outline>
</glyph>
<glyph name="l_u" format="2">
  <advance width="567"/>
  <unicode hex="F3350"/>
  <outline>
    <contour>
      <point x="48" y="-14" type="curve" smooth="yes"/>
      <point x="116" y="-14"/>
      <point x="262" y="132"/>
      <point x="391" y="326" type="curve"/>
      <point x="382" y="358" type="line"/>
      <point x="341" y="298"/>
      <point x="203" y="117"/>
      <point x="137" y="78" type="curve"/>
      <point x="173" y="179"/>
      <point x="224" y="348"/>
      <point x="291" y="585" type="curve"/>
      <point x="170" y="589" type="line"/>
      <point x="49" y="174"/>
      <point x="-1" y="68"/>
      <point x="-1" y="29" type="curve" smooth="yes"/>
      <point x="-1" y="5"/>
      <point x="19" y="-14"/>
    </contour>
    <contour>
      <point x="374" y="-14" type="curve"/>
      <point x="409" y="19"/>
      <point x="459" y="64"/>
      <point x="516" y="112" type="curve"/>
      <point x="507" y="127" type="line"/>
      <point x="463" y="104"/>
      <point x="435" y="89"/>
      <point x="407" y="67" type="curve"/>
      <point x="419" y="119"/>
      <point x="457" y="239"/>
      <point x="483" y="326" type="curve" smooth="yes"/>
      <point x="512" y="426"/>
      <point x="522" y="461"/>
      <point x="526" y="498" type="curve"/>
      <point x="516" y="509" type="line"/>
      <point x="405" y="479" type="line"/>
      <point x="392" y="427" type="line" smooth="yes"/>
      <point x="385" y="399"/>
      <point x="351" y="284"/>
      <point x="335" y="232" type="curve" smooth="yes"/>
      <point x="323" y="192"/>
      <point x="265" y="40"/>
      <point x="268" y="28" type="curve" smooth="yes"/>
      <point x="272" y="11"/>
      <point x="344" y="-14"/>
    </contour>
    <component base="empattement_montante" xScale="0.918" yScale="1.02" xOffset="-243" yOffset="-21"/>
  </outline>
</glyph>
<glyph name="M_P" format="2">
  <advance width="1128"/>
  <unicode hex="F3410"/>
  <outline>
    <contour>
      <point x="560" y="0" type="line"/>
      <point x="874" y="0" type="line"/>
      <point x="875" y="18" type="line"/>
      <point x="790" y="38" type="line"/>
      <point x="885" y="666" type="line"/>
      <point x="985" y="653"/>
      <point x="1030" y="584"/>
      <point x="1030" y="516" type="curve" smooth="yes"/>
      <point x="1030" y="431"/>
      <point x="968" y="330"/>
      <point x="865" y="288" type="curve"/>
      <point x="869" y="265" type="line"/>
      <point x="948" y="286"/>
      <point x="1175" y="384"/>
      <point x="1175" y="514" type="curve" smooth="yes"/>
      <point x="1175" y="613"/>
      <point x="1055" y="700"/>
      <point x="882" y="700" type="curve" smooth="yes"/>
      <point x="755" y="700" type="line"/>
      <point x="651" y="35" type="line"/>
      <point x="560" y="17" type="line"/>
    </contour>
    <contour>
      <point x="-72" y="0" type="line"/>
      <point x="188" y="0" type="line"/>
      <point x="188" y="17" type="line"/>
      <point x="117" y="33" type="line"/>
      <point x="310" y="643" type="line"/>
      <point x="295" y="678" type="line"/>
      <point x="-8" y="33" type="line"/>
      <point x="-72" y="17" type="line"/>
    </contour>
    <contour>
      <point x="371" y="59" type="line"/>
      <point x="750" y="596" type="line"/>
      <point x="760" y="700" type="line"/>
      <point x="735" y="700" type="line"/>
      <point x="410" y="169" type="line"/>
      <point x="475" y="221" type="line"/>
      <point x="421" y="700" type="line"/>
      <point x="213" y="700" type="line"/>
      <point x="209" y="683" type="line"/>
      <point x="288" y="667" type="line"/>
      <point x="357" y="63" type="line"/>
    </contour>
  </outline>
</glyph>
<glyph name="m_p" format="2">
  <advance width="1087"/>
  <unicode hex="F3510"/>
  <outline>
    <contour>
      <point x="414" y="-250" type="line"/>
      <point x="758" y="-250" type="line"/>
      <point x="762" y="-234" type="line"/>
      <point x="639" y="-209" type="line"/>
      <point x="703" y="3"/>
      <point x="802" y="357"/>
      <point x="861" y="557" type="curve"/>
      <point x="851" y="570" type="line"/>
      <point x="724" y="524" type="line"/>
      <point x="712" y="480" type="line"/>
      <point x="628" y="425"/>
      <point x="517" y="301"/>
      <point x="420" y="161" type="curve"/>
      <point x="430" y="130" type="line"/>
      <point x="470" y="188"/>
      <point x="617" y="375"/>
      <point x="695" y="416" type="curve"/>
      <point x="643" y="226"/>
      <point x="568" y="-42"/>
      <point x="514" y="-207" type="curve"/>
      <point x="414" y="-234" type="line"/>
    </contour>
    <component base="fut" xOffset="13" identifier="DB1279E3"/>
    <contour>
      <point x="319" y="-14" type="line"/>
      <point x="419" y="15" type="line"/>
      <point x="458" y="149" type="line" smooth="yes"/>
      <point x="488" y="253"/>
      <point x="561" y="420"/>
      <point x="561" y="468" type="curve" smooth="yes"/>
      <point x="561" y="491"/>
      <point x="539" y="509"/>
      <point x="512" y="509" type="curve" smooth="yes"/>
      <point x="421" y="509"/>
      <point x="249" y="308"/>
      <point x="140" y="157" type="curve"/>
      <point x="149" y="127" type="line"/>
      <point x="189" y="185"/>
      <point x="349" y="381"/>
      <point x="424" y="419" type="curve"/>
      <point x="415" y="380"/>
      <point x="364" y="248"/>
      <point x="329" y="148" type="curve" smooth="yes"/>
      <point x="282" y="14" type="line"/>
    </contour>
    <contour>
      <point x="769" y="-14" type="curve" smooth="yes"/>
      <point x="910" y="-14"/>
      <point x="1078" y="211"/>
      <point x="1078" y="355" type="curve" smooth="yes"/>
      <point x="1078" y="437"/>
      <point x="1024" y="502"/>
      <point x="967" y="502" type="curve" smooth="yes"/>
      <point x="929" y="502"/>
      <point x="842" y="472"/>
      <point x="755" y="431" type="curve"/>
      <point x="750" y="385" type="line"/>
      <point x="821" y="415"/>
      <point x="891" y="440"/>
      <point x="918" y="442" type="curve"/>
      <point x="930" y="421"/>
      <point x="936" y="379"/>
      <point x="936" y="335" type="curve" smooth="yes"/>
      <point x="936" y="264"/>
      <point x="893" y="103"/>
      <point x="831" y="39" type="curve"/>
      <point x="786" y="45"/>
      <point x="740" y="83"/>
      <point x="710" y="108" type="curve"/>
      <point x="664" y="6" type="line"/>
      <point x="688" y="-2"/>
      <point x="736" y="-14"/>
    </contour>
  </outline>
</glyph>
<glyph name="N_N" format="2">
  <advance width="1165"/>
  <unicode hex="F3640"/>
  <outline>
    <contour>
      <point x="911" y="0" type="line"/>
      <point x="991" y="0" type="line"/>
      <point x="1018" y="110" type="line"/>
      <point x="805" y="700" type="line"/>
      <point x="586" y="700" type="line"/>
      <point x="583" y="685" type="line"/>
      <point x="674" y="658" type="line"/>
    </contour>
    <contour>
      <point x="-53" y="0" type="line"/>
      <point x="213" y="0" type="line"/>
      <point x="215" y="16" type="line"/>
      <point x="126" y="34" type="line"/>
      <point x="263" y="700" type="line"/>
      <point x="232" y="700" type="line"/>
      <point x="16" y="32" type="line"/>
      <point x="-51" y="16" type="line"/>
    </contour>
    <contour>
      <point x="456" y="0" type="line"/>
      <point x="536" y="0" type="line"/>
      <point x="563" y="110" type="line"/>
      <point x="350" y="700" type="line"/>
      <point x="131" y="700" type="line"/>
      <point x="128" y="685" type="line"/>
      <point x="219" y="658" type="line"/>
    </contour>
    <contour>
      <point x="488" y="0" type="line"/>
      <point x="537" y="0" type="line"/>
      <point x="743" y="700" type="line"/>
      <point x="687" y="700" type="line"/>
    </contour>
    <contour>
      <point x="968" y="0" type="line"/>
      <point x="992" y="0" type="line"/>
      <point x="1209" y="663" type="line"/>
      <point x="1272" y="685" type="line"/>
      <point x="1275" y="700" type="line"/>
      <point x="1012" y="700" type="line"/>
      <point x="1009" y="685" type="line"/>
      <point x="1102" y="662" type="line"/>
    </contour>
  </outline>
</glyph>
<glyph name="n_n" format="2">
  <advance width="1163"/>
  <unicode hex="F3740"/>
  <outline>
    <component base="fut" xOffset="13" identifier="038DF31A"/>
    <component base="n" xOffset="579"/>
    <contour>
      <point x="429" y="85" type="curve"/>
      <point x="442" y="177"/>
      <point x="571" y="400"/>
      <point x="571" y="467" type="curve" smooth="yes"/>
      <point x="571" y="491"/>
      <point x="548" y="509"/>
      <point x="524" y="509" type="curve" smooth="yes"/>
      <point x="442" y="509"/>
      <point x="286" y="349"/>
      <point x="156" y="161" type="curve"/>
      <point x="166" y="130" type="line"/>
      <point x="206" y="189"/>
      <point x="356" y="379"/>
      <point x="433" y="417" type="curve"/>
      <point x="379" y="298"/>
      <point x="308" y="133"/>
      <point x="293" y="45" type="curve" smooth="yes"/>
      <point x="289" y="21"/>
      <point x="360" y="-9"/>
      <point x="398" y="-14" type="curve"/>
      <point x="452" y="37"/>
      <point x="537" y="124"/>
      <point x="686" y="230" type="curve"/>
      <point x="681" y="250" type="line"/>
      <point x="522" y="156"/>
      <point x="446" y="100"/>
    </contour>
  </outline>
</glyph>
<glyph name="O_F" format="2">
  <advance width="960"/>
  <unicode hex="F3810"/>
  <anchor x="585" y="0" name="bottom"/>
  <anchor x="328" y="700" name="top"/>
  <outline>
    <contour>
      <point x="325" y="0" type="curve" smooth="yes"/>
      <point x="418" y="0" type="line"/>
      <point x="435" y="37" type="line"/>
      <point x="362" y="37" type="line" smooth="yes"/>
      <point x="253" y="37"/>
      <point x="192" y="140"/>
      <point x="192" y="240" type="curve" smooth="yes"/>
      <point x="192" y="400"/>
      <point x="292" y="661"/>
      <point x="600" y="661" type="curve" smooth="yes"/>
      <point x="622" y="661" type="line"/>
      <point x="632" y="700" type="line"/>
      <point x="595" y="700" type="line" smooth="yes"/>
      <point x="272" y="700"/>
      <point x="39" y="433"/>
      <point x="39" y="223" type="curve" smooth="yes"/>
      <point x="39" y="97"/>
      <point x="130" y="0"/>
    </contour>
    <contour>
      <point x="312" y="0" type="line"/>
      <point x="626" y="0" type="line"/>
      <point x="627" y="18" type="line"/>
      <point x="537" y="38" type="line"/>
      <point x="729" y="682" type="line"/>
      <point x="817" y="682" type="line"/>
      <point x="821" y="700" type="line"/>
      <point x="603" y="700" type="line"/>
      <point x="586" y="664" type="line"/>
      <point x="399" y="37" type="line"/>
      <point x="313" y="18" type="line"/>
    </contour>
    <contour>
      <point x="819" y="219" type="line"/>
      <point x="882" y="464" type="line"/>
      <point x="865" y="470" type="line"/>
      <point x="776" y="379" type="line"/>
      <point x="623" y="356" type="line"/>
      <point x="618" y="331" type="line"/>
      <point x="760" y="321" type="line"/>
      <point x="801" y="220" type="line"/>
    </contour>
    <contour>
      <point x="992" y="488" type="line"/>
      <point x="1010" y="491" type="line"/>
      <point x="1040" y="700" type="line"/>
      <point x="687" y="700" type="line"/>
      <point x="674" y="673" type="line"/>
      <point x="907" y="648" type="line"/>
    </contour>
  </outline>
</glyph>
<glyph name="O_T" format="2">
  <advance width="732"/>
  <unicode hex="F3840"/>
  <outline>
    <contour>
      <point x="290" y="-13" type="curve" smooth="yes"/>
      <point x="441" y="-13"/>
      <point x="608" y="208"/>
      <point x="608" y="367" type="curve" smooth="yes"/>
      <point x="608" y="460"/>
      <point x="536" y="533"/>
      <point x="451" y="533" type="curve" smooth="yes"/>
      <point x="301" y="533"/>
      <point x="128" y="320"/>
      <point x="128" y="163" type="curve" smooth="yes"/>
      <point x="128" y="77"/>
      <point x="195" y="-13"/>
    </contour>
    <contour>
      <point x="324" y="32" type="curve" smooth="yes"/>
      <point x="269" y="32"/>
      <point x="248" y="109"/>
      <point x="248" y="181" type="curve" smooth="yes"/>
      <point x="248" y="288"/>
      <point x="319" y="487"/>
      <point x="415" y="487" type="curve" smooth="yes"/>
      <point x="455" y="487"/>
      <point x="488" y="436"/>
      <point x="488" y="350" type="curve" smooth="yes"/>
      <point x="488" y="242"/>
      <point x="426" y="32"/>
    </contour>
    <contour>
      <point x="372" y="505" type="line"/>
      <point x="511" y="507" type="line"/>
      <point x="568" y="700" type="line"/>
      <point x="430" y="700" type="line"/>
    </contour>
    <contour>
      <point x="727" y="482" type="line"/>
      <point x="745" y="482" type="line"/>
      <point x="804" y="732" type="line"/>
      <point x="787" y="739" type="line"/>
      <point x="704" y="700" type="line"/>
      <point x="265" y="700" type="line"/>
      <point x="203" y="730" type="line"/>
      <point x="185" y="728" type="line"/>
      <point x="116" y="495" type="line"/>
      <point x="133" y="489" type="line"/>
      <point x="266" y="658" type="line"/>
      <point x="690" y="658" type="line"/>
    </contour>
  </outline>
</glyph>
<glyph name="O_Idieresis" format="2">
  <advance width="662"/>
  <unicode hex="F3870"/>
  <outline>
    <component base="Odieresis" identifier="44262081"/>
    <contour>
      <point x="224" y="201" type="line"/>
      <point x="424" y="201" type="line"/>
      <point x="425" y="219" type="line"/>
      <point x="367" y="239" type="line"/>
      <point x="439" y="488" type="line"/>
      <point x="496" y="508" type="line"/>
      <point x="500" y="526" type="line"/>
      <point x="311" y="526" type="line"/>
      <point x="307" y="512" type="line"/>
      <point x="356" y="490" type="line"/>
      <point x="283" y="239" type="line"/>
      <point x="225" y="219" type="line"/>
    </contour>
  </outline>
</glyph>
<glyph name="o_f" format="2">
  <advance width="529"/>
  <unicode hex="F3910"/>
  <outline>
    <component base="o"/>
    <contour>
      <point x="366" y="424" type="curve"/>
      <point x="469" y="330" type="line"/>
      <point x="499" y="458"/>
      <point x="514" y="513"/>
      <point x="523" y="549" type="curve" smooth="yes"/>
      <point x="535" y="598"/>
      <point x="551" y="651"/>
      <point x="561" y="674" type="curve"/>
      <point x="602" y="668"/>
      <point x="653" y="648"/>
      <point x="707" y="618" type="curve"/>
      <point x="757" y="726" type="line"/>
      <point x="725" y="741"/>
      <point x="676" y="744"/>
      <point x="650" y="744" type="curve" smooth="yes"/>
      <point x="593" y="744"/>
      <point x="417" y="649"/>
      <point x="393" y="545" type="curve"/>
      <point x="386" y="509"/>
      <point x="377" y="467"/>
    </contour>
    <contour>
      <point x="592" y="437" type="line"/>
      <point x="618" y="481" type="line"/>
      <point x="611" y="504" type="line"/>
      <point x="394" y="486" type="line"/>
      <point x="365" y="446" type="line"/>
    </contour>
  </outline>
</glyph>
<glyph name="o_t" format="2">
  <advance width="762"/>
  <unicode hex="F3940"/>
  <outline>
    <component base="o"/>
    <component base="barreft" xOffset="447" yOffset="30"/>
    <contour>
      <point x="657" y="246" type="curve" smooth="yes"/>
      <point x="719" y="456"/>
      <point x="762" y="581"/>
      <point x="787" y="636" type="curve"/>
      <point x="771" y="646" type="line"/>
      <point x="614" y="487" type="line"/>
      <point x="589" y="412"/>
      <point x="555" y="308"/>
      <point x="533" y="232" type="curve" smooth="yes"/>
      <point x="498" y="114"/>
      <point x="476" y="51"/>
      <point x="450" y="18" type="curve"/>
      <point x="412" y="40"/>
      <point x="360" y="129"/>
      <point x="346" y="177" type="curve"/>
      <point x="267" y="83" type="line"/>
      <point x="283" y="47"/>
      <point x="370" y="-14"/>
      <point x="416" y="-14" type="curve" smooth="yes"/>
      <point x="517" y="-14"/>
      <point x="601" y="78"/>
    </contour>
  </outline>
</glyph>
<glyph name="o_idieresis" format="2">
  <advance width="755"/>
  <unicode hex="F3970"/>
  <outline>
    <component base="o" identifier="6D79EA58"/>
    <component base="dieresiscomb" xOffset="419" identifier="0DBB4BE3"/>
    <contour>
      <point x="443" y="-14" type="curve" smooth="yes"/>
      <point x="544" y="-14"/>
      <point x="628" y="78"/>
      <point x="665" y="195" type="curve" smooth="yes"/>
      <point x="723" y="379"/>
      <point x="745" y="450"/>
      <point x="750" y="476" type="curve"/>
      <point x="656" y="509" type="line"/>
      <point x="616" y="474"/>
      <point x="576" y="435"/>
      <point x="515" y="384" type="curve"/>
      <point x="527" y="364" type="line"/>
      <point x="562" y="385"/>
      <point x="588" y="404"/>
      <point x="622" y="425" type="curve"/>
      <point x="612" y="392"/>
      <point x="592" y="330"/>
      <point x="560" y="232" type="curve" smooth="yes"/>
      <point x="525" y="114"/>
      <point x="503" y="51"/>
      <point x="477" y="18" type="curve"/>
      <point x="439" y="40"/>
      <point x="387" y="129"/>
      <point x="373" y="177" type="curve"/>
      <point x="294" y="83" type="line"/>
      <point x="310" y="47"/>
      <point x="397" y="-14"/>
    </contour>
  </outline>
</glyph>
<glyph name="P_M" format="2">
  <advance width="1118"/>
  <unicode hex="F4010"/>
  <outline>
    <component base="P"/>
    <contour>
      <point x="765" y="0" type="line"/>
      <point x="1057" y="0" type="line"/>
      <point x="1057" y="17" type="line"/>
      <point x="994" y="32" type="line"/>
      <point x="1090" y="667" type="line"/>
      <point x="1163" y="683" type="line"/>
      <point x="1166" y="700" type="line"/>
      <point x="960" y="700" type="line"/>
      <point x="856" y="35" type="line"/>
      <point x="765" y="17" type="line"/>
    </contour>
    <contour>
      <point x="645" y="529" type="line"/>
      <point x="517" y="455" type="line"/>
      <point x="562" y="63" type="line"/>
      <point x="576" y="59" type="line"/>
      <point x="955" y="596" type="line"/>
      <point x="965" y="700" type="line"/>
      <point x="940" y="700" type="line"/>
      <point x="615" y="169" type="line"/>
      <point x="680" y="221" type="line"/>
    </contour>
  </outline>
</glyph>
<glyph name="p_m" format="2">
  <advance width="1130"/>
  <unicode hex="F4110"/>
  <outline>
    <component base="p"/>
    <contour>
      <point x="601" y="-14" type="line"/>
      <point x="701" y="15" type="line"/>
      <point x="740" y="149" type="line" smooth="yes"/>
      <point x="770" y="253"/>
      <point x="843" y="420"/>
      <point x="843" y="468" type="curve" smooth="yes"/>
      <point x="843" y="491"/>
      <point x="821" y="509"/>
      <point x="794" y="509" type="curve" smooth="yes"/>
      <point x="703" y="509"/>
      <point x="531" y="308"/>
      <point x="422" y="157" type="curve"/>
      <point x="431" y="127" type="line"/>
      <point x="471" y="185"/>
      <point x="631" y="381"/>
      <point x="706" y="419" type="curve"/>
      <point x="697" y="380"/>
      <point x="646" y="248"/>
      <point x="611" y="148" type="curve" smooth="yes"/>
      <point x="564" y="14" type="line"/>
    </contour>
    <component base="epaule-n" xOffset="569"/>
  </outline>
</glyph>
<glyph name="R_I" format="2">
  <advance width="976"/>
  <unicode hex="F4470"/>
  <outline>
    <contour>
      <point x="-47" y="0" type="line"/>
      <point x="267" y="0" type="line"/>
      <point x="268" y="18" type="line"/>
      <point x="178" y="36" type="line"/>
      <point x="364" y="662" type="line"/>
      <point x="468" y="656"/>
      <point x="500" y="595"/>
      <point x="500" y="538" type="curve" smooth="yes"/>
      <point x="500" y="462"/>
      <point x="430" y="358"/>
      <point x="242" y="325" type="curve"/>
      <point x="234" y="295" type="line"/>
      <point x="425" y="316"/>
      <point x="645" y="412"/>
      <point x="645" y="538" type="curve" smooth="yes"/>
      <point x="645" y="631"/>
      <point x="529" y="700"/>
      <point x="358" y="700" type="curve" smooth="yes"/>
      <point x="164" y="700" type="line"/>
      <point x="160" y="686" type="line"/>
      <point x="227" y="664" type="line"/>
      <point x="40" y="35" type="line"/>
      <point x="-46" y="18" type="line"/>
    </contour>
    <contour>
      <point x="514" y="0" type="line"/>
      <point x="670" y="0" type="line"/>
      <point x="676" y="16" type="line"/>
      <point x="350" y="340" type="line"/>
      <point x="304" y="324" type="line"/>
    </contour>
    <component base="I" xOffset="618"/>
  </outline>
</glyph>
<glyph name="R_S" format="2">
  <advance width="1071"/>
  <unicode hex="F44C0"/>
  <anchor x="473" y="700" name="top"/>
  <outline>
    <contour>
      <point x="694" y="-14" type="curve" smooth="yes"/>
      <point x="851" y="-14"/>
      <point x="963" y="88"/>
      <point x="963" y="188" type="curve" smooth="yes"/>
      <point x="963" y="295"/>
      <point x="849" y="460"/>
      <point x="849" y="562" type="curve" smooth="yes"/>
      <point x="849" y="617"/>
      <point x="892" y="674"/>
      <point x="959" y="674" type="curve" smooth="yes"/>
      <point x="990" y="674"/>
      <point x="1019" y="659"/>
      <point x="1043" y="637" type="curve"/>
      <point x="1055" y="476" type="line"/>
      <point x="1072" y="473" type="line"/>
      <point x="1142" y="661" type="line"/>
      <point x="1101" y="696"/>
      <point x="1039" y="714"/>
      <point x="982" y="714" type="curve" smooth="yes"/>
      <point x="839" y="714"/>
      <point x="722" y="630"/>
      <point x="722" y="513" type="curve" smooth="yes"/>
      <point x="722" y="398"/>
      <point x="840" y="226"/>
      <point x="840" y="126" type="curve" smooth="yes"/>
      <point x="840" y="80"/>
      <point x="787" y="25"/>
      <point x="712" y="25" type="curve"/>
      <point x="692" y="40"/>
      <point x="646" y="77"/>
      <point x="614" y="105" type="curve" smooth="yes"/>
      <point x="350" y="340" type="line"/>
      <point x="304" y="324" type="line"/>
      <point x="463" y="105" type="line" smooth="yes"/>
      <point x="529" y="15"/>
      <point x="601" y="-14"/>
    </contour>
    <contour>
      <point x="-47" y="0" type="line"/>
      <point x="267" y="0" type="line"/>
      <point x="268" y="18" type="line"/>
      <point x="178" y="36" type="line"/>
      <point x="364" y="662" type="line"/>
      <point x="468" y="656"/>
      <point x="500" y="595"/>
      <point x="500" y="538" type="curve" smooth="yes"/>
      <point x="500" y="462"/>
      <point x="430" y="358"/>
      <point x="242" y="325" type="curve"/>
      <point x="234" y="295" type="line"/>
      <point x="425" y="316"/>
      <point x="645" y="412"/>
      <point x="645" y="538" type="curve" smooth="yes"/>
      <point x="645" y="631"/>
      <point x="529" y="700"/>
      <point x="358" y="700" type="curve" smooth="yes"/>
      <point x="164" y="700" type="line"/>
      <point x="160" y="686" type="line"/>
      <point x="227" y="664" type="line"/>
      <point x="40" y="35" type="line"/>
      <point x="-46" y="18" type="line"/>
    </contour>
  </outline>
</glyph>
<glyph name="r_i" format="2">
  <advance width="642"/>
  <unicode hex="F4570"/>
  <outline>
    <contour>
      <point x="185" y="144" type="line"/>
      <point x="248" y="360"/>
      <point x="499" y="600"/>
      <point x="524" y="620" type="curve"/>
      <point x="546" y="609"/>
      <point x="594" y="582"/>
      <point x="616" y="563" type="curve"/>
      <point x="689" y="725" type="line"/>
      <point x="663" y="735"/>
      <point x="613" y="744"/>
      <point x="599" y="744" type="curve" smooth="yes"/>
      <point x="549" y="744"/>
      <point x="260" y="436"/>
      <point x="174" y="163" type="curve"/>
    </contour>
    <component base="fut" xOffset="13"/>
    <component base="idotless" xOffset="323"/>
  </outline>
</glyph>
<glyph name="r_s" format="2">
  <advance width="419"/>
  <unicode hex="F45C0"/>
  <outline>
    <contour>
      <point x="170" y="139" type="line"/>
      <point x="238" y="260"/>
      <point x="308" y="362"/>
      <point x="333" y="381" type="curve"/>
      <point x="355" y="371"/>
      <point x="393" y="344"/>
      <point x="415" y="325" type="curve"/>
      <point x="488" y="487" type="line"/>
      <point x="462" y="497"/>
      <point x="412" y="506"/>
      <point x="398" y="506" type="curve" smooth="yes"/>
      <point x="348" y="506"/>
      <point x="248" y="336"/>
      <point x="164" y="163" type="curve"/>
    </contour>
    <contour>
      <point x="61" y="155" type="curve" smooth="yes"/>
      <point x="51" y="125"/>
      <point x="46" y="98"/>
      <point x="59" y="77" type="curve" smooth="yes"/>
      <point x="126" y="-33" type="line" smooth="yes"/>
      <point x="137" y="-51"/>
      <point x="154" y="-79"/>
      <point x="154" y="-102" type="curve" smooth="yes"/>
      <point x="154" y="-120"/>
      <point x="146" y="-136"/>
      <point x="133" y="-148" type="curve"/>
      <point x="97" y="-128"/>
      <point x="49" y="-82"/>
      <point x="1" y="-25" type="curve"/>
      <point x="-76" y="-149" type="line"/>
      <point x="-16" y="-190"/>
      <point x="45" y="-200"/>
      <point x="73" y="-200" type="curve" smooth="yes"/>
      <point x="150" y="-200"/>
      <point x="252" y="-102"/>
      <point x="252" y="-24" type="curve" smooth="yes"/>
      <point x="252" y="-13"/>
      <point x="248" y="9"/>
      <point x="236" y="30" type="curve" smooth="yes"/>
      <point x="192" y="108" type="line" smooth="yes"/>
      <point x="185" y="121"/>
      <point x="178" y="135"/>
      <point x="168" y="166" type="curve"/>
      <point x="234" y="326" type="line" smooth="yes"/>
      <point x="255" y="377"/>
      <point x="268" y="450"/>
      <point x="272" y="476" type="curve"/>
      <point x="177" y="509" type="line"/>
      <point x="141" y="475"/>
      <point x="100" y="438"/>
      <point x="37" y="384" type="curve"/>
      <point x="49" y="364" type="line"/>
      <point x="84" y="386"/>
      <point x="111" y="404"/>
      <point x="144" y="425" type="curve"/>
      <point x="135" y="396"/>
      <point x="117" y="324"/>
    </contour>
  </outline>
</glyph>
<glyph name="S_C" format="2">
  <advance width="599"/>
  <unicode hex="F4610"/>
  <outline>
    <contour>
      <point x="339" y="177" type="curve" smooth="yes"/>
      <point x="413" y="177"/>
      <point x="472" y="238"/>
      <point x="472" y="288" type="curve" smooth="yes"/>
      <point x="472" y="343"/>
      <point x="405" y="425"/>
      <point x="405" y="477" type="curve" smooth="yes"/>
      <point x="405" y="504"/>
      <point x="423" y="534"/>
      <point x="455" y="534" type="curve" smooth="yes"/>
      <point x="469" y="534"/>
      <point x="479" y="527"/>
      <point x="487" y="518" type="curve"/>
      <point x="500" y="437" type="line"/>
      <point x="514" y="436" type="line"/>
      <point x="544" y="532" type="line"/>
      <point x="524" y="546"/>
      <point x="497" y="562"/>
      <point x="467" y="562" type="curve" smooth="yes"/>
      <point x="398" y="562"/>
      <point x="331" y="510"/>
      <point x="331" y="452" type="curve" smooth="yes"/>
      <point x="331" y="394"/>
      <point x="400" y="306"/>
      <point x="400" y="255" type="curve" smooth="yes"/>
      <point x="400" y="229"/>
      <point x="382" y="204"/>
      <point x="351" y="204" type="curve" smooth="yes"/>
      <point x="335" y="204"/>
      <point x="324" y="209"/>
      <point x="313" y="220" type="curve"/>
      <point x="290" y="312" type="line"/>
      <point x="277" y="312" type="line"/>
      <point x="246" y="214" type="line"/>
      <point x="257" y="202"/>
      <point x="292" y="177"/>
    </contour>
    <component base="C"/>
  </outline>
</glyph>
<glyph name="S_L" format="2">
  <advance width="838"/>
  <unicode hex="F4660"/>
  <outline>
    <component base="S" identifier="CC570FA2"/>
    <contour>
      <point x="521" y="438" type="line"/>
      <point x="539" y="436" type="line"/>
      <point x="637" y="662" type="line"/>
      <point x="729" y="682" type="line"/>
      <point x="733" y="700" type="line"/>
      <point x="459" y="700" type="line"/>
      <point x="457" y="689" type="line"/>
      <point x="507" y="642" type="line"/>
    </contour>
    <contour>
      <point x="378" y="0" type="line"/>
      <point x="747" y="0" type="line"/>
      <point x="809" y="196" type="line"/>
      <point x="793" y="203" type="line"/>
      <point x="643" y="58" type="line"/>
      <point x="409" y="37" type="line"/>
      <point x="375" y="13" type="line"/>
    </contour>
  </outline>
</glyph>
<glyph name="S_S" format="2">
  <advance width="1043"/>
  <unicode hex="F4690"/>
  <outline>
    <contour>
      <point x="164" y="-9" type="curve" smooth="yes"/>
      <point x="316" y="-9"/>
      <point x="428" y="93"/>
      <point x="428" y="193" type="curve" smooth="yes"/>
      <point x="428" y="300"/>
      <point x="314" y="465"/>
      <point x="314" y="567" type="curve" smooth="yes"/>
      <point x="314" y="622"/>
      <point x="357" y="679"/>
      <point x="424" y="679" type="curve" smooth="yes"/>
      <point x="465" y="679"/>
      <point x="495" y="656"/>
      <point x="519" y="634" type="curve"/>
      <point x="548" y="364" type="line"/>
      <point x="471" y="62" type="line"/>
      <point x="493" y="34"/>
      <point x="585" y="-9"/>
      <point x="672" y="-9" type="curve" smooth="yes"/>
      <point x="824" y="-9"/>
      <point x="936" y="93"/>
      <point x="936" y="193" type="curve" smooth="yes"/>
      <point x="936" y="300"/>
      <point x="822" y="465"/>
      <point x="822" y="567" type="curve" smooth="yes"/>
      <point x="822" y="622"/>
      <point x="865" y="679"/>
      <point x="932" y="679" type="curve" smooth="yes"/>
      <point x="963" y="679"/>
      <point x="992" y="664"/>
      <point x="1016" y="642" type="curve"/>
      <point x="1028" y="481" type="line"/>
      <point x="1045" y="478" type="line"/>
      <point x="1115" y="666" type="line"/>
      <point x="1074" y="701"/>
      <point x="1012" y="719"/>
      <point x="955" y="719" type="curve" smooth="yes"/>
      <point x="812" y="719"/>
      <point x="695" y="635"/>
      <point x="695" y="518" type="curve" smooth="yes"/>
      <point x="695" y="403"/>
      <point x="813" y="231"/>
      <point x="813" y="131" type="curve" smooth="yes"/>
      <point x="813" y="85"/>
      <point x="768" y="32"/>
      <point x="695" y="32" type="curve" smooth="yes"/>
      <point x="664" y="32"/>
      <point x="628" y="42"/>
      <point x="600" y="69" type="curve"/>
      <point x="563" y="362" type="line"/>
      <point x="647" y="658" type="line"/>
      <point x="606" y="694"/>
      <point x="505" y="719"/>
      <point x="447" y="719" type="curve" smooth="yes"/>
      <point x="304" y="719"/>
      <point x="187" y="635"/>
      <point x="187" y="518" type="curve" smooth="yes"/>
      <point x="187" y="403"/>
      <point x="305" y="231"/>
      <point x="305" y="131" type="curve" smooth="yes"/>
      <point x="305" y="85"/>
      <point x="260" y="32"/>
      <point x="187" y="32" type="curve" smooth="yes"/>
      <point x="156" y="32"/>
      <point x="119" y="40"/>
      <point x="89" y="69" type="curve"/>
      <point x="68" y="253" type="line"/>
      <point x="51" y="255" type="line"/>
      <point x="-20" y="62" type="line"/>
      <point x="2" y="34"/>
      <point x="71" y="-9"/>
    </contour>
  </outline>
</glyph>
<glyph name="S_T" format="2">
  <advance width="1056"/>
  <unicode hex="F46C0"/>
  <outline>
    <contour>
      <point x="164" y="-9" type="curve" smooth="yes"/>
      <point x="316" y="-9"/>
      <point x="428" y="93"/>
      <point x="428" y="193" type="curve" smooth="yes"/>
      <point x="428" y="300"/>
      <point x="314" y="465"/>
      <point x="314" y="567" type="curve" smooth="yes"/>
      <point x="314" y="622"/>
      <point x="355" y="658"/>
      <point x="424" y="658" type="curve" smooth="yes"/>
      <point x="662" y="658" type="line"/>
      <point x="662" y="700" type="line"/>
      <point x="447" y="700" type="line" smooth="yes"/>
      <point x="302" y="700"/>
      <point x="187" y="635"/>
      <point x="187" y="518" type="curve" smooth="yes"/>
      <point x="187" y="403"/>
      <point x="305" y="231"/>
      <point x="305" y="131" type="curve" smooth="yes"/>
      <point x="305" y="85"/>
      <point x="260" y="32"/>
      <point x="187" y="32" type="curve" smooth="yes"/>
      <point x="156" y="32"/>
      <point x="119" y="40"/>
      <point x="89" y="69" type="curve"/>
      <point x="68" y="253" type="line"/>
      <point x="51" y="255" type="line"/>
      <point x="-20" y="62" type="line"/>
      <point x="2" y="34"/>
      <point x="71" y="-9"/>
    </contour>
    <contour>
      <point x="473" y="0" type="line"/>
      <point x="819" y="0" type="line"/>
      <point x="821" y="18" type="line"/>
      <point x="721" y="38" type="line"/>
      <point x="917" y="700" type="line"/>
      <point x="779" y="700" type="line"/>
      <point x="584" y="41" type="line"/>
      <point x="474" y="16" type="line"/>
    </contour>
    <contour>
      <point x="1076" y="482" type="line"/>
      <point x="1094" y="482" type="line"/>
      <point x="1153" y="732" type="line"/>
      <point x="1136" y="739" type="line"/>
      <point x="1053" y="700" type="line"/>
      <point x="615" y="700" type="line"/>
      <point x="615" y="658" type="line"/>
      <point x="1039" y="658" type="line"/>
    </contour>
  </outline>
</glyph>
